<svg xmlns="http://www.w3.org/2000/svg" xmlns:xlink="http://www.w3.org/1999/xlink" width="1280" zoomAndPan="magnify" viewBox="0 0 960 959.999988" height="1280" preserveAspectRatio="xMidYMid meet" version="1.0"><defs><clipPath id="16a999f5c2"><path d="M 348.550781 886.578125 L 450.796875 886.578125 L 450.796875 949.722656 L 348.550781 949.722656 Z M 348.550781 886.578125 " clip-rule="nonzero"/></clipPath><clipPath id="8d2a773819"><path d="M 561 886.578125 L 664 886.578125 L 664 949.722656 L 561 949.722656 Z M 561 886.578125 " clip-rule="nonzero"/></clipPath><clipPath id="7666101e9d"><path d="M 556 347 L 780.121094 347 L 780.121094 499 L 556 499 Z M 556 347 " clip-rule="nonzero"/></clipPath></defs><path fill="#f6e0ca" d="M 444.320312 715.941406 C 444.320312 715.941406 439.425781 781.339844 435.234375 793.902344 C 423.875 827.957031 366.3125 890.535156 366.3125 890.535156 C 366.3125 890.535156 393.070312 911.730469 416.304688 902.136719 C 416.304688 902.136719 470.839844 847.640625 487.5 815.089844 C 505.5625 779.816406 512.5 722.75 512.5 722.75 L 444.320312 715.941406 " fill-opacity="1" fill-rule="nonzero"/><path fill="#d8dade" d="M 426.027344 813.128906 C 406.089844 847.285156 366.3125 890.535156 366.3125 890.535156 C 366.3125 890.535156 393.070312 911.730469 416.304688 902.136719 C 416.304688 902.136719 457.878906 860.59375 479.515625 828.382812 C 457.207031 835.527344 435.996094 826.445312 426.027344 813.128906 " fill-opacity="1" fill-rule="nonzero"/><path fill="#c792b2" d="M 467.832031 844.328125 C 468.4375 843.566406 469.042969 842.792969 469.636719 842.023438 C 452.042969 844.96875 432.957031 835.554688 418.90625 824.46875 C 418.492188 825.09375 418.113281 825.691406 417.703125 826.3125 C 430.808594 837.65625 450.597656 846.378906 467.832031 844.328125 " fill-opacity="1" fill-rule="nonzero"/><path fill="#c792b2" d="M 455.976562 858.914062 C 456.578125 858.195312 457.179688 857.46875 457.78125 856.742188 C 440.328125 855.164062 419.898438 851.691406 408.292969 839.625 C 407.957031 840.082031 407.621094 840.519531 407.269531 840.976562 C 411.082031 844.285156 415.746094 846.863281 420.183594 849.191406 C 432.328125 855.539062 443.648438 858.035156 455.976562 858.914062 " fill-opacity="1" fill-rule="nonzero"/><g clip-path="url(#16a999f5c2)"><path fill="#a85583" d="M 388.011719 894.574219 C 384.195312 901.574219 369.324219 886 365.289062 889.023438 C 361.253906 892.050781 342.824219 916.523438 350.402344 929.386719 C 358.367188 942.921875 410.246094 955.632812 435.996094 946.796875 C 460.253906 938.46875 449.121094 922.824219 437 916.765625 C 427.269531 911.910156 416.304688 910.21875 420.847656 902.644531 C 425.394531 895.074219 426.398438 890.535156 409.222656 887.003906 C 402.144531 885.546875 391.042969 889.023438 388.011719 894.574219 " fill-opacity="1" fill-rule="nonzero"/></g><path fill="#f6e0ca" d="M 533.320312 746.03125 C 533.320312 746.03125 556.613281 778.28125 561.59375 800.015625 C 567.144531 824.238281 572.195312 882.769531 569.164062 915.066406 C 569.164062 915.066406 603.5 928.183594 611.585938 916.078125 C 611.585938 916.078125 614.121094 837.863281 608.0625 799.507812 C 602 761.167969 574.730469 699.601562 574.730469 699.601562 C 574.730469 699.601562 537.371094 697.589844 533.320312 746.03125 " fill-opacity="1" fill-rule="nonzero"/><path fill="#d8dade" d="M 564.777344 817.980469 C 568.824219 846.402344 571.601562 889.160156 569.164062 915.066406 C 569.164062 915.066406 603.5 928.183594 611.585938 916.078125 C 611.585938 916.078125 613.691406 850.824219 609.445312 810.292969 C 595.210938 818.433594 580.722656 820.582031 564.777344 817.980469 " fill-opacity="1" fill-rule="nonzero"/><path fill="#c792b2" d="M 610.398438 821.210938 C 610.332031 820.355469 610.273438 819.511719 610.199219 818.664062 C 598.628906 828.800781 581.890625 830.460938 566.089844 828.152344 C 566.199219 828.992188 566.289062 829.832031 566.386719 830.6875 C 582.113281 832.8125 599.1875 830.527344 610.398438 821.210938 " fill-opacity="1" fill-rule="nonzero"/><path fill="#c792b2" d="M 584.566406 843.195312 C 594.585938 842.476562 603.136719 840.238281 611.296875 836.847656 C 611.253906 835.984375 611.222656 835.125 611.175781 834.265625 C 596.910156 840.546875 581 845.136719 567.445312 840.753906 C 567.496094 841.382812 567.5625 842.011719 567.621094 842.640625 C 573.074219 843.820312 579.003906 843.597656 584.566406 843.195312 " fill-opacity="1" fill-rule="nonzero"/><g clip-path="url(#8d2a773819)"><path fill="#a85583" d="M 597.382812 896.828125 C 594.375 904.21875 572.328125 894.445312 568.65625 897.90625 C 564.988281 901.371094 557.050781 926.671875 563.929688 935.65625 C 573.46875 948.132812 626.34375 955.003906 650.9375 943.324219 C 674.117188 932.332031 661.285156 918.035156 648.558594 913.375 C 638.34375 909.648438 627.246094 909.1875 630.914062 901.160156 C 634.570312 893.128906 635.070312 888.503906 617.613281 886.921875 C 610.398438 886.269531 599.773438 890.980469 597.382812 896.828125 " fill-opacity="1" fill-rule="nonzero"/></g><path fill="#b04e94" d="M 428.199219 588.878906 C 428.199219 588.878906 383.511719 620.332031 358.207031 664.183594 C 332.902344 708.027344 315.769531 745.410156 321.179688 751.632812 C 326.566406 757.859375 364.914062 752.761719 387.777344 764.523438 C 410.628906 776.296875 428.339844 790.222656 435.863281 788.179688 C 443.394531 786.160156 477.769531 785.875 482.386719 795.816406 C 486.996094 805.765625 541.546875 801.957031 557.515625 794.863281 C 573.484375 787.773438 588.316406 770.125 607.554688 765.328125 C 626.800781 760.527344 646.871094 772.777344 664.167969 756.855469 C 681.460938 740.945312 682.625 727.109375 691.101562 726.347656 C 699.570312 725.59375 729.160156 722.558594 727.300781 707.832031 C 725.433594 693.113281 648.027344 599.164062 608.945312 593.089844 C 569.878906 587.027344 428.199219 588.878906 428.199219 588.878906 " fill-opacity="1" fill-rule="nonzero"/><path fill="#c762ab" d="M 445.386719 693.046875 C 453.890625 641.683594 463.601562 600.539062 462.46875 600.253906 C 461.488281 599.996094 450.035156 640.832031 441.484375 692.414062 C 432.011719 743.953125 433.851562 786.851562 435.414062 786.664062 C 436.039062 786.582031 435.957031 744.394531 445.386719 693.046875 " fill-opacity="1" fill-rule="nonzero"/><path fill="#c762ab" d="M 393.070312 669.503906 C 415.457031 622.488281 436.171875 585.625 435.160156 585.050781 C 434.28125 584.527344 411.976562 620.601562 389.5 667.820312 C 366.140625 714.730469 356.042969 756.464844 357.597656 756.71875 C 358.214844 756.8125 369.816406 716.242188 393.070312 669.503906 " fill-opacity="1" fill-rule="nonzero"/><path fill="#c762ab" d="M 484.941406 697.480469 C 482.320312 643.160156 477.363281 599.351562 476.316406 599.449219 C 475.183594 599.554688 478.367188 643.453125 480.988281 697.671875 C 484.214844 751.929688 482.136719 795.714844 482.386719 795.816406 C 484.296875 796.101562 488.164062 751.800781 484.941406 697.480469 " fill-opacity="1" fill-rule="nonzero"/><path fill="#c762ab" d="M 584.402344 682.441406 C 568.730469 642.261719 553.054688 611.011719 552.097656 611.449219 C 551.058594 611.929688 565.105469 643.855469 580.703125 683.875 C 596.960938 723.730469 605.128906 757.429688 605.644531 757.425781 C 607.324219 757.207031 600.707031 722.429688 584.402344 682.441406 " fill-opacity="1" fill-rule="nonzero"/><path fill="#c762ab" d="M 643.917969 667.347656 C 624.492188 632.128906 605.792969 605.394531 604.933594 605.980469 C 603.960938 606.589844 621.136719 634.214844 640.457031 669.25 C 660.523438 704.066406 670.871094 734.613281 671.035156 734.695312 C 673.09375 734.332031 664.089844 702.261719 643.917969 667.347656 " fill-opacity="1" fill-rule="nonzero"/><path fill="#c762ab" d="M 663.277344 674.554688 C 645.890625 650.125 629.28125 632.339844 628.488281 633.03125 C 627.621094 633.761719 642.804688 652.605469 660.050781 676.839844 C 677.878906 700.816406 687.742188 722.625 688.28125 722.539062 C 689.910156 722.117188 681.257812 698.6875 663.277344 674.554688 " fill-opacity="1" fill-rule="nonzero"/><path fill="#f9ddee" d="M 535.144531 351.519531 C 535.144531 351.519531 568.910156 354.964844 621.359375 399.0625 C 621.359375 399.0625 620.90625 444.003906 583.347656 465.015625 L 538.417969 443.90625 C 538.417969 443.90625 505.386719 362.554688 535.144531 351.519531 " fill-opacity="1" fill-rule="nonzero"/><path fill="#90b3cc" d="M 585.714844 382.195312 C 588.015625 383.3125 590.128906 384.414062 592.085938 386.078125 C 593.203125 387.019531 594.441406 385.285156 593.449219 384.316406 C 591.464844 382.390625 588.855469 381.089844 586.152344 380.582031 C 585.175781 380.398438 584.898438 381.796875 585.714844 382.195312 " fill-opacity="1" fill-rule="nonzero"/><path fill="#90b3cc" d="M 601.921875 392.523438 C 604.0625 393.976562 606.355469 395.96875 608.722656 396.972656 C 609.800781 397.429688 610.71875 396.140625 610.0625 395.234375 C 608.511719 393.085938 605.425781 391.640625 603.035156 390.601562 C 601.886719 390.097656 600.851562 391.804688 601.921875 392.523438 " fill-opacity="1" fill-rule="nonzero"/><path fill="#90b3cc" d="M 589.648438 399.683594 C 591.078125 400.628906 593.304688 402.902344 595.089844 402.464844 C 595.523438 402.351562 595.828125 402.023438 595.773438 401.546875 C 595.550781 399.410156 592.074219 398.402344 590.253906 398.21875 C 589.496094 398.148438 588.933594 399.210938 589.648438 399.683594 " fill-opacity="1" fill-rule="nonzero"/><path fill="#90b3cc" d="M 578.652344 376.234375 C 579.113281 376.664062 578.023438 375.375 577.871094 375.191406 C 577.4375 374.703125 577.039062 374.1875 576.609375 373.710938 C 575.253906 372.1875 572.972656 373.945312 574.101562 375.640625 C 574.597656 376.390625 575.320312 377.175781 576.039062 377.835938 C 576.171875 380.042969 581.226562 378.695312 578.652344 376.234375 " fill-opacity="1" fill-rule="nonzero"/><path fill="#609cb2" d="M 478.542969 405.875 C 478.542969 405.875 474.375 387.25 460.957031 377.773438 C 447.546875 368.292969 405.714844 372.621094 406.566406 380.671875 C 407.40625 388.707031 445.320312 414.65625 478.542969 405.875 " fill-opacity="1" fill-rule="nonzero"/><path fill="#f39acf" d="M 415.304688 372.15625 C 415.304688 372.15625 376.828125 387.394531 390.386719 474.632812 C 403.953125 561.867188 390.808594 621.835938 390.808594 621.835938 C 390.808594 621.835938 527.269531 669.027344 623.820312 597.757812 C 623.820312 597.757812 609.625 494.375 587.332031 429.6875 C 565.042969 365.007812 553.1875 366.386719 531.722656 351.214844 C 510.257812 336.042969 415.304688 372.15625 415.304688 372.15625 " fill-opacity="1" fill-rule="nonzero"/><path fill="#f9ddee" d="M 395.007812 590.265625 C 393.3125 610.402344 390.808594 621.835938 390.808594 621.835938 C 390.808594 621.835938 527.269531 669.027344 623.820312 597.757812 C 623.820312 597.757812 622.238281 586.210938 619.296875 568.445312 C 550.566406 607.523438 468.683594 622.738281 395.007812 590.265625 " fill-opacity="1" fill-rule="nonzero"/><path fill="#f9ddee" d="M 431.601562 376.300781 C 431.601562 376.300781 457.992188 416.324219 492.550781 410.375 C 527.105469 404.429688 531.457031 362.707031 517.195312 346.023438 L 431.601562 376.300781 " fill-opacity="1" fill-rule="nonzero"/><path fill="#e3c7b4" d="M 442.859375 368.808594 C 442.859375 368.808594 463.445312 403.566406 489.859375 398.765625 C 516.261719 393.96875 519.203125 358.023438 508.109375 343.511719 L 442.859375 368.808594 " fill-opacity="1" fill-rule="nonzero"/><path fill="#f9ddee" d="M 427.578125 534.738281 C 427.445312 533.652344 425.828125 533.777344 425.703125 534.804688 C 425.417969 536.929688 424.78125 539.269531 425.515625 541.332031 C 425.871094 542.351562 427.40625 542.160156 427.742188 541.246094 C 428.480469 539.238281 427.8125 536.8125 427.578125 534.738281 " fill-opacity="1" fill-rule="nonzero"/><path fill="#f9ddee" d="M 423.117188 575.363281 C 422.886719 574.179688 421.308594 574.335938 421.089844 575.4375 C 420.59375 577.984375 420.140625 581.796875 421.417969 584.167969 C 422.039062 585.324219 423.714844 585.050781 423.910156 583.746094 C 424.089844 582.5 423.8125 581.375 423.648438 580.128906 C 423.4375 578.546875 423.40625 576.9375 423.117188 575.363281 " fill-opacity="1" fill-rule="nonzero"/><path fill="#f9ddee" d="M 419.957031 547.449219 C 419.421875 546.628906 418.183594 547.371094 418.320312 548.210938 C 418.707031 550.867188 419.246094 554.773438 420.980469 556.902344 C 421.796875 557.90625 423.105469 557.03125 423.058594 555.933594 C 423.003906 554.53125 422.367188 553.207031 421.902344 551.882812 C 421.363281 550.347656 420.835938 548.835938 419.957031 547.449219 " fill-opacity="1" fill-rule="nonzero"/><path fill="#f9ddee" d="M 414.90625 571.601562 C 415.570312 569.21875 415.109375 566.503906 414.234375 564.230469 C 413.742188 562.96875 412.074219 563.742188 412.140625 564.890625 C 412.25 566.996094 411.953125 569.339844 412.507812 571.378906 C 412.792969 572.457031 414.535156 572.921875 414.90625 571.601562 " fill-opacity="1" fill-rule="nonzero"/><path fill="#f9ddee" d="M 412.382812 530.851562 C 412.207031 532.308594 412.128906 533.765625 411.902344 535.21875 C 411.667969 536.773438 410.796875 538.101562 411.632812 539.566406 C 411.984375 540.171875 412.558594 540.359375 413.210938 540.132812 C 416.1875 539.070312 415.535156 533.253906 415.261719 530.75 C 415.074219 529.074219 412.574219 529.273438 412.382812 530.851562 " fill-opacity="1" fill-rule="nonzero"/><path fill="#f9ddee" d="M 414.984375 523.0625 C 415.808594 523.566406 416.703125 522.953125 416.625 522.027344 C 416.492188 520.261719 415.328125 518.582031 414.953125 516.796875 C 414.554688 514.972656 414.464844 513.054688 413.925781 511.269531 C 413.632812 510.292969 412.023438 510.128906 411.976562 511.335938 C 411.863281 514.53125 411.886719 521.164062 414.984375 523.0625 " fill-opacity="1" fill-rule="nonzero"/><path fill="#f3a362" d="M 649.40625 263.917969 C 661.128906 268.84375 667.394531 269.246094 663.5625 280.730469 C 661.09375 287.988281 655.132812 311.152344 648.664062 315.296875 C 643.695312 318.554688 629.703125 313.535156 623.539062 313.675781 C 624.535156 318.539062 634.1875 324.453125 634.425781 328.328125 C 634.871094 333.304688 620.632812 343.535156 616.746094 346.578125 C 605.054688 319.699219 592.421875 299.203125 564.324219 285.808594 C 555.441406 280.863281 549.695312 283.160156 550.097656 274.074219 C 550.421875 266.75 554.859375 263.277344 562 263.199219 C 569.523438 263.128906 578.429688 263.464844 585.660156 261.167969 C 591.710938 259.25 596.222656 257.019531 602.859375 256.46875 C 618.773438 255.15625 634.660156 257.832031 649.40625 263.917969 " fill-opacity="1" fill-rule="nonzero"/><path fill="#f3a362" d="M 249.933594 383.507812 C 244.242188 394.851562 239.726562 399.242188 250.121094 405.46875 C 256.71875 409.378906 276.320312 423.105469 283.933594 422.039062 C 289.832031 421.289062 297.179688 408.390625 301.960938 404.484375 C 304.363281 408.820312 300.871094 419.597656 303.238281 422.691406 C 306.128906 426.769531 323.601562 425.273438 328.527344 425.070312 C 319.910156 397.054688 316.179688 373.269531 328.796875 344.832031 C 332.339844 335.292969 338.183594 333.324219 331.96875 326.675781 C 326.964844 321.320312 321.320312 321.574219 315.855469 326.152344 C 310.085938 330.988281 303.539062 337.03125 296.550781 339.988281 C 290.710938 342.460938 285.832031 343.6875 280.441406 347.585938 C 267.480469 356.929688 257.171875 369.289062 249.933594 383.507812 " fill-opacity="1" fill-rule="nonzero"/><path fill="#f3a362" d="M 339.21875 31.742188 C 376.652344 18.339844 425.773438 10.121094 465.476562 18.226562 C 500.082031 24.878906 540.382812 42.058594 566.640625 66.0625 C 594.066406 91.234375 622.882812 137.582031 614.332031 175.863281 C 608.421875 205.558594 588.480469 220.460938 558.449219 220.835938 C 537.515625 220.605469 517.328125 215.507812 496.164062 214.582031 C 470.125 212.898438 443.097656 215.390625 417.207031 221.390625 C 381.054688 229.136719 343.910156 243.382812 314.324219 266.785156 C 305.191406 274.011719 300.835938 285.847656 290.988281 292.351562 C 271.371094 305.28125 251.792969 278.070312 244.003906 264.664062 C 180.113281 154.648438 276.136719 54.308594 339.21875 31.742188 " fill-opacity="1" fill-rule="nonzero"/><path fill="#f6e0ca" d="M 374.6875 384.710938 C 451.105469 400.492188 580.582031 356.996094 601.449219 277.660156 C 621.789062 200.238281 593.480469 121.125 522.675781 85.4375 C 429.152344 38.285156 296.386719 73.9375 267.464844 180.125 C 244.308594 265.164062 282.070312 363.8125 374.6875 384.710938 " fill-opacity="1" fill-rule="nonzero"/><path fill="#f6e0ca" d="M 202.925781 276.59375 C 202.8125 302.480469 219.835938 321.976562 245.742188 327.074219 C 259.882812 329.882812 277.984375 324.011719 287.882812 313.542969 C 308.574219 291.65625 274.03125 259.636719 256.355469 249.492188 C 231.558594 235.257812 203.085938 240.398438 202.925781 276.59375 " fill-opacity="1" fill-rule="nonzero"/><path fill="#f6e0ca" d="M 656.355469 159.753906 C 665.183594 184.085938 655.738281 208.175781 633.0625 221.703125 C 620.667969 229.113281 601.667969 229.675781 588.8125 223.144531 C 561.945312 209.484375 583.695312 167.714844 596.898438 152.222656 C 615.445312 130.484375 644.003906 125.71875 656.355469 159.753906 " fill-opacity="1" fill-rule="nonzero"/><path fill="#eea1ab" d="M 278.699219 273.996094 C 282.179688 298.867188 301.476562 301.816406 322.457031 294.304688 C 340.804688 287.746094 347.105469 273.675781 341.859375 254.867188 C 338.984375 244.597656 330.371094 236.707031 319.878906 234.820312 C 294.691406 230.28125 275.1875 248.941406 278.699219 273.996094 " fill-opacity="1" fill-rule="nonzero"/><path fill="#67594c" d="M 346.960938 220.796875 C 347.75 226.488281 348.339844 235.300781 357.070312 234.109375 C 366.125 232.867188 362.597656 220.71875 361.402344 216.414062 C 360.746094 214.066406 358.777344 212.277344 356.363281 211.835938 C 350.609375 210.796875 346.148438 215.066406 346.960938 220.796875 " fill-opacity="1" fill-rule="nonzero"/><path fill="#67594c" d="M 504.335938 187.210938 C 505.9375 192.734375 509 201.019531 500.550781 203.492188 C 491.789062 206.0625 490.027344 193.53125 489.363281 189.117188 C 489.007812 186.703125 490.070312 184.242188 492.082031 182.882812 C 496.898438 179.585938 502.730469 181.660156 504.335938 187.210938 " fill-opacity="1" fill-rule="nonzero"/><path fill="#eea1ab" d="M 583.257812 207.347656 C 596.347656 228.78125 583.308594 243.28125 562.339844 250.792969 C 543.984375 257.359375 530.167969 250.453125 522.285156 232.582031 C 517.988281 222.835938 519.640625 211.261719 526.550781 203.160156 C 543.136719 183.675781 570.078125 185.765625 583.257812 207.347656 " fill-opacity="1" fill-rule="nonzero"/><path fill="#67594c" d="M 440.867188 205.25 C 445.15625 214.007812 446.5625 223.664062 450.011719 232.6875 C 458.078125 229.753906 466.046875 233.40625 469.1875 242.398438 C 473.113281 253.519531 462.28125 264.066406 451.289062 260.792969 C 448.132812 259.863281 447.226562 254.886719 450.925781 253.886719 C 455.582031 252.628906 461.78125 252.835938 461.890625 246.539062 C 461.992188 239.71875 455.410156 237.453125 450.125 240.335938 C 448.1875 241.386719 445.605469 240.808594 444.882812 238.511719 C 441.617188 228.199219 439.46875 217.640625 437.054688 207.105469 C 436.5625 204.929688 439.730469 202.917969 440.867188 205.25 " fill-opacity="1" fill-rule="nonzero"/><path fill="#f3a362" d="M 336.164062 120.761719 C 390.492188 152.742188 455.261719 145.070312 514.859375 142.929688 C 539.304688 142.035156 563.992188 139.507812 588.214844 137.910156 C 591.066406 110.734375 552.664062 89.855469 533.980469 75.003906 C 506.511719 54.472656 473.96875 30.167969 437.808594 37.914062 C 386.5 48.992188 335.9375 76.816406 299.460938 114.78125 C 278.042969 137.105469 255 159.183594 252.324219 191.699219 C 251.285156 204.199219 248.144531 231 257.882812 240.839844 C 257.574219 229.433594 266.679688 224.511719 274.125 216.417969 C 282.898438 206.894531 291.277344 196.996094 299.089844 186.648438 C 303.007812 181.46875 341.535156 123.933594 336.164062 120.761719 " fill-opacity="1" fill-rule="nonzero"/><path fill="#b04e94" d="M 297.464844 190.960938 C 306.996094 189.679688 299.835938 180.875 296.070312 176.515625 C 290.503906 168.859375 283.871094 161.355469 276.574219 155.320312 C 273.613281 152.863281 264.851562 145.765625 263.628906 153.402344 C 262.273438 161.933594 270.632812 169.910156 276.035156 175.085938 C 282.710938 181.46875 285.894531 192.496094 297.464844 190.960938 " fill-opacity="1" fill-rule="nonzero"/><path fill="#b04e94" d="M 311.8125 173.8125 C 321.359375 172.535156 314.195312 163.730469 310.425781 159.371094 C 304.871094 151.722656 298.226562 144.210938 290.941406 138.175781 C 287.976562 135.722656 279.199219 128.628906 277.984375 136.257812 C 276.617188 144.796875 284.984375 152.769531 290.394531 157.945312 C 297.078125 164.324219 300.257812 175.355469 311.8125 173.8125 " fill-opacity="1" fill-rule="nonzero"/><path fill="#ffffff" d="M 419.65625 295.726562 L 501.152344 271.089844 C 501.152344 271.089844 517.722656 332.433594 477.597656 344.402344 C 437.476562 356.367188 419.65625 295.726562 419.65625 295.726562 " fill-opacity="1" fill-rule="nonzero"/><path fill="#f5aa15" d="M 651.621094 342.660156 C 674.734375 337.621094 674.933594 317.8125 675.59375 300.796875 C 676.3125 282.363281 672.488281 266.042969 672.488281 266.042969 C 672.488281 266.042969 686.484375 212.363281 683.042969 208.558594 C 679.605469 204.761719 642.722656 227.660156 642.722656 227.660156 C 642.722656 227.660156 610.371094 212.269531 583.132812 218.644531 C 583.132812 218.644531 557.226562 195.085938 551.402344 195.691406 C 545.589844 196.296875 550.796875 236 549.835938 241.371094 C 549.054688 245.734375 525.238281 293.019531 535.820312 318.804688 C 542.664062 335.476562 547.445312 336.195312 557.914062 342.34375 C 588.832031 353.175781 621.214844 355.097656 651.621094 342.660156 " fill-opacity="1" fill-rule="nonzero"/><path fill="#f5aa15" d="M 665.800781 418.730469 C 665.800781 418.730469 677.191406 403.589844 673.03125 378.375 C 668.894531 353.164062 650.496094 343.214844 647.992188 335.433594 C 647.992188 335.433594 648.0625 335.316406 648.167969 335.15625 C 621.339844 348.804688 588.09375 349.898438 559.738281 339.96875 C 561.523438 341.019531 563.335938 341.824219 565.132812 342.25 C 556.328125 341.105469 550.328125 348.484375 546.246094 356.609375 C 543.410156 370.269531 540.902344 389.070312 543.464844 406.148438 C 548.179688 437.652344 547.796875 473.832031 546.125 481.367188 C 546.125 481.367188 530.628906 497.703125 531.105469 517.625 C 531.558594 537.550781 542.605469 546.816406 554.585938 554.464844 C 566.554688 562.097656 574.664062 566.757812 572.855469 568.132812 C 571.050781 569.5 548.085938 585.609375 543.996094 599.996094 C 539.90625 614.386719 544.324219 613.757812 544.324219 613.757812 C 544.324219 613.757812 547.894531 626.085938 556.304688 624.703125 C 564.722656 623.304688 571.015625 584.574219 608.691406 566.523438 C 608.691406 566.523438 633.25 573.03125 637.550781 569.527344 C 641.835938 566.035156 638.40625 556.582031 638.40625 556.582031 L 650.351562 551.019531 C 650.351562 551.019531 667.210938 568.066406 656.105469 602.136719 C 644.996094 636.214844 621.898438 649.449219 616.355469 650.699219 C 610.8125 651.945312 614.785156 686.074219 656.292969 651.203125 C 697.820312 616.339844 691.738281 554.769531 672.441406 528.0625 C 672.441406 528.0625 688.871094 506.808594 685.957031 473.9375 C 683.035156 441.0625 665.800781 418.730469 665.800781 418.730469 " fill-opacity="1" fill-rule="nonzero"/><path fill="#f3b718" d="M 592.917969 389.960938 C 598.15625 388.277344 595.832031 379.6875 600.445312 374.65625 C 599.828125 382.414062 606.339844 387.433594 613.261719 390.980469 C 609.699219 386.792969 608.007812 381.558594 609.679688 375.683594 C 612.003906 384.277344 620.171875 383.429688 626.460938 383.621094 C 622.476562 380.914062 619.953125 378.597656 621.625 372.738281 C 622.585938 377.8125 628.355469 378.808594 631.472656 382.539062 C 615.949219 432.125 581.027344 480.230469 597.953125 534.148438 C 584.933594 524.109375 567.507812 512.824219 566.863281 498.359375 C 567.011719 458.738281 591.917969 421.40625 579.484375 381.390625 C 582.222656 388.507812 589.148438 392.0625 592.917969 389.960938 " fill-opacity="1" fill-rule="nonzero"/><path fill="#914921" d="M 662.347656 396.066406 C 659.996094 396.117188 657.765625 393.824219 654.683594 391.730469 C 651.6875 389.496094 648.148438 387.0625 648.621094 384.636719 C 648.90625 382.550781 654.230469 381.066406 659.796875 384.996094 C 665.589844 389.15625 664.875 396.21875 662.347656 396.066406 " fill-opacity="1" fill-rule="nonzero"/><path fill="#914921" d="M 639.984375 406.6875 C 640.371094 404.660156 646.804688 404.484375 652.390625 408.964844 C 658.15625 413.230469 659.277344 419.65625 657.273438 420.550781 C 655.070312 421.699219 651.484375 418.695312 647.058594 415.539062 C 642.980469 412.230469 639.277344 409.226562 639.984375 406.6875 " fill-opacity="1" fill-rule="nonzero"/><path fill="#914921" d="M 629.738281 431.121094 C 629.941406 429.03125 634.921875 427.964844 639.355469 431.460938 C 643.957031 435.003906 643.332031 440.675781 641.097656 440.9375 C 638.671875 441.464844 636.398438 439.628906 633.867188 437.894531 C 631.617188 436.09375 629.273438 433.625 629.738281 431.121094 " fill-opacity="1" fill-rule="nonzero"/><path fill="#914921" d="M 621.6875 451.839844 C 625.679688 452.699219 628.128906 455.589844 627.351562 457.773438 C 626.5625 459.992188 623.234375 460.8125 619.839844 460.089844 C 616.464844 459.234375 614.085938 457.386719 614.011719 454.929688 C 613.898438 452.6875 617.722656 450.835938 621.6875 451.839844 " fill-opacity="1" fill-rule="nonzero"/><path fill="#914921" d="M 560.050781 410.851562 C 556.414062 413.929688 551.816406 414.886719 548.207031 416.054688 C 547.203125 416.234375 546.035156 416.441406 544.8125 416.585938 C 544.421875 413.078125 543.972656 409.578125 543.464844 406.148438 C 543.160156 404.160156 542.929688 402.144531 542.769531 400.125 C 543.476562 399.871094 544.207031 399.648438 544.988281 399.449219 C 557.601562 396.957031 564.148438 408.039062 560.050781 410.851562 " fill-opacity="1" fill-rule="nonzero"/><path fill="#914921" d="M 555.34375 389.257812 C 552.234375 392.757812 547.179688 393.679688 544.40625 393.980469 C 543.855469 393.921875 543.179688 393.816406 542.433594 393.691406 C 542.300781 388.121094 542.582031 382.539062 543.089844 377.175781 C 543.578125 377.128906 544.070312 377.078125 544.59375 377.054688 C 555.035156 377.371094 558.554688 386.066406 555.34375 389.257812 " fill-opacity="1" fill-rule="nonzero"/><path fill="#914921" d="M 561.441406 432.457031 C 561.816406 437.15625 554.519531 441.621094 547.402344 446.519531 C 547.269531 446.601562 547.15625 446.6875 547.023438 446.773438 C 546.808594 441.046875 546.476562 434.957031 545.988281 428.746094 C 554.460938 426.332031 561.359375 428.945312 561.441406 432.457031 " fill-opacity="1" fill-rule="nonzero"/><path fill="#914921" d="M 679.78125 514.546875 C 676.179688 523.191406 672.441406 528.0625 672.441406 528.0625 C 672.984375 528.820312 673.515625 529.601562 674.03125 530.402344 C 653.074219 520.554688 641.371094 505.925781 644.304688 502.640625 C 647.089844 499.308594 661.472656 506.664062 679.78125 514.546875 " fill-opacity="1" fill-rule="nonzero"/><path fill="#914921" d="M 657.621094 485.6875 C 655.363281 481.664062 668.949219 474.3125 686.03125 475.421875 C 686.460938 481.421875 686.273438 487.015625 685.648438 492.148438 C 670.292969 489.324219 659.519531 489.230469 657.621094 485.6875 " fill-opacity="1" fill-rule="nonzero"/><path fill="#914921" d="M 677.890625 442.835938 C 678.132812 442.859375 678.375 442.890625 678.625 442.902344 C 680.585938 447.976562 682.394531 453.726562 683.785156 460.035156 C 681.664062 459.941406 679.476562 459.851562 677.269531 459.75 C 661.050781 458.324219 652.011719 462.234375 647.984375 459.859375 C 642.679688 456.835938 657.582031 440.40625 677.890625 442.835938 " fill-opacity="1" fill-rule="nonzero"/><path fill="#914921" d="M 621.746094 220.429688 C 629.746094 222.46875 636.246094 224.910156 639.773438 226.386719 C 632.578125 237.433594 623.839844 243.140625 620.414062 240.535156 C 617.054688 238.039062 618.316406 230.285156 621.746094 220.429688 " fill-opacity="1" fill-rule="nonzero"/><path fill="#914921" d="M 606.90625 238.382812 C 602.503906 238.175781 599.652344 229.003906 600.367188 217.199219 C 607.039062 217.449219 613.546875 218.492188 619.386719 219.835938 C 615.960938 231.046875 611.417969 238.605469 606.90625 238.382812 " fill-opacity="1" fill-rule="nonzero"/><path fill="#914921" d="M 593.308594 238.472656 C 588.300781 240.585938 578.816406 230.066406 577.59375 214.40625 C 580.203125 217.917969 583.132812 218.644531 583.132812 218.644531 C 588.335938 217.429688 593.726562 217.011719 599.046875 217.128906 C 599.027344 228.527344 597.636719 236.714844 593.308594 238.472656 " fill-opacity="1" fill-rule="nonzero"/><path fill="#914921" d="M 643.199219 260.484375 C 643.269531 256.378906 635.9375 255.304688 631.847656 256.507812 C 627.75 257.699219 626.894531 260.472656 628.347656 261.664062 C 629.820312 262.847656 633.59375 260.351562 636.882812 260.574219 C 640.167969 260.792969 643.136719 263.558594 643.199219 260.484375 " fill-opacity="1" fill-rule="nonzero"/><path fill="#914921" d="M 560.003906 259.148438 C 559.742188 255.042969 567.027344 253.671875 571.167969 254.699219 C 575.324219 255.707031 576.300781 258.445312 574.878906 259.699219 C 573.46875 260.957031 569.59375 258.609375 566.3125 258.972656 C 563.035156 259.335938 560.183594 262.214844 560.003906 259.148438 " fill-opacity="1" fill-rule="nonzero"/><path fill="#f4b839" d="M 614.1875 322.371094 C 618.339844 321.589844 622.339844 312.476562 622.25 309.9375 C 621.914062 301.054688 613.195312 292.601562 599.574219 294.644531 C 589.570312 296.152344 580.757812 298.449219 577.855469 303.027344 C 572.257812 311.878906 591.226562 339.59375 599.507812 307.984375 C 599.542969 307.839844 601.632812 324.742188 614.1875 322.371094 " fill-opacity="1" fill-rule="nonzero"/><path fill="#914921" d="M 610.34375 295.824219 C 610.835938 291.457031 589.886719 292.269531 588.621094 294.730469 C 587.347656 297.195312 591.917969 306.957031 598.265625 306.507812 C 604.613281 306.042969 609.96875 299.101562 610.34375 295.824219 " fill-opacity="1" fill-rule="nonzero"/><path fill="#c9811f" d="M 606.371094 442.261719 C 622.738281 409.160156 633.203125 381.863281 633.414062 381.71875 C 635.125 382.09375 625.679688 410.890625 609.503906 443.578125 C 602.464844 460.355469 597.253906 476.160156 596.238281 487.898438 C 594.488281 500.519531 602.597656 504.246094 602.308594 504.390625 C 602.628906 505.539062 592.511719 501.328125 593.847656 487.777344 C 594.296875 475.417969 599.269531 459.222656 606.371094 442.261719 " fill-opacity="1" fill-rule="nonzero"/><path fill="#c9811f" d="M 632.667969 457.113281 C 651.3125 435.75 665.84375 419.066406 665.800781 418.730469 C 667.640625 419.785156 653.566406 438.34375 635.34375 459.179688 C 618.195312 480.914062 614.121094 504.621094 611.148438 503.136719 C 612.457031 503.855469 614.824219 479.996094 632.667969 457.113281 " fill-opacity="1" fill-rule="nonzero"/><path fill="#c9811f" d="M 574.011719 452.566406 C 578.980469 415.277344 578.570312 384.355469 579.828125 384.421875 C 580.433594 384.402344 582.386719 415.21875 577.351562 453.109375 C 573.558594 471.300781 569.859375 490.34375 556.183594 496.535156 C 548.164062 497.605469 545.59375 489.816406 545.648438 486.851562 C 545.722656 483.242188 545.890625 481.335938 546.125 481.367188 C 547.765625 479.554688 543.269531 493.792969 555.871094 494.15625 C 565.867188 489.3125 570.796875 470.246094 574.011719 452.566406 " fill-opacity="1" fill-rule="nonzero"/><path fill="#c9811f" d="M 591.53125 518.679688 C 589.726562 508.488281 595.363281 501.4375 595.882812 502.085938 C 596.878906 502.484375 593.21875 509.492188 594.867188 518.128906 C 596.445312 526.683594 602.234375 531.964844 601.292969 532.839844 C 601.140625 533.441406 593.523438 528.855469 591.53125 518.679688 " fill-opacity="1" fill-rule="nonzero"/><path fill="#c9811f" d="M 585.28125 530.882812 C 599.6875 534.75 610.222656 541.113281 609.46875 542.226562 C 609.21875 542.6875 598.386719 537.914062 584.4375 534.160156 C 577.535156 532.316406 571.023438 531.714844 567.171875 533.546875 C 563.632812 535.660156 565.09375 539.4375 564.535156 539.371094 C 564.523438 540.019531 561.03125 535.851562 565.871094 531.535156 C 570.636719 528.476562 578.140625 529 585.28125 530.882812 " fill-opacity="1" fill-rule="nonzero"/><path fill="#c9811f" d="M 572.527344 558.632812 C 562.191406 557.898438 553.804688 548.160156 555.777344 540.671875 C 557.910156 533.398438 563.3125 532.628906 563.089844 532.847656 C 563.683594 533.308594 559.078125 535.308594 558.144531 541.078125 C 557.550781 546.9375 563.34375 554.453125 573.285156 555.335938 C 592.652344 559.15625 607.804688 564.933594 607.507812 565.71875 C 607.167969 566.6875 591.882812 562.460938 572.527344 558.632812 " fill-opacity="1" fill-rule="nonzero"/><path fill="#f6cd74" d="M 578.5625 319.921875 C 578.742188 319.957031 584.34375 323.621094 591.445312 320.492188 C 597.511719 317.054688 597.910156 309.871094 598.890625 309.398438 C 598.917969 309.351562 598.957031 309.347656 598.960938 309.382812 C 598.992188 309.382812 599 309.386719 599.027344 309.394531 C 599.039062 309.386719 599.058594 309.375 599.082031 309.386719 C 599.09375 309.339844 599.125 309.351562 599.144531 309.398438 C 600.128906 309.902344 600.390625 317.078125 606.386719 320.640625 C 613.445312 323.917969 619.109375 320.371094 619.277344 320.328125 C 620.800781 320.960938 613.835938 327.488281 605.136719 323.179688 C 601.253906 320.703125 599.617188 317.417969 598.972656 314.660156 C 598.285156 317.414062 596.578125 320.652344 592.664062 323.054688 C 583.882812 327.191406 577.03125 320.53125 578.5625 319.921875 " fill-opacity="1" fill-rule="nonzero"/><path fill="#f6cd74" d="M 664.785156 318.191406 C 671.308594 321.332031 675.628906 325.328125 675.289062 325.746094 C 674.9375 326.199219 670.160156 323.03125 663.917969 320.023438 C 657.679688 316.597656 652.128906 316.707031 652.035156 316.125 C 651.796875 315.554688 658.308594 314.589844 664.785156 318.191406 " fill-opacity="1" fill-rule="nonzero"/><path fill="#f6cd74" d="M 662.394531 326.632812 C 666.21875 330.792969 668.125 334.996094 667.683594 335.246094 C 667.164062 335.578125 664.542969 331.957031 660.882812 328 C 657.492188 323.726562 653.679688 321.652344 654.078125 320.839844 C 654.03125 320.539062 658.855469 322.183594 662.394531 326.632812 " fill-opacity="1" fill-rule="nonzero"/><path fill="#f6cd74" d="M 668.117188 312.1875 C 673.742188 313.3125 677.902344 315.378906 677.703125 315.890625 C 677.515625 316.410156 673.136719 315.273438 667.730469 314.183594 C 662.292969 312.847656 658.054688 313.398438 657.847656 312.882812 C 657.582031 312.332031 662.484375 310.785156 668.117188 312.1875 " fill-opacity="1" fill-rule="nonzero"/><path fill="#f6cd74" d="M 533.183594 310.484375 C 526.339844 312.839844 521.582031 316.300781 521.871094 316.753906 C 522.164062 317.25 527.28125 314.65625 533.828125 312.398438 C 540.425781 309.726562 545.925781 310.484375 546.089844 309.914062 C 546.386719 309.382812 540.039062 307.660156 533.183594 310.484375 " fill-opacity="1" fill-rule="nonzero"/><path fill="#f6cd74" d="M 534.574219 319.140625 C 530.285156 322.832031 527.90625 326.78125 528.3125 327.074219 C 528.78125 327.46875 531.816406 324.179688 535.910156 320.679688 C 539.773438 316.832031 543.808594 315.210938 543.507812 314.363281 C 543.589844 314.0625 538.605469 315.132812 534.574219 319.140625 " fill-opacity="1" fill-rule="nonzero"/><path fill="#f6cd74" d="M 530.574219 304.128906 C 524.863281 304.585938 520.480469 306.152344 520.625 306.679688 C 520.746094 307.222656 525.230469 306.605469 530.726562 306.152344 C 536.285156 305.464844 540.425781 306.503906 540.691406 306.019531 C 541.023438 305.507812 536.335938 303.390625 530.574219 304.128906 " fill-opacity="1" fill-rule="nonzero"/><path fill="#f6cd74" d="M 664.976562 254.691406 C 664.976562 254.691406 657.691406 237.933594 649.675781 233.03125 C 649.675781 233.03125 664.6875 222.617188 667.375 226.390625 C 670.066406 230.160156 664.976562 254.691406 664.976562 254.691406 " fill-opacity="1" fill-rule="nonzero"/><path fill="#67594c" d="M 573.011719 284.082031 C 573.230469 286.453125 571.488281 288.554688 569.121094 288.773438 C 566.75 288.996094 564.644531 287.25 564.421875 284.886719 C 564.203125 282.515625 565.945312 280.410156 568.316406 280.191406 C 570.691406 279.96875 572.789062 281.714844 573.011719 284.082031 " fill-opacity="1" fill-rule="nonzero"/><path fill="#67594c" d="M 634.496094 287.988281 C 634.714844 290.351562 632.972656 292.457031 630.597656 292.675781 C 628.234375 292.898438 626.128906 291.148438 625.910156 288.785156 C 625.6875 286.414062 627.433594 284.3125 629.800781 284.09375 C 632.171875 283.871094 634.273438 285.617188 634.496094 287.988281 " fill-opacity="1" fill-rule="nonzero"/><path fill="#f6e0ca" d="M 454.035156 435.5 C 454.035156 435.5 486.820312 490.4375 518.125 503.121094 C 549.425781 515.792969 622.40625 528.601562 622.40625 528.601562 L 626.398438 559.570312 C 626.398438 559.570312 531.753906 564.777344 496.671875 547.570312 C 461.585938 530.375 413.441406 470.738281 413.441406 470.738281 L 454.035156 435.5 " fill-opacity="1" fill-rule="nonzero"/><path fill="#f9ddee" d="M 494.578125 464.558594 C 494.578125 464.558594 462.324219 514.082031 437.132812 518.558594 C 437.132812 518.558594 390.867188 491.023438 381.75 460.511719 C 373.574219 433.15625 381.9375 390.710938 419.8125 396.089844 C 457.683594 401.46875 494.578125 464.558594 494.578125 464.558594 " fill-opacity="1" fill-rule="nonzero"/><path fill="#ffffff" d="M 453.285156 445.007812 C 452.429688 443.816406 451.679688 442.5625 450.828125 441.367188 C 450.011719 440.210938 449.046875 439.152344 448.429688 437.871094 C 447.730469 436.40625 449.542969 435.378906 450.640625 436.359375 C 452.582031 438.09375 454.511719 441.058594 455.566406 443.453125 C 456.171875 444.820312 454.246094 446.359375 453.285156 445.007812 " fill-opacity="1" fill-rule="nonzero"/><path fill="#ffffff" d="M 477.679688 463.304688 C 477.128906 461.894531 476.328125 460.757812 475.566406 459.464844 C 474.792969 458.164062 476.714844 456.96875 477.695312 458.015625 C 478.859375 459.257812 479.746094 460.796875 479.929688 462.507812 C 480.050781 463.746094 478.210938 464.679688 477.679688 463.304688 " fill-opacity="1" fill-rule="nonzero"/><path fill="#ffffff" d="M 467.226562 442.957031 C 469.207031 444.246094 472.171875 446.988281 471.445312 449.601562 C 471.246094 450.296875 470.34375 450.589844 469.761719 450.1875 C 468.964844 449.652344 468.769531 449.105469 468.347656 448.246094 C 467.757812 447.042969 466.765625 446.046875 465.746094 445.207031 C 464.429688 444.128906 465.746094 441.988281 467.226562 442.957031 " fill-opacity="1" fill-rule="nonzero"/><path fill="#ffffff" d="M 456.230469 433.742188 C 454.585938 432.695312 452.199219 430.921875 451.355469 429.15625 C 451.003906 428.429688 451.691406 427.507812 452.507812 427.796875 C 454.421875 428.5 456.226562 430.753906 457.453125 432.324219 C 458.101562 433.15625 457.15625 434.328125 456.230469 433.742188 " fill-opacity="1" fill-rule="nonzero"/><path fill="#ffffff" d="M 463.953125 461.804688 C 463.019531 460.332031 461.230469 459.019531 461.078125 457.257812 C 461.054688 456.8125 461.527344 456.503906 461.917969 456.496094 C 463.988281 456.503906 465.210938 459.15625 465.867188 460.832031 C 466.367188 462.121094 464.699219 462.980469 463.953125 461.804688 " fill-opacity="1" fill-rule="nonzero"/><path fill="#f6e0ca" d="M 606.703125 542.492188 C 606.703125 542.492188 607.929688 525.589844 614.375 513.652344 C 620.828125 501.710938 628.410156 500.597656 630.746094 490.191406 C 633.09375 479.785156 645.46875 486.011719 642.042969 496.425781 C 638.625 506.832031 634.53125 512.699219 641.042969 515.921875 C 647.5625 519.144531 666.617188 513.859375 676.132812 509.050781 C 685.644531 504.25 691.3125 512.234375 682.242188 518.992188 C 682.242188 518.992188 681.058594 544.554688 657.6875 554.179688 C 634.320312 563.8125 616.117188 564.328125 606.703125 542.492188 " fill-opacity="1" fill-rule="nonzero"/><path fill="#df78bb" d="M 658.496094 751.359375 C 658.503906 751.191406 658.496094 751.226562 658.492188 751.367188 C 658.492188 751.367188 658.496094 751.359375 658.496094 751.359375 " fill-opacity="1" fill-rule="nonzero"/><path fill="#df78bb" d="M 469.023438 781.449219 L 469.175781 781.296875 C 469.074219 781.378906 468.96875 781.402344 468.871094 781.46875 C 468.921875 781.460938 468.96875 781.457031 469.023438 781.449219 " fill-opacity="1" fill-rule="nonzero"/><path fill="#df78bb" d="M 340.585938 731.027344 C 340.660156 731.011719 340.714844 730.980469 340.761719 730.945312 C 340.695312 730.96875 340.660156 731.011719 340.585938 731.027344 " fill-opacity="1" fill-rule="nonzero"/><path fill="#df78bb" d="M 637.660156 694.128906 L 637.96875 694.246094 C 637.84375 694.214844 637.753906 694.140625 637.648438 694.082031 C 637.648438 694.097656 637.65625 694.117188 637.660156 694.128906 " fill-opacity="1" fill-rule="nonzero"/><path fill="#df78bb" d="M 567.832031 771.496094 C 567.75 771.550781 567.664062 771.609375 567.832031 771.496094 " fill-opacity="1" fill-rule="nonzero"/><path fill="#df78bb" d="M 694.054688 670.503906 C 693.648438 669.746094 693.039062 668.972656 692.949219 668.277344 C 692.808594 667.128906 692.09375 666.15625 690.832031 666.148438 C 689.769531 666.148438 688.574219 667.125 688.699219 668.273438 C 688.953125 670.546875 689.820312 672.324219 692.070312 673.121094 C 693.636719 673.679688 694.726562 671.765625 694.054688 670.503906 " fill-opacity="1" fill-rule="nonzero"/><path fill="#df78bb" d="M 701.160156 684.332031 C 702.535156 685.023438 704.265625 683.867188 703.816406 682.277344 C 703.320312 680.523438 702.273438 679.34375 701.179688 677.941406 C 700.300781 676.804688 698.921875 676.21875 697.566406 677.023438 C 696.015625 677.941406 695.957031 679.90625 697.070312 681.171875 C 698.25 682.507812 699.574219 683.542969 701.160156 684.332031 " fill-opacity="1" fill-rule="nonzero"/><path fill="#df78bb" d="M 713.820312 696.929688 C 713.523438 694.726562 712.125 693.15625 710.988281 691.324219 C 709.488281 688.90625 705.636719 691.183594 707.1875 693.585938 C 708.433594 695.527344 709.65625 697.359375 711.617188 698.632812 C 712.859375 699.4375 713.976562 698.097656 713.820312 696.929688 " fill-opacity="1" fill-rule="nonzero"/><path fill="#df78bb" d="M 717.183594 706.605469 C 714.644531 706.476562 713.832031 709.597656 713.984375 711.5625 C 714.097656 713.097656 715.671875 714.195312 717.101562 713.347656 C 718.394531 712.578125 719.007812 711.628906 719.488281 710.234375 C 720.046875 708.617188 718.925781 706.691406 717.183594 706.605469 " fill-opacity="1" fill-rule="nonzero"/><path fill="#df78bb" d="M 702.042969 715.699219 C 701.347656 715.851562 700.640625 716.09375 700.050781 716.496094 C 699.707031 716.734375 699.207031 717.152344 699.03125 717.554688 C 699.046875 717.53125 699.042969 717.53125 699.058594 717.515625 C 698.945312 717.660156 698.832031 717.804688 698.726562 717.960938 C 697.523438 719.804688 699.78125 722.085938 701.644531 721.214844 C 702.25 721.152344 702.835938 721.015625 703.472656 720.90625 C 704.523438 720.71875 705.457031 720.476562 706.328125 719.828125 C 707.386719 719.054688 707.507812 717.863281 706.683594 716.855469 C 705.644531 715.585938 703.796875 715.324219 702.042969 715.699219 " fill-opacity="1" fill-rule="nonzero"/><path fill="#df78bb" d="M 706.878906 707.3125 C 706.636719 707.304688 706.40625 707.355469 706.171875 707.386719 C 705.195312 707.421875 704.253906 707.863281 703.738281 708.769531 C 703.078125 709.925781 703.273438 711.539062 704.363281 712.363281 C 705.246094 713.039062 706.292969 713.328125 707.320312 712.71875 C 708.210938 712.1875 708.699219 711.039062 708.453125 710.027344 C 708.960938 708.789062 708.367188 707.347656 706.878906 707.3125 " fill-opacity="1" fill-rule="nonzero"/><path fill="#df78bb" d="M 686.703125 657.351562 C 686.292969 656.792969 686.230469 656.667969 685.875 656.105469 C 684.941406 654.605469 682.671875 654.921875 682.183594 656.613281 C 681.503906 658.976562 683.585938 662.054688 686.242188 661.117188 C 687.101562 660.808594 687.929688 659.832031 687.539062 658.851562 C 687.308594 658.28125 686.902344 657.625 686.703125 657.351562 " fill-opacity="1" fill-rule="nonzero"/><path fill="#df78bb" d="M 637.304688 694.957031 C 637.789062 696.3125 638.328125 697.804688 639.488281 698.730469 C 640.601562 699.613281 642.164062 699.304688 642.613281 697.878906 C 643.136719 696.238281 642.546875 694.523438 641.78125 693.054688 C 641.117188 691.785156 640.15625 690.578125 638.695312 690.597656 C 638.617188 690.585938 638.550781 690.566406 638.460938 690.5625 C 637.050781 690.488281 636.425781 691.84375 636.71875 692.949219 C 636.789062 693.722656 637.109375 694.417969 637.304688 694.957031 " fill-opacity="1" fill-rule="nonzero"/><path fill="#df78bb" d="M 643.816406 718.542969 C 643.714844 720.109375 643.96875 721.902344 644.839844 723.214844 C 645.523438 724.238281 647.433594 724.539062 648.007812 723.1875 C 648.722656 721.5 648.699219 719.722656 648.246094 717.949219 C 647.59375 715.386719 643.972656 716.082031 643.816406 718.542969 " fill-opacity="1" fill-rule="nonzero"/><path fill="#df78bb" d="M 651.664062 708.804688 C 652.433594 706.167969 651.289062 703.382812 650.230469 700.976562 C 649.742188 699.875 648.203125 699.433594 647.132812 699.730469 C 645.679688 700.128906 644.820312 701.664062 645.203125 703.109375 C 645.8125 705.402344 646.628906 708.097656 648.492188 709.675781 C 649.578125 710.601562 651.246094 710.246094 651.664062 708.804688 " fill-opacity="1" fill-rule="nonzero"/><path fill="#df78bb" d="M 656.425781 730.5625 C 653.984375 731.121094 653.394531 734.480469 654.296875 736.695312 C 654.285156 736.664062 654.265625 736.636719 654.25 736.605469 C 654.371094 737.0625 654.496094 737.621094 654.792969 737.996094 C 655.796875 739.285156 657.734375 739.550781 658.667969 737.960938 C 658.8125 737.710938 658.910156 737.4375 658.992188 737.171875 C 659.394531 736.5625 659.632812 735.777344 659.78125 735.097656 C 660.011719 734.066406 660.105469 733.144531 659.753906 732.269531 C 659.285156 730.9375 657.777344 729.972656 656.425781 730.5625 " fill-opacity="1" fill-rule="nonzero"/><path fill="#df78bb" d="M 645.511719 751.238281 C 644.542969 750.949219 643.707031 750.949219 642.707031 751.007812 C 641.515625 751.085938 640.511719 751.945312 640.511719 753.203125 C 640.503906 754.292969 641.511719 755.542969 642.703125 755.398438 C 643.277344 755.332031 643.871094 755.277344 644.4375 755.179688 C 644.984375 755.089844 645.480469 754.800781 645.96875 754.550781 C 647.429688 753.800781 646.933594 751.65625 645.511719 751.238281 " fill-opacity="1" fill-rule="nonzero"/><path fill="#df78bb" d="M 657.183594 745.941406 C 655.859375 746.328125 654.726562 747.03125 654.078125 748.292969 C 653.769531 748.890625 653.546875 749.585938 653.625 750.269531 C 653.691406 750.859375 653.734375 751.273438 654.03125 751.792969 C 653.746094 751.285156 653.96875 751.96875 653.996094 752.085938 C 654.1875 753.070312 655.234375 753.765625 656.199219 753.765625 C 657.425781 753.765625 658.304688 752.816406 658.441406 751.660156 C 658.460938 751.625 658.492188 751.601562 658.507812 751.570312 C 658.613281 751.394531 659.222656 750.046875 658.894531 750.773438 C 659 750.554688 659.097656 750.335938 659.21875 750.125 C 659.332031 749.847656 659.445312 749.5625 659.5625 749.285156 C 659.496094 749.472656 659.53125 749.417969 659.660156 749.121094 C 660.464844 747.484375 659.113281 745.371094 657.183594 745.941406 " fill-opacity="1" fill-rule="nonzero"/><path fill="#df78bb" d="M 628.828125 756.535156 C 627.632812 755.941406 626.617188 755.5 625.214844 755.859375 C 623.542969 756.289062 623.398438 759.046875 625.226562 759.367188 C 625.734375 759.457031 626.238281 759.578125 626.75 759.667969 C 627.539062 759.808594 628.210938 759.554688 628.851562 759.171875 C 629.789062 758.605469 629.875 757.0625 628.828125 756.535156 " fill-opacity="1" fill-rule="nonzero"/><path fill="#df78bb" d="M 571.234375 684.648438 C 570.707031 683.125 570.097656 681.800781 569.164062 680.480469 C 568.480469 679.507812 567.398438 678.957031 566.191406 679.285156 C 564.90625 679.632812 563.816406 681.1875 564.335938 682.53125 C 565.023438 684.308594 566.125 685.542969 567.457031 686.867188 C 569 688.402344 571.992188 686.832031 571.234375 684.648438 " fill-opacity="1" fill-rule="nonzero"/><path fill="#df78bb" d="M 574.453125 710.464844 C 575.589844 712.203125 578.207031 711.066406 577.769531 709.054688 C 577.199219 706.453125 577.117188 703.683594 576.390625 701.132812 C 575.710938 698.71875 572.425781 699.371094 572.21875 701.6875 C 571.949219 704.734375 572.789062 707.917969 574.453125 710.464844 " fill-opacity="1" fill-rule="nonzero"/><path fill="#df78bb" d="M 587.683594 726.039062 C 587.15625 723.894531 586.992188 721.65625 586.308594 719.546875 C 585.628906 717.453125 582.9375 718.023438 582.675781 720.03125 C 582.339844 722.75 582.847656 725.71875 584.898438 727.671875 C 586.121094 728.835938 588.070312 727.648438 587.683594 726.039062 " fill-opacity="1" fill-rule="nonzero"/><path fill="#df78bb" d="M 586.957031 742.203125 C 586.945312 743.847656 587.246094 745.292969 587.710938 746.847656 C 588.28125 748.765625 590.835938 748.238281 591.023438 746.40625 C 591.09375 745.707031 591.246094 745.023438 591.210938 744.308594 C 591.167969 743.425781 591.035156 742.550781 590.867188 741.683594 C 590.429688 739.429688 586.96875 740.007812 586.957031 742.203125 " fill-opacity="1" fill-rule="nonzero"/><path fill="#df78bb" d="M 585.59375 762.433594 C 583.964844 764.546875 582.332031 766.398438 581.617188 769.035156 C 581.078125 771.007812 583.464844 772.121094 584.867188 770.890625 C 586.726562 769.253906 588.082031 767.347656 589.171875 765.128906 C 589.617188 764.210938 589.546875 763.144531 588.789062 762.402344 C 587.984375 761.617188 586.351562 761.457031 585.59375 762.433594 " fill-opacity="1" fill-rule="nonzero"/><path fill="#df78bb" d="M 566.5 780.015625 C 565.683594 780.320312 564.808594 780.535156 563.992188 780.84375 C 562.804688 781.296875 561.859375 782.066406 560.902344 782.894531 C 559.511719 784.097656 561.011719 786.691406 562.75 786.035156 C 563.699219 785.675781 564.6875 785.476562 565.636719 785.109375 C 566.328125 784.84375 567.046875 784.601562 567.773438 784.394531 C 568.027344 784.480469 568.300781 784.535156 568.609375 784.539062 C 570.132812 784.539062 571.414062 783.269531 571.414062 781.738281 C 571.414062 778.835938 568.003906 778.300781 566.5 780.015625 " fill-opacity="1" fill-rule="nonzero"/><path fill="#df78bb" d="M 540.554688 795.492188 C 540.460938 795.550781 540.460938 795.582031 540.554688 795.492188 " fill-opacity="1" fill-rule="nonzero"/><path fill="#df78bb" d="M 540.527344 792.125 L 540.203125 792.042969 C 539.910156 791.882812 539.710938 791.84375 539.421875 791.789062 C 538.59375 791.640625 537.777344 791.664062 536.964844 791.898438 C 536.007812 792.171875 535.324219 793.042969 535.324219 794.035156 C 535.324219 795.328125 536.335938 796.152344 537.546875 796.257812 C 538.199219 796.320312 538.957031 796.222656 539.578125 795.988281 C 539.972656 795.828125 540.382812 795.710938 540.675781 795.371094 C 540.621094 795.429688 540.582031 795.460938 540.554688 795.492188 C 540.582031 795.472656 540.609375 795.453125 540.648438 795.4375 L 540.964844 795.304688 C 542.378906 794.679688 541.882812 792.4375 540.527344 792.125 " fill-opacity="1" fill-rule="nonzero"/><path fill="#df78bb" d="M 549.183594 783.675781 C 547.964844 784.097656 546.683594 784.292969 545.441406 784.617188 C 543.089844 785.230469 543.613281 788.753906 545.992188 788.792969 C 547.898438 788.816406 549.558594 787.878906 550.917969 786.625 C 552.191406 785.453125 550.839844 783.09375 549.183594 783.675781 " fill-opacity="1" fill-rule="nonzero"/><path fill="#df78bb" d="M 568.003906 775.28125 C 568.84375 774.851562 569.539062 774.542969 570.085938 773.566406 C 570.828125 772.234375 569.265625 770.558594 567.925781 771.441406 C 567.90625 771.453125 567.90625 771.453125 567.894531 771.460938 C 567.496094 771.417969 567.964844 771.496094 567.457031 771.351562 C 566.113281 770.964844 564.746094 772.058594 564.746094 773.425781 C 564.742188 775.148438 566.570312 776.007812 568.003906 775.28125 Z M 567.832031 771.496094 C 567.664062 771.609375 567.75 771.550781 567.832031 771.496094 " fill-opacity="1" fill-rule="nonzero"/><path fill="#df78bb" d="M 582.011719 753.480469 C 582.207031 752.75 582.101562 752.007812 581.507812 751.425781 C 580.878906 750.816406 579.75 750.589844 578.992188 751.128906 C 578.195312 751.691406 577.578125 752.277344 577.382812 753.277344 C 577.105469 754.769531 578.054688 756.265625 579.671875 756.265625 C 581.050781 756.265625 582.34375 754.878906 582.011719 753.480469 " fill-opacity="1" fill-rule="nonzero"/><path fill="#df78bb" d="M 578.289062 731.367188 C 578.363281 731.609375 578.433594 731.851562 578.515625 732.09375 C 578.476562 731.785156 578.433594 731.484375 578.382812 731.1875 C 578.289062 730.976562 578.199219 730.757812 578.109375 730.546875 C 578.21875 730.792969 578.210938 730.769531 578.097656 730.460938 C 577.921875 729.929688 577.578125 729.269531 577.238281 728.808594 C 576.449219 727.722656 574.527344 727.382812 573.84375 728.839844 C 572.921875 730.792969 572.910156 733.492188 575.113281 734.597656 C 577.339844 735.714844 579.242188 733.472656 578.289062 731.367188 " fill-opacity="1" fill-rule="nonzero"/><path fill="#df78bb" d="M 356.515625 677.335938 C 355.316406 678.109375 354.34375 679.023438 353.53125 680.191406 C 352.652344 681.453125 352.519531 682.964844 352.859375 684.425781 C 353.132812 685.609375 354.90625 685.839844 355.460938 684.75 C 356.289062 683.136719 357.035156 681.691406 358.542969 680.734375 C 360.691406 679.375 358.664062 675.953125 356.515625 677.335938 " fill-opacity="1" fill-rule="nonzero"/><path fill="#df78bb" d="M 347.429688 695.1875 C 345.699219 695.695312 344.890625 697.273438 344.539062 698.925781 C 344.132812 700.859375 346.71875 702.003906 347.765625 700.25 C 348.289062 699.371094 348.800781 698.550781 349.402344 697.734375 C 350.34375 696.46875 348.773438 694.792969 347.429688 695.1875 " fill-opacity="1" fill-rule="nonzero"/><path fill="#df78bb" d="M 340.113281 712.089844 C 337.785156 713.238281 336.539062 715.953125 336.648438 718.476562 C 336.707031 719.761719 338.238281 720.457031 339.1875 719.515625 C 340.695312 718.015625 341.226562 716.039062 342.402344 714.332031 C 343.425781 712.84375 341.464844 711.429688 340.113281 712.089844 " fill-opacity="1" fill-rule="nonzero"/><path fill="#df78bb" d="M 331.402344 729.824219 C 329.953125 730.636719 328.96875 731.410156 328.351562 733.011719 C 327.683594 734.730469 328.125 736.394531 328.957031 737.960938 C 329.761719 739.464844 332.234375 738.761719 332.175781 737.078125 C 332.140625 736.179688 332.375 735.328125 332.527344 734.445312 C 332.648438 733.773438 332.90625 732.867188 333.453125 732.433594 C 334.972656 731.203125 333 728.9375 331.402344 729.824219 " fill-opacity="1" fill-rule="nonzero"/><path fill="#df78bb" d="M 333.882812 744.210938 C 333.84375 743.84375 333.761719 743.46875 333.550781 743.105469 C 332.914062 742.039062 331.601562 741.515625 330.402344 741.839844 C 329.199219 742.167969 328.339844 743.285156 328.339844 744.53125 C 328.339844 745.765625 329.324219 747.113281 330.597656 747.3125 C 331.441406 747.960938 332.398438 748.25 333.671875 748.023438 C 334.820312 747.816406 335.4375 746.21875 334.777344 745.28125 C 334.503906 744.890625 334.195312 744.550781 333.882812 744.210938 " fill-opacity="1" fill-rule="nonzero"/><path fill="#df78bb" d="M 340.695312 744.175781 C 338.335938 744.261719 338.328125 747.917969 340.691406 747.835938 C 341.003906 747.820312 341.242188 747.871094 341.550781 747.949219 C 342.074219 748.089844 342.578125 748.082031 343.109375 748.113281 C 344.320312 748.167969 344.980469 746.527344 344.089844 745.722656 C 343.050781 744.792969 342.191406 744.113281 340.695312 744.175781 " fill-opacity="1" fill-rule="nonzero"/><path fill="#df78bb" d="M 338.402344 732.648438 C 339.382812 733.097656 340.835938 732.78125 341.058594 731.542969 C 341.105469 731.277344 341.136719 731.027344 341.132812 730.761719 C 342.589844 729.789062 342.085938 726.894531 340.066406 727.148438 C 338.839844 727.296875 337.898438 727.765625 337.277344 728.863281 C 336.570312 730.109375 337.089844 732.058594 338.402344 732.648438 Z M 340.761719 730.945312 C 340.714844 730.980469 340.660156 731.011719 340.585938 731.027344 C 340.660156 731.011719 340.695312 730.96875 340.761719 730.945312 " fill-opacity="1" fill-rule="nonzero"/><path fill="#df78bb" d="M 386.292969 700.992188 C 384.222656 703.640625 382.664062 706.484375 381.828125 709.753906 C 381.488281 711.097656 383.40625 711.925781 384.085938 710.6875 C 385.488281 708.121094 386.730469 705.511719 388.625 703.273438 C 389.972656 701.664062 387.578125 699.359375 386.292969 700.992188 " fill-opacity="1" fill-rule="nonzero"/><path fill="#df78bb" d="M 375.875 729.5 C 374.183594 732.566406 373.164062 735.515625 373.335938 739.054688 C 373.410156 740.558594 375.457031 741.25 376.238281 739.828125 C 377.828125 736.9375 377.929688 733.824219 379.050781 730.804688 C 379.734375 728.9375 376.800781 727.816406 375.875 729.5 " fill-opacity="1" fill-rule="nonzero"/><path fill="#df78bb" d="M 376.296875 750.851562 C 375.835938 748.953125 372.800781 749.347656 372.871094 751.3125 C 372.90625 752.109375 373.089844 752.785156 373.476562 753.480469 C 373.972656 754.371094 374.71875 754.777344 375.621094 755.144531 C 376.78125 755.621094 378.15625 754.566406 377.429688 753.308594 C 377 752.574219 376.503906 751.6875 376.296875 750.851562 " fill-opacity="1" fill-rule="nonzero"/><path fill="#df78bb" d="M 391.425781 759.113281 C 391.359375 759.101562 391.328125 759.09375 391.292969 759.09375 C 391.230469 759.035156 391.136719 758.96875 390.988281 758.863281 C 391.097656 758.941406 391.050781 758.898438 390.855469 758.75 C 390.652344 758.578125 390.4375 758.421875 390.210938 758.285156 L 389.648438 757.722656 C 389.308594 757.402344 388.890625 757.152344 388.507812 756.878906 C 387.808594 756.371094 386.699219 756.632812 386.128906 757.214844 C 385.476562 757.882812 385.472656 758.78125 385.851562 759.589844 C 386.347656 760.660156 387.097656 761.375 388.097656 761.996094 C 388.625 762.328125 389.191406 762.417969 389.804688 762.460938 C 390.464844 762.511719 390.941406 762.285156 391.433594 762.109375 C 392.816406 761.617188 393.015625 759.515625 391.425781 759.113281 " fill-opacity="1" fill-rule="nonzero"/><path fill="#df78bb" d="M 382.863281 720.101562 C 383.601562 718.800781 383.105469 717.207031 381.863281 716.445312 C 380.144531 715.398438 377.351562 715.613281 376.914062 718.015625 C 376.8125 718.589844 376.773438 719.019531 376.925781 719.589844 C 377 719.878906 377.109375 720.148438 377.253906 720.410156 C 377.761719 721.074219 377.839844 721.160156 377.476562 720.664062 C 378.125 721.632812 378.960938 721.96875 380.089844 722.078125 C 380.75 722.144531 381.574219 721.65625 381.859375 721.058594 C 382.277344 720.804688 382.644531 720.484375 382.863281 720.101562 " fill-opacity="1" fill-rule="nonzero"/><path fill="#df78bb" d="M 471.972656 726.511719 C 472.683594 726.511719 473.417969 726.003906 473.574219 725.285156 C 473.609375 725.097656 473.660156 724.921875 473.707031 724.738281 C 473.671875 724.855469 474.390625 723.585938 473.761719 724.40625 C 474.453125 723.5 474.628906 722.328125 473.730469 721.449219 C 472.757812 720.5 471.125 720.75 470.445312 721.910156 C 470.101562 722.503906 469.945312 723.113281 469.933594 723.796875 C 469.933594 723.796875 470.175781 724.710938 470.1875 724.792969 C 470.242188 724.964844 470.308594 725.128906 470.378906 725.289062 C 470.65625 725.984375 471.167969 726.511719 471.972656 726.511719 " fill-opacity="1" fill-rule="nonzero"/><path fill="#df78bb" d="M 470.1875 724.792969 C 470.179688 724.78125 470.175781 724.765625 470.167969 724.753906 C 470.1875 724.808594 470.1875 724.808594 470.1875 724.792969 " fill-opacity="1" fill-rule="nonzero"/><path fill="#df78bb" d="M 476.5625 751.582031 C 477.34375 750.457031 477.464844 749.398438 477.40625 748.050781 C 477.363281 747.035156 476.59375 746.1875 475.546875 746.1875 C 474.222656 746.183594 473.585938 747.367188 473.75 748.535156 C 473.859375 749.292969 473.96875 750.132812 473.933594 750.886719 C 473.867188 752.410156 475.8125 752.652344 476.5625 751.582031 " fill-opacity="1" fill-rule="nonzero"/><path fill="#df78bb" d="M 477.625 763.375 C 476.511719 763.375 475.832031 764.238281 475.730469 765.261719 C 475.597656 766.5625 475.449219 767.742188 475.84375 769.011719 C 476.308594 770.511719 478.730469 770.714844 479.070312 769.003906 C 479.195312 768.351562 479.480469 767.785156 479.558594 767.101562 C 479.664062 766.285156 479.632812 765.5625 479.4375 764.765625 C 479.246094 763.949219 478.441406 763.375 477.625 763.375 " fill-opacity="1" fill-rule="nonzero"/><path fill="#df78bb" d="M 476.066406 731.378906 C 474.519531 731.917969 474.367188 733.21875 474.949219 734.566406 C 475.425781 735.679688 477.15625 735.269531 477.410156 734.234375 C 477.417969 734.210938 477.417969 734.203125 477.421875 734.1875 C 478.6875 733.328125 477.800781 730.78125 476.066406 731.378906 " fill-opacity="1" fill-rule="nonzero"/><path fill="#df78bb" d="M 468.472656 778.039062 C 467.960938 778.027344 467.335938 778.238281 466.886719 778.480469 C 466.652344 778.589844 466.445312 778.742188 466.265625 778.929688 L 466.054688 779.210938 C 466.054688 779.210938 466.023438 779.242188 465.957031 779.332031 C 465.949219 779.332031 465.949219 779.339844 465.945312 779.351562 L 465.917969 779.382812 C 465.9375 779.359375 465.933594 779.363281 465.945312 779.351562 C 464.492188 781.238281 466.3125 783.386719 468.214844 782.675781 C 468.296875 782.664062 468.363281 782.671875 468.457031 782.652344 C 467.886719 782.773438 468.648438 782.652344 468.988281 782.59375 C 468.96875 782.625 469.625 782.617188 469.570312 782.617188 C 469.949219 782.636719 470.390625 782.476562 470.761719 782.398438 C 472.589844 782.007812 472.441406 779.757812 471.214844 778.855469 C 470.386719 778.25 469.488281 778.070312 468.472656 778.039062 Z M 468.800781 782.410156 C 468.746094 782.417969 468.699219 782.421875 468.648438 782.429688 C 468.75 782.367188 468.847656 782.339844 468.953125 782.261719 L 468.800781 782.410156 " fill-opacity="1" fill-rule="nonzero"/><path fill="#df78bb" d="M 477.25 781.351562 C 477.222656 781.339844 477.195312 781.339844 477.167969 781.324219 C 477.429688 781.472656 477.394531 781.445312 477.25 781.351562 " fill-opacity="1" fill-rule="nonzero"/><path fill="#df78bb" d="M 480.613281 777.277344 C 480.253906 775.972656 478.96875 775.355469 477.695312 775.613281 C 476.375 775.886719 475.578125 777.132812 475.511719 778.402344 C 475.480469 779.039062 475.632812 779.574219 475.898438 780.136719 C 476.007812 780.402344 476.164062 780.632812 476.382812 780.832031 C 476.382812 780.832031 476.992188 781.195312 477.25 781.351562 C 477.960938 781.710938 478.6875 781.523438 479.28125 781.027344 C 479.007812 781.296875 479.117188 781.226562 479.613281 780.804688 C 479.976562 780.429688 480.117188 780 480.285156 779.53125 C 480.328125 779.386719 480.335938 779.230469 480.359375 779.085938 C 480.660156 778.527344 480.777344 777.859375 480.613281 777.277344 " fill-opacity="1" fill-rule="nonzero"/><path fill="#d8dade" d="M 393.289062 915.726562 C 393.289062 915.726562 412.667969 930.71875 425.792969 925.09375 C 438.917969 919.46875 414.542969 910.101562 414.542969 910.101562 L 393.289062 915.726562 " fill-opacity="1" fill-rule="nonzero"/><path fill="#d8dade" d="M 609.570312 915.726562 C 609.570312 915.726562 628.949219 930.71875 642.074219 925.09375 C 655.199219 919.46875 630.816406 910.101562 630.816406 910.101562 L 609.570312 915.726562 " fill-opacity="1" fill-rule="nonzero"/><g clip-path="url(#7666101e9d)"><path fill="#f2f3f5" d="M 681.765625 356.984375 C 626.441406 348.550781 575.773438 344.539062 576.746094 349.488281 C 588.003906 406.644531 556.125 460.988281 556.125 460.988281 C 577.683594 481.597656 611.441406 481.597656 654.574219 487.222656 C 684.707031 491.144531 739.398438 495.988281 761.171875 498.546875 C 772.742188 456.34375 779.382812 413.144531 780.132812 369.871094 C 767.320312 364.410156 726.328125 363.777344 681.765625 356.984375 " fill-opacity="1" fill-rule="nonzero"/></g><path fill="#e4e6e9" d="M 690.207031 380.40625 C 700.960938 378.257812 706.769531 369.949219 708.011719 360.417969 C 699.539062 359.464844 690.726562 358.351562 681.765625 356.984375 C 671.582031 355.429688 661.566406 354.035156 651.984375 352.804688 C 647.257812 372.035156 672.183594 384.007812 690.207031 380.40625 " fill-opacity="1" fill-rule="nonzero"/><path fill="#d8dade" d="M 586.515625 356.539062 C 586.152344 356.917969 586.132812 357.316406 586.1875 357.582031 C 596.0625 407.730469 568.152344 456.101562 567.863281 456.585938 C 567.742188 456.792969 567.785156 457.050781 567.953125 457.222656 C 582.277344 470.914062 602.085938 472.398438 627.164062 474.28125 C 636.128906 474.953125 645.402344 475.648438 655.445312 476.960938 L 688.71875 481.367188 C 712.378906 484.519531 739.199219 488.097656 752.027344 489.609375 C 752.285156 489.640625 752.519531 489.476562 752.585938 489.230469 C 762.578125 452.808594 767.761719 415.652344 768.460938 375.660156 C 768.460938 375.445312 768.339844 375.253906 768.144531 375.175781 C 761.640625 372.398438 747.089844 371.015625 728.675781 369.253906 C 714.148438 367.863281 697.675781 366.292969 680.359375 363.65625 C 637.191406 357.070312 590.285156 352.613281 586.515625 356.539062 Z M 589.328125 379.886719 C 589.328125 372.53125 588.691406 364.980469 587.199219 357.382812 C 589.988281 354.410156 627.984375 356.710938 680.203125 364.671875 C 697.546875 367.3125 714.039062 368.890625 728.578125 370.277344 C 746.636719 372.007812 760.914062 373.378906 767.410156 376.007812 C 766.699219 415.617188 761.558594 452.4375 751.703125 488.527344 C 738.726562 486.996094 712.265625 483.464844 688.851562 480.347656 L 655.582031 475.9375 C 645.511719 474.625 636.222656 473.925781 627.242188 473.253906 C 602.539062 471.402344 583.011719 469.902344 568.976562 456.71875 C 571.023438 453.078125 589.328125 419.386719 589.328125 379.886719 " fill-opacity="1" fill-rule="nonzero"/><path fill="#d8dade" d="M 609.578125 390.136719 C 609.511719 390.648438 609.878906 391.113281 610.394531 391.175781 L 746.820312 407.574219 C 747.332031 407.636719 747.800781 407.273438 747.859375 406.753906 C 747.925781 406.246094 747.558594 405.773438 747.042969 405.710938 L 610.617188 389.320312 C 610.101562 389.253906 609.636719 389.621094 609.578125 390.136719 " fill-opacity="1" fill-rule="nonzero"/><path fill="#d8dade" d="M 603.011719 407.011719 C 602.957031 407.527344 603.324219 407.984375 603.839844 408.046875 L 694.789062 417.878906 C 695.300781 417.941406 695.769531 417.566406 695.824219 417.050781 C 695.878906 416.535156 695.507812 416.070312 694.992188 416.015625 L 604.046875 406.179688 C 603.53125 406.125 603.066406 406.5 603.011719 407.011719 " fill-opacity="1" fill-rule="nonzero"/><path fill="#d8dade" d="M 598.792969 442.613281 C 598.730469 443.125 599.101562 443.589844 599.617188 443.644531 L 741.195312 459.574219 C 741.71875 459.632812 742.183594 459.265625 742.238281 458.75 C 742.292969 458.238281 741.921875 457.773438 741.410156 457.710938 L 599.828125 441.785156 C 599.3125 441.730469 598.847656 442.097656 598.792969 442.613281 " fill-opacity="1" fill-rule="nonzero"/><path fill="#d8dade" d="M 666.304688 459.929688 C 666.238281 460.4375 666.59375 460.910156 667.109375 460.976562 L 720.554688 468.003906 C 721.070312 468.078125 721.542969 467.714844 721.609375 467.199219 C 721.675781 466.6875 721.3125 466.214844 720.796875 466.148438 L 667.355469 459.121094 C 666.835938 459.054688 666.371094 459.417969 666.304688 459.929688 " fill-opacity="1" fill-rule="nonzero"/><path fill="#d8dade" d="M 678.957031 469.824219 C 678.921875 470.339844 679.308594 470.785156 679.828125 470.820312 L 706.078125 472.695312 C 706.59375 472.734375 707.042969 472.347656 707.078125 471.824219 C 707.113281 471.3125 706.726562 470.863281 706.207031 470.828125 L 679.957031 468.953125 C 679.441406 468.917969 678.992188 469.304688 678.957031 469.824219 " fill-opacity="1" fill-rule="nonzero"/><path fill="#f6e0ca" d="M 704.441406 367.203125 C 703.34375 370.585938 702.148438 373.773438 698.007812 373.933594 C 694.625 374.109375 693.082031 372.753906 692.929688 369.90625 C 692.125 372.265625 689.382812 374.714844 686.902344 374.515625 C 682.65625 374.351562 683.378906 370.199219 681.515625 367.925781 C 679.808594 372.839844 676.246094 378.953125 670.253906 374.800781 C 665.847656 371.777344 665.824219 366.695312 664.433594 362.191406 C 663.324219 367.230469 660.144531 370.414062 655.660156 366.351562 C 651.714844 362.785156 650.726562 354.996094 649.875 350.089844 C 649.402344 346.8125 648.851562 341.402344 652.003906 338.945312 C 655.585938 336.304688 658.964844 339.042969 661.128906 341.933594 L 661.796875 340.554688 C 663.929688 337.433594 666.707031 335.511719 670.398438 336.824219 C 675.210938 338.214844 676.367188 342.996094 678.792969 346.503906 C 681.503906 344.78125 683.957031 342.804688 687.277344 343.378906 C 692.621094 344.335938 693.195312 347.382812 695.261719 351.222656 C 698.492188 349.449219 700.480469 348.589844 703.960938 350.730469 C 708.753906 353.769531 705.8125 362.414062 704.441406 367.203125 " fill-opacity="1" fill-rule="nonzero"/></svg>