<svg xmlns="http://www.w3.org/2000/svg" xmlns:xlink="http://www.w3.org/1999/xlink" width="1280" zoomAndPan="magnify" viewBox="0 0 960 959.999988" height="1280" preserveAspectRatio="xMidYMid meet" version="1.0"><defs><clipPath id="eae7f10892"><path d="M 524 118.007812 L 598 118.007812 L 598 193 L 524 193 Z M 524 118.007812 " clip-rule="nonzero"/></clipPath><clipPath id="2cfb2b5326"><path d="M 352 118.007812 L 426 118.007812 L 426 193 L 352 193 Z M 352 118.007812 " clip-rule="nonzero"/></clipPath></defs><path fill="#e37f99" d="M 789.972656 277.625 C 639.410156 275.976562 381.90625 273.5625 177.09375 279.292969 C 165.050781 279.632812 150.753906 281.324219 145.113281 292.308594 C 142.882812 296.652344 142.457031 301.71875 142.269531 306.632812 C 139.910156 367.710938 141.015625 588.21875 141.316406 642.929688 C 141.375 653.722656 142.175781 665.398438 148.851562 673.707031 C 157.246094 684.144531 172.011719 685.898438 185.152344 685.996094 C 329.769531 687.070312 679.644531 689.9375 774.363281 686.121094 C 783.59375 685.75 793.777344 684.738281 800.128906 677.820312 C 806.382812 671.019531 806.820312 660.675781 806.914062 651.300781 C 807.847656 551.589844 808.128906 352.765625 805.316406 289.929688 C 805.175781 286.824219 804.835938 283.515625 802.933594 281.121094 C 800.128906 277.609375 795.066406 277.460938 790.660156 277.601562 L 789.972656 277.625 " fill-opacity="1" fill-rule="nonzero"/><path fill="#fab5c2" d="M 887.253906 773.847656 C 887.132812 784.492188 886.589844 796.265625 878.96875 804.003906 C 871.195312 811.859375 858.742188 813.011719 847.433594 813.449219 C 731.566406 817.789062 303.550781 814.511719 126.632812 813.300781 C 110.546875 813.1875 92.476562 811.171875 82.234375 799.316406 C 74.0625 789.875 73.085938 776.582031 73 764.324219 C 72.625 702.101562 71.273438 451.355469 74.179688 381.910156 C 74.410156 376.328125 74.925781 370.546875 77.632812 365.625 C 84.535156 353.132812 102.03125 351.203125 116.761719 350.804688 C 202.070312 348.585938 294.863281 347.433594 387.421875 346.972656 C 475.808594 346.546875 563.9375 346.71875 645.164062 347.117188 C 728.714844 347.582031 804.9375 348.296875 866.539062 348.933594 C 866.796875 348.933594 867.085938 348.90625 867.375 348.90625 C 872.75 348.730469 878.941406 348.90625 882.359375 352.898438 C 884.714844 355.605469 885.121094 359.375 885.300781 362.914062 C 888.746094 434.375 888.402344 660.457031 887.253906 773.847656 " fill-opacity="1" fill-rule="nonzero"/><path fill="#f89fb4" d="M 860.34375 581.855469 C 861.546875 562.925781 863.011719 544.078125 864.816406 525.027344 L 887.902344 525.027344 C 888.28125 612.246094 887.886719 710.367188 887.246094 773.84375 C 887.144531 784.503906 886.609375 796.273438 878.953125 804.003906 C 871.183594 811.867188 858.726562 813.023438 847.4375 813.449219 C 731.5625 817.777344 303.546875 814.519531 126.632812 813.292969 C 110.554688 813.175781 92.492188 811.179688 82.226562 799.316406 C 74.054688 789.871094 73.078125 776.59375 73.003906 764.316406 C 72.921875 750.347656 72.789062 726.851562 72.664062 698.054688 C 103.953125 776.625 207.34375 782.039062 284.3125 783.945312 C 348.8125 785.554688 413.246094 781.324219 477.6875 779.316406 C 543.773438 777.265625 609.375 781.761719 675.417969 782.65625 C 705.136719 783.054688 734.820312 782.75 764.386719 779.5 C 787.285156 776.980469 813.019531 773.574219 831.253906 758.132812 C 846.757812 745.003906 851.742188 725.101562 853.648438 705.679688 C 856.296875 678.710938 856.832031 651.402344 858.046875 624.339844 C 859.128906 600.445312 870.417969 563.785156 843.890625 550.035156 C 832.375 544.0625 818.871094 543.734375 805.898438 543.574219 C 574.242188 540.703125 352.863281 542.96875 111.257812 523.652344 C 364.667969 515.414062 617.835938 510.757812 871.003906 524.359375 " fill-opacity="1" fill-rule="nonzero"/><path fill="#f89fb4" d="M 854.3125 655.195312 C 851.832031 675.871094 848.613281 698.964844 841.46875 717.839844 C 837.941406 727.140625 833.398438 734.328125 827.527344 740.441406 C 821.660156 746.546875 814.421875 751.597656 805.445312 756.316406 C 803.335938 757.421875 802.523438 760.03125 803.632812 762.144531 C 804.738281 764.253906 807.355469 765.0625 809.464844 763.957031 C 818.976562 758.949219 827.066406 753.386719 833.757812 746.425781 C 840.449219 739.464844 845.679688 731.132812 849.542969 720.890625 C 857.175781 700.679688 860.367188 677.035156 862.886719 656.226562 C 863.167969 653.863281 861.480469 651.707031 859.117188 651.425781 C 856.75 651.140625 854.605469 652.824219 854.3125 655.195312 " fill-opacity="1" fill-rule="nonzero"/><path fill="#f89fb4" d="M 794.492188 760.921875 C 790.636719 762.707031 786.425781 763.761719 782.191406 764 C 779.808594 764.140625 777.996094 766.179688 778.125 768.5625 C 778.265625 770.9375 780.304688 772.757812 782.6875 772.625 C 788.015625 772.316406 793.269531 771 798.121094 768.757812 C 800.285156 767.757812 801.226562 765.191406 800.222656 763.027344 C 799.222656 760.863281 796.65625 759.917969 794.496094 760.921875 L 794.492188 760.921875 " fill-opacity="1" fill-rule="nonzero"/><path fill="#f89fb4" d="M 144.65625 772.652344 C 170.476562 777.59375 196.765625 780.074219 223.050781 780.074219 C 232.53125 780.074219 242.019531 779.753906 251.480469 779.105469 C 253.859375 778.941406 255.65625 776.882812 255.492188 774.5 C 255.328125 772.121094 253.269531 770.328125 250.890625 770.488281 C 241.625 771.125 232.339844 771.441406 223.050781 771.441406 C 197.308594 771.441406 171.5625 769.007812 146.277344 764.171875 C 143.9375 763.726562 141.675781 765.257812 141.230469 767.605469 C 140.78125 769.941406 142.316406 772.207031 144.65625 772.652344 " fill-opacity="1" fill-rule="nonzero"/><path fill="#f89fb4" d="M 266.914062 779.347656 C 268.300781 779.40625 269.691406 779.441406 271.078125 779.441406 C 274.886719 779.441406 278.691406 779.214844 282.472656 778.765625 C 284.835938 778.492188 286.53125 776.34375 286.25 773.972656 C 285.96875 771.609375 283.824219 769.914062 281.457031 770.195312 C 278.011719 770.597656 274.542969 770.804688 271.078125 770.804688 C 269.8125 770.804688 268.550781 770.777344 267.289062 770.726562 C 264.90625 770.621094 262.890625 772.472656 262.789062 774.851562 C 262.6875 777.234375 264.53125 779.25 266.914062 779.347656 " fill-opacity="1" fill-rule="nonzero"/><path fill="#f89fb4" d="M 135.324219 756.789062 C 150.757812 762.273438 167.113281 765.085938 183.484375 765.085938 C 185.960938 765.085938 188.4375 765.019531 190.914062 764.886719 C 193.296875 764.765625 195.125 762.734375 195 760.355469 C 194.878906 757.972656 192.847656 756.144531 190.464844 756.265625 C 188.140625 756.390625 185.8125 756.453125 183.484375 756.453125 C 168.101562 756.453125 152.707031 753.804688 138.214844 748.65625 C 135.96875 747.855469 133.5 749.035156 132.703125 751.277344 C 131.90625 753.523438 133.078125 755.992188 135.324219 756.789062 " fill-opacity="1" fill-rule="nonzero"/><path fill="#f89fb4" d="M 625.019531 779.363281 C 636.980469 779.363281 648.945312 779.363281 660.910156 779.363281 C 663.292969 779.363281 665.226562 777.433594 665.226562 775.046875 C 665.226562 772.667969 663.292969 770.730469 660.910156 770.730469 C 648.945312 770.730469 636.980469 770.730469 625.019531 770.730469 C 622.632812 770.730469 620.699219 772.667969 620.699219 775.046875 C 620.699219 777.433594 622.632812 779.363281 625.019531 779.363281 " fill-opacity="1" fill-rule="nonzero"/><path fill="#ea93ac" d="M 151.191406 285.425781 C 150.5 303.003906 156.820312 344.921875 156.820312 361.253906 C 129.960938 361.90625 74.191406 355.257812 74.191406 355.257812 C 76.03125 348.589844 124.941406 309.519531 151.191406 285.425781 " fill-opacity="1" fill-rule="nonzero"/><path fill="#f9a75a" d="M 91.480469 195.25 C 90.835938 191.835938 90.316406 188.40625 89.953125 184.933594 C 89.558594 181.230469 87.601562 172.210938 93.402344 170.367188 C 96.761719 169.300781 100.570312 170.753906 103.605469 171.6875 C 118.304688 176.183594 139.6875 187.160156 153.207031 196.898438 C 152.535156 196.421875 137.027344 207.46875 135.867188 208.226562 C 129.972656 212.078125 124.433594 216.378906 118.710938 220.429688 C 113.4375 224.175781 107.953125 229.5 101.753906 231.914062 C 101.53125 231.988281 96.90625 216.707031 96.550781 215.511719 C 94.554688 208.828125 92.773438 202.09375 91.480469 195.25 " fill-opacity="1" fill-rule="nonzero"/><path fill="#f9abc5" d="M 98.558594 199.824219 C 98.078125 197.589844 97.679688 195.34375 97.378906 193.066406 C 97.0625 190.636719 95.621094 184.746094 99.40625 183.4375 C 101.59375 182.679688 104.121094 183.570312 106.128906 184.132812 C 115.867188 186.839844 130.101562 193.695312 139.152344 199.871094 C 138.703125 199.566406 128.695312 207.085938 127.945312 207.601562 C 124.136719 210.230469 120.566406 213.152344 116.878906 215.910156 C 113.472656 218.457031 109.957031 222.054688 105.925781 223.742188 C 105.777344 223.796875 102.484375 213.832031 102.230469 213.050781 C 100.804688 208.695312 99.523438 204.292969 98.558594 199.824219 " fill-opacity="1" fill-rule="nonzero"/><path fill="#f795b4" d="M 119.777344 198.199219 C 117.652344 190.769531 105.601562 186.59375 98.746094 183.742188 C 98.945312 183.621094 99.164062 183.515625 99.40625 183.4375 C 101.59375 182.679688 104.121094 183.570312 106.128906 184.132812 C 115.867188 186.839844 130.101562 193.695312 139.152344 199.871094 C 138.703125 199.566406 128.695312 207.085938 127.945312 207.601562 C 124.136719 210.230469 120.566406 213.152344 116.878906 215.910156 C 113.941406 218.105469 110.921875 221.078125 107.558594 222.945312 C 107.582031 212.34375 122.605469 208.078125 119.777344 198.199219 " fill-opacity="1" fill-rule="nonzero"/><path fill="#f9a75a" d="M 296.109375 168.683594 C 295.859375 165.21875 295.488281 161.765625 294.953125 158.320312 C 294.386719 154.636719 293.980469 145.414062 287.898438 145.113281 C 284.378906 144.941406 281.066406 147.320312 278.371094 148.992188 C 265.304688 157.097656 247.433594 173.167969 236.847656 186.046875 C 237.375 185.410156 255.191406 192.128906 256.507812 192.566406 C 263.183594 194.777344 269.640625 197.523438 276.207031 199.980469 C 282.261719 202.253906 288.925781 206.003906 295.535156 206.757812 C 295.769531 206.769531 296.339844 190.8125 296.378906 189.570312 C 296.605469 182.59375 296.605469 175.625 296.109375 168.683594 " fill-opacity="1" fill-rule="nonzero"/><path fill="#f9abc5" d="M 290.433594 174.910156 C 290.328125 172.628906 290.140625 170.347656 289.847656 168.078125 C 289.539062 165.648438 289.421875 159.582031 285.429688 159.285156 C 283.125 159.109375 280.90625 160.613281 279.105469 161.671875 C 270.386719 166.773438 258.371094 177.035156 251.195312 185.324219 C 251.550781 184.910156 263.148438 189.628906 264.003906 189.9375 C 268.359375 191.503906 272.554688 193.414062 276.824219 195.140625 C 280.769531 196.734375 285.085938 199.3125 289.414062 199.917969 C 289.570312 199.929688 290.210938 189.457031 290.261719 188.640625 C 290.523438 184.054688 290.640625 179.476562 290.433594 174.910156 " fill-opacity="1" fill-rule="nonzero"/><path fill="#f795b4" d="M 279.105469 161.671875 C 280.90625 160.613281 283.125 159.109375 285.429688 159.285156 C 286.746094 159.378906 287.632812 160.105469 288.25 161.117188 C 280.765625 159.332031 271.382812 170.300781 269.613281 176.359375 C 266.222656 188 282.992188 191.503906 288.023438 199.652344 C 284.164062 198.765625 280.347656 196.5625 276.828125 195.140625 C 272.554688 193.414062 268.359375 191.503906 264.003906 189.9375 C 263.148438 189.628906 251.554688 184.910156 251.195312 185.324219 C 258.371094 177.035156 270.386719 166.773438 279.105469 161.671875 " fill-opacity="1" fill-rule="nonzero"/><path fill="#f9a75a" d="M 331.722656 279.210938 C 333.679688 280.417969 335.722656 281.742188 336.816406 283.753906 C 337.9375 285.742188 337.621094 288.738281 335.632812 289.832031 C 333.792969 290.839844 331.40625 289.976562 329.507812 290.839844 C 332.355469 293.140625 335.0625 296.996094 333.21875 300.136719 C 332.5 301.34375 331.261719 302.117188 330.109375 302.921875 C 322.226562 308.246094 318.746094 315.269531 313.046875 322.40625 C 307.957031 328.769531 302.113281 334.496094 295.839844 339.703125 C 277.660156 354.84375 251.503906 364.542969 228.257812 369.40625 C 203.945312 374.527344 178.566406 374.382812 154.511719 368.800781 C 139.03125 365.230469 123.867188 359.101562 112.734375 347.703125 C 108.820312 343.703125 105.597656 339.300781 102.203125 334.808594 C 101.511719 333.859375 100.738281 332.882812 99.675781 332.449219 C 98.578125 332.046875 97.371094 332.222656 96.25 331.988281 C 93.917969 331.414062 92.480469 328.914062 92.363281 326.519531 C 92.222656 324.136719 93.113281 321.800781 94.003906 319.558594 C 92.941406 321.660156 89.546875 321.371094 88.136719 319.472656 C 86.753906 317.601562 86.929688 314.984375 87.53125 312.738281 C 87.964844 311.1875 88.511719 309.683594 89.113281 308.164062 C 89.628906 306.835938 90.207031 305.515625 90.753906 304.191406 C 89.085938 305.914062 85.890625 305.804688 84.367188 303.933594 C 82.292969 301.429688 83.617188 297.714844 84.652344 294.636719 C 88.828125 281.710938 88.480469 268.101562 91.933594 254.808594 C 95.933594 239.320312 102.664062 224.472656 114.117188 213.023438 C 124.617188 202.542969 137.019531 193.390625 150.773438 187.664062 L 151.207031 187.492188 C 152.125 187.117188 153.074219 186.746094 153.996094 186.402344 C 158.742188 184.671875 163.578125 183.117188 168.527344 181.765625 C 169.820312 181.390625 171.140625 181.046875 172.46875 180.726562 C 175.488281 180.011719 178.539062 179.316406 181.589844 178.746094 C 182.046875 178.660156 182.535156 178.570312 183 178.515625 C 190.019531 177.21875 197.15625 176.359375 204.320312 175.953125 L 204.691406 175.921875 C 207.710938 175.78125 210.707031 175.695312 213.726562 175.664062 C 215.394531 175.664062 217.035156 175.695312 218.703125 175.78125 C 224.488281 175.980469 230.273438 176.527344 235.941406 177.390625 C 236.628906 177.511719 237.320312 177.621094 238.011719 177.738281 C 262.121094 181.792969 284.59375 192.296875 301.367188 211.175781 C 317.28125 229.105469 328.242188 260.53125 338.625 272.046875 C 339.261719 272.761719 339.492188 273.769531 339.519531 274.691406 C 339.578125 276.390625 338.253906 277.890625 336.699219 278.546875 C 335.175781 279.210938 333.417969 279.242188 331.722656 279.210938 " fill-opacity="1" fill-rule="nonzero"/><path fill="#f7944e" d="M 301.605469 325.835938 C 295.34375 326.074219 289.132812 326.828125 283.292969 329.203125 C 277.210938 331.679688 272.488281 335.742188 266.816406 338.667969 C 264.746094 339.742188 262.363281 339.992188 260.046875 340.210938 C 235.753906 342.542969 210.789062 341.460938 186.320312 341.832031 C 178.957031 341.941406 171.269531 341.984375 164.6875 338.679688 C 160.886719 336.773438 157.675781 333.84375 153.914062 331.867188 C 145.777344 327.597656 136.0625 328.203125 126.894531 328.742188 C 114.035156 329.511719 104.296875 327.714844 93.644531 320.492188 C 92.894531 322.449219 92.242188 324.464844 92.363281 326.519531 C 92.480469 328.914062 93.917969 331.414062 96.25 331.988281 C 97.371094 332.222656 98.578125 332.046875 99.671875 332.449219 C 100.738281 332.882812 101.511719 333.859375 102.207031 334.808594 C 105.597656 339.300781 108.820312 343.703125 112.734375 347.703125 C 123.867188 359.101562 139.03125 365.230469 154.511719 368.800781 C 178.566406 374.382812 203.945312 374.527344 228.257812 369.40625 C 251.503906 364.542969 277.660156 354.84375 295.84375 339.703125 C 302.113281 334.496094 307.957031 328.769531 313.046875 322.40625 C 316.773438 317.742188 319.570312 313.132812 323.25 309.003906 C 318.082031 312.824219 308.871094 325.5625 301.605469 325.835938 " fill-opacity="1" fill-rule="nonzero"/><path fill="#744746" d="M 226.5 317.203125 C 226.722656 317.792969 226.816406 318.328125 226.816406 318.816406 C 226.808594 320.046875 226.226562 321.027344 225.199219 321.792969 C 224.171875 322.550781 222.707031 323.007812 221.152344 323.007812 C 219.265625 323.007812 217.285156 322.34375 215.761719 320.851562 C 214.234375 319.363281 213.101562 317.019531 213.003906 313.453125 C 212.992188 312.945312 212.570312 312.542969 212.058594 312.554688 C 211.550781 312.570312 211.148438 312.996094 211.164062 313.503906 C 211.257812 317.4375 212.5625 320.316406 214.472656 322.171875 C 216.386719 324.035156 218.84375 324.851562 221.152344 324.84375 C 223.058594 324.84375 224.882812 324.304688 226.285156 323.28125 C 227.6875 322.261719 228.664062 320.6875 228.660156 318.816406 C 228.660156 318.089844 228.515625 317.332031 228.226562 316.558594 C 228.046875 316.078125 227.515625 315.839844 227.039062 316.019531 C 226.5625 316.203125 226.324219 316.730469 226.5 317.203125 " fill-opacity="1" fill-rule="nonzero"/><path fill="#744746" d="M 197.617188 320.527344 C 197.589844 320.800781 197.574219 321.058594 197.574219 321.320312 C 197.566406 323.175781 198.316406 324.71875 199.496094 325.714844 C 200.671875 326.722656 202.226562 327.203125 203.835938 327.203125 C 206.027344 327.203125 208.375 326.3125 210.1875 324.480469 C 212 322.648438 213.234375 319.871094 213.230469 316.226562 C 213.230469 315.320312 213.152344 314.355469 212.992188 313.332031 C 212.914062 312.835938 212.445312 312.488281 211.941406 312.570312 C 211.4375 312.644531 211.09375 313.113281 211.171875 313.621094 C 211.320312 314.550781 211.386719 315.421875 211.386719 316.226562 C 211.378906 319.464844 210.324219 321.710938 208.871094 323.1875 C 207.421875 324.660156 205.53125 325.359375 203.835938 325.359375 C 202.589844 325.359375 201.46875 324.984375 200.691406 324.316406 C 199.917969 323.640625 199.425781 322.703125 199.417969 321.320312 L 199.449219 320.71875 C 199.5 320.210938 199.132812 319.761719 198.628906 319.707031 C 198.121094 319.65625 197.667969 320.023438 197.617188 320.527344 " fill-opacity="1" fill-rule="nonzero"/><path fill="#f6849d" d="M 199.199219 304.730469 C 197.078125 306.507812 196.679688 308.28125 199.195312 309.789062 C 202.378906 311.695312 205.785156 313.300781 209.347656 314.578125 C 210.351562 314.941406 211.429688 315.28125 212.503906 315.109375 C 213.519531 314.949219 214.378906 314.363281 215.175781 313.773438 C 218.230469 311.535156 221.074219 309.054688 223.652344 306.382812 C 225.867188 304.085938 223.796875 302.484375 221.117188 301.699219 C 216.351562 300.304688 210.441406 300.960938 205.628906 302.117188 C 203.429688 302.640625 200.851562 303.34375 199.199219 304.730469 " fill-opacity="1" fill-rule="nonzero"/><path fill="#f6849d" d="M 125.324219 320.261719 C 125.21875 331.125 136.226562 336.21875 144.945312 335.035156 C 156.496094 333.46875 165.136719 320.0625 153.824219 311.285156 C 148.410156 307.085938 142.019531 305.914062 136.007812 307.546875 C 131.59375 308.746094 126.789062 311.472656 125.546875 317.980469 C 125.40625 318.757812 125.335938 319.515625 125.324219 320.261719 " fill-opacity="1" fill-rule="nonzero"/><path fill="#f6849d" d="M 297.519531 297.90625 C 300.390625 308.378906 291.046875 316.121094 282.316406 317.199219 C 270.753906 318.632812 258.972656 307.882812 267.671875 296.507812 C 271.835938 291.0625 277.71875 288.300781 283.945312 288.339844 C 288.519531 288.371094 293.859375 289.777344 296.71875 295.753906 C 297.054688 296.472656 297.316406 297.1875 297.519531 297.90625 " fill-opacity="1" fill-rule="nonzero"/><path fill="#ffffff" d="M 126.3125 298.414062 C 127.3125 309.316406 138.695312 317.1875 151.738281 315.996094 C 164.777344 314.804688 174.539062 304.992188 173.542969 294.085938 C 172.542969 283.175781 161.160156 275.308594 148.117188 276.5 C 135.078125 277.699219 125.316406 287.507812 126.3125 298.414062 " fill-opacity="1" fill-rule="nonzero"/><path fill="#edecee" d="M 159.71875 282.289062 C 154.585938 281.183594 149.261719 282.117188 144.238281 283.285156 C 139.503906 284.390625 134.921875 285.804688 131.015625 288.835938 C 129.503906 290.007812 128.132812 291.324219 126.816406 292.699219 C 128.964844 284.273438 137.417969 277.480469 148.117188 276.5 C 158.835938 275.519531 168.390625 280.679688 172.027344 288.589844 C 168.601562 285.453125 164.234375 283.261719 159.71875 282.289062 " fill-opacity="1" fill-rule="nonzero"/><path fill="#433634" d="M 151.292969 299.132812 C 151.015625 296.019531 148.257812 293.726562 145.148438 294.015625 C 144.769531 294.046875 144.398438 294.125 144.035156 294.242188 C 145.570312 288.453125 150.578125 283.957031 156.886719 283.378906 C 164.96875 282.640625 172.125 288.589844 172.859375 296.671875 C 173.601562 304.757812 167.652344 311.898438 159.570312 312.648438 C 153.65625 313.191406 148.230469 310.140625 145.453125 305.304688 C 145.695312 305.308594 145.933594 305.292969 146.171875 305.277344 C 149.285156 305.003906 151.585938 302.246094 151.292969 299.132812 " fill-opacity="1" fill-rule="nonzero"/><path fill="#ffffff" d="M 247.585938 292.128906 C 252.109375 298.023438 260.359375 301.558594 269.402344 300.722656 C 282.453125 299.519531 292.210938 289.710938 291.21875 278.808594 C 290.210938 267.90625 278.839844 260.03125 265.789062 261.234375 C 253.394531 262.359375 243.949219 271.285156 243.921875 281.527344 C 243.921875 282.050781 243.9375 282.597656 243.988281 283.128906 C 244.296875 286.464844 245.570312 289.535156 247.585938 292.128906 " fill-opacity="1" fill-rule="nonzero"/><path fill="#edecee" d="M 269.195312 267.328125 C 263.683594 267.09375 258.195312 267.726562 253.332031 270.535156 C 248.867188 273.113281 246.121094 277.550781 243.953125 282.089844 C 243.648438 271.609375 253.167969 262.378906 265.789062 261.222656 C 277.429688 260.15625 287.726562 266.316406 290.519531 275.40625 C 284.984375 270.09375 276.972656 267.65625 269.195312 267.328125 " fill-opacity="1" fill-rule="nonzero"/><path fill="#433634" d="M 252.257812 286.011719 C 251.96875 282.917969 249.230469 280.605469 246.117188 280.875 C 247.492188 274.847656 252.601562 270.109375 259.09375 269.515625 C 267.171875 268.773438 274.324219 274.730469 275.066406 282.8125 C 275.804688 290.890625 269.855469 298.046875 261.777344 298.78125 C 256.105469 299.304688 250.898438 296.519531 248.039062 292.023438 C 250.683594 291.332031 252.507812 288.8125 252.257812 286.011719 " fill-opacity="1" fill-rule="nonzero"/><path fill="#fbcc68" d="M 251.667969 245.425781 C 251.992188 245.910156 252.511719 246.265625 253.015625 246.578125 C 262.320312 252.363281 274.5 254.222656 285.277344 253.691406 C 285.90625 253.664062 286.574219 253.605469 287.046875 253.238281 C 287.457031 252.917969 287.625 252.4375 287.742188 251.980469 C 288.214844 250.132812 288.222656 248.21875 287.84375 246.386719 C 287.6875 245.574219 287.421875 244.746094 286.851562 244.15625 C 285.992188 243.265625 284.660156 243.070312 283.433594 242.914062 C 276.839844 242.070312 270.78125 240.457031 264.503906 238.636719 C 262.367188 238.09375 258 235.546875 255.832031 236.703125 C 255.472656 236.90625 255.1875 237.222656 254.914062 237.53125 C 253.429688 239.210938 251.941406 241.125 251.445312 243.359375 C 251.328125 243.898438 251.261719 244.472656 251.445312 244.992188 L 251.667969 245.425781 " fill-opacity="1" fill-rule="nonzero"/><path fill="#fbcc68" d="M 157.542969 261.859375 C 157.265625 262.375 156.78125 262.777344 156.308594 263.136719 C 147.605469 269.789062 135.660156 272.808594 124.878906 273.3125 C 124.253906 273.34375 123.578125 273.34375 123.074219 273.03125 C 122.636719 272.753906 122.421875 272.296875 122.265625 271.84375 C 121.613281 270.058594 121.421875 268.148438 121.621094 266.289062 C 121.703125 265.464844 121.890625 264.617188 122.402344 263.96875 C 123.167969 263 124.480469 262.679688 125.679688 262.410156 C 132.167969 260.929688 138.039062 258.746094 144.117188 256.339844 C 146.1875 255.59375 150.289062 252.632812 152.5625 253.582031 C 152.9375 253.746094 153.25 254.03125 153.554688 254.320312 C 155.191406 255.84375 156.859375 257.613281 157.566406 259.789062 C 157.738281 260.3125 157.855469 260.871094 157.71875 261.410156 L 157.542969 261.859375 " fill-opacity="1" fill-rule="nonzero"/><path fill="#f7944e" d="M 176.292969 231.296875 C 175.085938 237.191406 169.992188 239.699219 165.53125 235.125 C 163.578125 233.132812 162.453125 230.460938 161.445312 227.84375 C 159.722656 223.351562 158.253906 218.832031 156.957031 214.289062 C 154.457031 205.507812 152.585938 196.613281 150.773438 187.664062 L 151.207031 187.492188 C 152.125 187.117188 153.074219 186.746094 153.996094 186.402344 C 158.742188 184.671875 163.578125 183.117188 168.527344 181.765625 C 171.632812 192.992188 173.90625 204.53125 175.773438 216.011719 C 176.613281 221.078125 177.332031 226.289062 176.292969 231.296875 " fill-opacity="1" fill-rule="nonzero"/><path fill="#f7944e" d="M 235.105469 212.183594 C 234.5 217.28125 233.753906 222.460938 231.363281 226.945312 C 228.574219 232.242188 223.019531 233.109375 220 227.40625 C 218.675781 224.90625 218.328125 222.027344 218.097656 219.207031 C 217.667969 214.398438 217.523438 209.621094 217.554688 204.875 C 217.582031 195.175781 218.1875 185.453125 218.703125 175.78125 C 224.488281 175.980469 230.273438 176.527344 235.941406 177.390625 C 236.628906 177.511719 237.320312 177.621094 238.011719 177.738281 C 238.296875 189.105469 236.398438 201.222656 235.105469 212.183594 " fill-opacity="1" fill-rule="nonzero"/><path fill="#f7944e" d="M 207.050781 222.890625 C 207.023438 228.011719 206.847656 233.277344 204.980469 238.03125 C 202.765625 243.613281 197.355469 245.167969 193.730469 239.84375 C 192.148438 237.539062 191.484375 234.6875 190.9375 231.925781 C 189.988281 227.207031 189.011719 222.578125 188.148438 217.917969 C 187.398438 213.914062 186.765625 209.855469 186.308594 205.742188 C 185.328125 196.648438 184.234375 187.578125 183 178.515625 C 190.019531 177.21875 197.15625 176.359375 204.320312 175.953125 L 204.691406 175.921875 C 204.71875 176.585938 204.75 177.25 204.808594 177.878906 C 206.417969 192.816406 207.191406 207.839844 207.050781 222.890625 " fill-opacity="1" fill-rule="nonzero"/><path fill="#ea93ac" d="M 799.742188 278.371094 C 800.4375 295.945312 798.5 339.066406 798.5 355.398438 C 825.359375 356.050781 843.199219 354.839844 869.121094 355.398438 L 884.417969 353.203125 C 858.171875 327.355469 828.300781 300.523438 799.742188 278.371094 " fill-opacity="1" fill-rule="nonzero"/><path fill="#433634" d="M 859.539062 195.25 C 860.183594 191.835938 860.703125 188.402344 861.070312 184.933594 C 861.464844 181.226562 863.421875 172.203125 857.613281 170.367188 C 854.261719 169.300781 850.449219 170.753906 847.421875 171.683594 C 832.71875 176.179688 811.339844 187.15625 797.8125 196.902344 C 798.484375 196.421875 813.996094 207.46875 815.15625 208.226562 C 821.046875 212.074219 826.585938 216.375 832.3125 220.429688 C 837.585938 224.164062 843.066406 229.503906 849.265625 231.917969 C 849.492188 231.984375 854.117188 216.703125 854.46875 215.507812 C 856.46875 208.824219 858.25 202.089844 859.539062 195.25 " fill-opacity="1" fill-rule="nonzero"/><path fill="#f9abc5" d="M 852.453125 199.824219 C 852.9375 197.597656 853.332031 195.347656 853.636719 193.070312 C 853.953125 190.640625 855.390625 184.746094 851.613281 183.441406 C 849.421875 182.679688 846.890625 183.574219 844.886719 184.136719 C 835.148438 186.839844 820.90625 193.695312 811.863281 199.875 C 812.308594 199.570312 822.324219 207.089844 823.070312 207.605469 C 826.871094 210.234375 830.449219 213.15625 834.136719 215.914062 C 837.539062 218.460938 841.054688 222.058594 845.09375 223.746094 C 845.234375 223.800781 848.53125 213.835938 848.78125 213.050781 C 850.203125 208.699219 851.492188 204.300781 852.453125 199.824219 " fill-opacity="1" fill-rule="nonzero"/><path fill="#f795b4" d="M 831.242188 198.199219 C 833.367188 190.769531 845.417969 186.59375 852.273438 183.742188 C 852.070312 183.621094 851.855469 183.523438 851.613281 183.4375 C 849.421875 182.679688 846.894531 183.574219 844.890625 184.128906 C 835.148438 186.839844 820.910156 193.695312 811.863281 199.875 C 812.3125 199.5625 822.324219 207.085938 823.074219 207.601562 C 826.878906 210.234375 830.449219 213.152344 834.140625 215.914062 C 837.074219 218.105469 840.089844 221.082031 843.457031 222.9375 C 843.441406 212.34375 828.410156 208.082031 831.242188 198.199219 " fill-opacity="1" fill-rule="nonzero"/><path fill="#433634" d="M 654.90625 168.683594 C 655.160156 165.21875 655.535156 161.765625 656.066406 158.320312 C 656.636719 154.636719 657.042969 145.414062 663.121094 145.113281 C 666.644531 144.941406 669.949219 147.320312 672.652344 148.992188 C 685.714844 157.097656 703.582031 173.167969 714.171875 186.046875 C 713.640625 185.410156 695.832031 192.128906 694.511719 192.566406 C 687.835938 194.777344 681.375 197.523438 674.8125 199.980469 C 668.761719 202.253906 662.097656 206.003906 655.484375 206.757812 C 655.25 206.769531 654.679688 190.8125 654.644531 189.570312 C 654.417969 182.59375 654.414062 175.625 654.90625 168.683594 " fill-opacity="1" fill-rule="nonzero"/><path fill="#f9abc5" d="M 660.59375 174.910156 C 660.695312 172.628906 660.882812 170.347656 661.175781 168.078125 C 661.484375 165.648438 661.597656 159.582031 665.59375 159.285156 C 667.902344 159.109375 670.109375 160.613281 671.917969 161.671875 C 680.640625 166.773438 692.652344 177.035156 699.832031 185.324219 C 699.464844 184.910156 687.871094 189.628906 687.015625 189.9375 C 682.667969 191.503906 678.472656 193.414062 674.195312 195.140625 C 670.25 196.734375 665.933594 199.3125 661.609375 199.917969 C 661.449219 199.929688 660.804688 189.457031 660.757812 188.640625 C 660.5 184.054688 660.378906 179.476562 660.59375 174.910156 " fill-opacity="1" fill-rule="nonzero"/><path fill="#f795b4" d="M 671.917969 161.671875 C 670.109375 160.613281 667.902344 159.109375 665.59375 159.285156 C 664.273438 159.378906 663.394531 160.105469 662.773438 161.117188 C 670.253906 159.332031 679.640625 170.300781 681.402344 176.359375 C 684.800781 188 668.027344 191.503906 662.996094 199.652344 C 666.859375 198.765625 670.671875 196.5625 674.195312 195.140625 C 678.472656 193.414062 682.667969 191.503906 687.015625 189.9375 C 687.871094 189.628906 699.464844 184.910156 699.824219 185.324219 C 692.652344 177.035156 680.640625 166.773438 671.917969 161.671875 " fill-opacity="1" fill-rule="nonzero"/><path fill="#433634" d="M 866.660156 303.929688 C 865.125 305.808594 861.941406 305.914062 860.269531 304.175781 C 860.816406 305.503906 861.375 306.835938 861.902344 308.160156 C 862.507812 309.675781 863.050781 311.183594 863.488281 312.738281 C 864.09375 314.992188 864.257812 317.589844 862.875 319.460938 C 861.476562 321.355469 858.082031 321.65625 857.011719 319.5625 C 857.90625 321.789062 858.796875 324.121094 858.667969 326.519531 C 858.554688 328.917969 857.09375 331.421875 854.769531 331.976562 C 853.652344 332.230469 852.441406 332.058594 851.355469 332.453125 C 850.277344 332.894531 849.511719 333.871094 848.8125 334.800781 C 845.417969 339.285156 842.191406 343.714844 838.277344 347.714844 C 827.144531 359.101562 811.988281 365.210938 796.5 368.8125 C 772.457031 374.390625 747.066406 374.523438 722.75 369.414062 C 699.503906 364.539062 673.351562 354.839844 655.167969 339.707031 C 648.917969 334.507812 643.058594 328.777344 637.980469 322.40625 C 632.261719 315.261719 628.789062 308.246094 620.902344 302.914062 C 619.746094 302.121094 618.507812 301.34375 617.808594 300.136719 C 615.964844 296.980469 618.675781 293.144531 621.511719 290.839844 C 619.609375 289.976562 617.21875 290.839844 615.375 289.824219 C 613.386719 288.726562 613.089844 285.757812 614.191406 283.746094 C 615.289062 281.730469 617.335938 280.417969 619.285156 279.21875 C 617.585938 279.234375 615.855469 279.210938 614.308594 278.550781 C 612.757812 277.867188 611.4375 276.382812 611.496094 274.695312 C 611.53125 273.761719 611.765625 272.753906 612.394531 272.058594 C 622.765625 260.535156 633.734375 229.09375 649.640625 211.164062 C 666.90625 191.753906 690.199219 181.195312 715.097656 177.378906 C 722.398438 176.253906 729.835938 175.707031 737.296875 175.675781 C 740.429688 175.683594 743.574219 175.769531 746.699219 175.957031 C 754.34375 176.371094 761.964844 177.320312 769.414062 178.746094 C 772.5 179.328125 775.539062 180 778.554688 180.734375 C 784.878906 182.308594 791.054688 184.210938 797.007812 186.398438 C 797.941406 186.738281 798.898438 187.105469 799.824219 187.484375 C 813.75 193.183594 826.289062 202.433594 836.90625 213.035156 C 848.367188 224.472656 855.074219 239.316406 859.097656 254.800781 C 862.539062 268.09375 862.1875 281.703125 866.375 294.636719 C 867.390625 297.722656 868.726562 301.429688 866.660156 303.929688 " fill-opacity="1" fill-rule="nonzero"/><path fill="#392e2b" d="M 861.90625 308.160156 C 861.664062 307.53125 861.398438 306.90625 861.132812 306.28125 C 855.519531 314.273438 847.285156 319.199219 838.480469 325.070312 C 814.800781 340.859375 793.871094 339.347656 768.890625 339.703125 C 723.28125 340.347656 717.179688 336.796875 692.191406 328.277344 C 678.828125 323.714844 665.320312 322.269531 651.515625 319.746094 C 643.402344 318.257812 636.628906 315.03125 629.777344 311.398438 C 632.539062 314.878906 634.949219 318.625 637.980469 322.410156 C 643.058594 328.773438 648.921875 334.507812 655.164062 339.703125 C 673.355469 354.835938 699.507812 364.539062 722.753906 369.410156 C 747.066406 374.519531 772.460938 374.386719 796.5 368.804688 C 811.992188 365.210938 827.148438 359.097656 838.277344 347.71875 C 842.191406 343.714844 845.417969 339.285156 848.816406 334.796875 C 849.511719 333.867188 850.277344 332.894531 851.351562 332.453125 C 852.445312 332.054688 853.65625 332.230469 854.765625 331.976562 C 857.09375 331.421875 858.550781 328.917969 858.671875 326.515625 C 858.796875 324.117188 857.90625 321.789062 857.019531 319.558594 C 858.082031 321.648438 861.476562 321.351562 862.875 319.460938 C 864.257812 317.585938 864.09375 314.988281 863.492188 312.734375 C 863.050781 311.1875 862.511719 309.675781 861.90625 308.160156 " fill-opacity="1" fill-rule="nonzero"/><path fill="#433634" d="M 861.902344 305.175781 C 863.546875 305.714844 865.539062 305.300781 866.660156 303.933594 C 868.34375 301.882812 867.757812 299.035156 866.929688 296.375 C 865.441406 299.445312 863.773438 302.390625 861.902344 305.175781 " fill-opacity="1" fill-rule="nonzero"/><path fill="#b3bbc4" d="M 722.921875 316.605469 C 722.636719 317.371094 722.5 318.109375 722.5 318.816406 C 722.496094 320.640625 723.445312 322.167969 724.8125 323.164062 C 726.183594 324.164062 727.980469 324.703125 729.863281 324.707031 C 732.136719 324.707031 734.558594 323.90625 736.441406 322.070312 C 738.324219 320.242188 739.613281 317.40625 739.714844 313.5 C 739.726562 313.066406 739.386719 312.707031 738.949219 312.695312 C 738.523438 312.6875 738.164062 313.027344 738.15625 313.453125 C 738.054688 317.050781 736.910156 319.4375 735.351562 320.953125 C 733.796875 322.476562 731.777344 323.148438 729.863281 323.148438 C 728.285156 323.148438 726.789062 322.683594 725.734375 321.90625 C 724.679688 321.121094 724.066406 320.09375 724.058594 318.816406 C 724.058594 318.3125 724.152344 317.761719 724.382812 317.15625 C 724.535156 316.753906 724.335938 316.308594 723.933594 316.152344 C 723.527344 316 723.078125 316.203125 722.921875 316.605469 " fill-opacity="1" fill-rule="nonzero"/><path fill="#b3bbc4" d="M 751.707031 320.703125 L 751.738281 321.320312 C 751.734375 322.742188 751.21875 323.726562 750.414062 324.421875 C 749.609375 325.117188 748.453125 325.503906 747.179688 325.503906 C 745.445312 325.503906 743.519531 324.789062 742.035156 323.289062 C 740.558594 321.78125 739.492188 319.496094 739.488281 316.226562 C 739.488281 315.414062 739.554688 314.539062 739.703125 313.597656 C 739.773438 313.175781 739.480469 312.777344 739.054688 312.707031 C 738.632812 312.636719 738.230469 312.929688 738.160156 313.355469 C 738.003906 314.367188 737.925781 315.328125 737.925781 316.226562 C 737.921875 319.839844 739.140625 322.574219 740.929688 324.378906 C 742.714844 326.1875 745.019531 327.0625 747.179688 327.0625 C 748.757812 327.0625 750.28125 326.589844 751.425781 325.609375 C 752.574219 324.632812 753.308594 323.136719 753.300781 321.320312 C 753.300781 321.070312 753.285156 320.808594 753.257812 320.546875 C 753.21875 320.117188 752.835938 319.808594 752.40625 319.851562 C 751.976562 319.894531 751.664062 320.273438 751.710938 320.703125 L 751.707031 320.703125 " fill-opacity="1" fill-rule="nonzero"/><path fill="#f6849d" d="M 751.816406 304.730469 C 753.9375 306.507812 754.335938 308.28125 751.824219 309.789062 C 748.644531 311.695312 745.234375 313.300781 741.667969 314.578125 C 740.667969 314.941406 739.585938 315.28125 738.511719 315.109375 C 737.5 314.949219 736.640625 314.363281 735.839844 313.773438 C 732.785156 311.535156 729.949219 309.054688 727.367188 306.382812 C 725.148438 304.085938 727.21875 302.484375 729.902344 301.699219 C 734.667969 300.304688 740.578125 300.960938 745.386719 302.117188 C 747.585938 302.640625 750.167969 303.34375 751.816406 304.730469 " fill-opacity="1" fill-rule="nonzero"/><path fill="#f6849d" d="M 825.699219 320.265625 C 825.804688 331.125 814.792969 336.222656 806.070312 335.035156 C 794.523438 333.460938 785.878906 320.066406 797.199219 311.285156 C 802.609375 307.085938 809 305.914062 815.015625 307.546875 C 819.425781 308.746094 824.226562 311.46875 825.46875 317.976562 C 825.613281 318.753906 825.683594 319.511719 825.699219 320.265625 " fill-opacity="1" fill-rule="nonzero"/><path fill="#f6849d" d="M 653.5 297.90625 C 650.625 308.378906 659.96875 316.121094 668.699219 317.199219 C 680.265625 318.632812 692.046875 307.882812 683.347656 296.507812 C 679.1875 291.0625 673.300781 288.300781 667.074219 288.339844 C 662.503906 288.371094 657.15625 289.777344 654.300781 295.753906 C 653.964844 296.472656 653.699219 297.1875 653.5 297.90625 " fill-opacity="1" fill-rule="nonzero"/><path fill="#fccd4f" d="M 824.707031 298.410156 C 823.707031 309.316406 812.324219 317.1875 799.28125 315.996094 C 786.242188 314.796875 776.476562 304.988281 777.480469 294.082031 C 778.476562 283.175781 789.859375 275.304688 802.902344 276.5 C 815.941406 277.695312 825.707031 287.507812 824.707031 298.410156 " fill-opacity="1" fill-rule="nonzero"/><path fill="#fab946" d="M 791.300781 282.289062 C 796.433594 281.175781 801.761719 282.113281 806.785156 283.28125 C 811.515625 284.390625 816.097656 285.808594 820.007812 288.828125 C 821.519531 290 822.890625 291.324219 824.203125 292.699219 C 822.058594 284.273438 813.609375 277.476562 802.90625 276.5 C 792.1875 275.515625 782.628906 280.675781 778.992188 288.585938 C 782.421875 285.453125 786.789062 283.261719 791.300781 282.289062 " fill-opacity="1" fill-rule="nonzero"/><path fill="#433634" d="M 799.722656 299.136719 C 800.007812 296.023438 802.753906 293.726562 805.867188 294.015625 C 806.246094 294.046875 806.621094 294.121094 806.980469 294.242188 C 805.449219 288.449219 800.4375 283.960938 794.128906 283.375 C 786.046875 282.640625 778.894531 288.59375 778.15625 296.671875 C 777.421875 304.753906 783.371094 311.898438 791.449219 312.648438 C 797.367188 313.195312 802.789062 310.140625 805.5625 305.300781 C 805.324219 305.3125 805.082031 305.296875 804.84375 305.277344 C 801.734375 305 799.4375 302.246094 799.722656 299.136719 " fill-opacity="1" fill-rule="nonzero"/><path fill="#fccd4f" d="M 703.429688 292.128906 C 698.90625 298.023438 690.652344 301.558594 681.613281 300.722656 C 668.566406 299.519531 658.808594 289.710938 659.796875 278.808594 C 660.804688 267.90625 672.175781 260.03125 685.230469 261.234375 C 697.617188 262.359375 707.066406 271.285156 707.09375 281.527344 C 707.101562 282.050781 707.082031 282.597656 707.03125 283.128906 C 706.722656 286.464844 705.449219 289.535156 703.429688 292.128906 " fill-opacity="1" fill-rule="nonzero"/><path fill="#fab946" d="M 681.820312 267.328125 C 687.335938 267.09375 692.820312 267.726562 697.683594 270.535156 C 702.152344 273.113281 704.898438 277.550781 707.066406 282.089844 C 707.367188 271.609375 697.847656 262.378906 685.230469 261.222656 C 673.585938 260.15625 663.292969 266.316406 660.496094 275.40625 C 666.03125 270.09375 674.042969 267.65625 681.820312 267.328125 " fill-opacity="1" fill-rule="nonzero"/><path fill="#433634" d="M 698.761719 286.011719 C 699.050781 282.917969 701.792969 280.605469 704.898438 280.875 C 703.519531 274.847656 698.414062 270.109375 691.925781 269.515625 C 683.839844 268.773438 676.695312 274.730469 675.953125 282.8125 C 675.210938 290.890625 681.164062 298.046875 689.242188 298.78125 C 694.917969 299.304688 700.117188 296.519531 702.980469 292.023438 C 700.335938 291.332031 698.507812 288.8125 698.761719 286.011719 " fill-opacity="1" fill-rule="nonzero"/><path fill="#b3bbc4" d="M 794.621094 261.800781 C 795.777344 263.832031 798.1875 264.726562 800.402344 265.460938 C 809.554688 268.496094 818.753906 271.429688 827.972656 274.257812 C 828.585938 274.449219 829.253906 274.636719 829.84375 274.410156 C 830.367188 274.210938 830.730469 273.738281 831.039062 273.28125 C 832.285156 271.414062 833.144531 269.292969 833.554688 267.09375 C 833.734375 266.113281 833.820312 265.078125 833.445312 264.164062 C 832.890625 262.785156 831.460938 262.011719 830.121094 261.371094 C 822.910156 257.925781 815.769531 254.84375 808.042969 252.75 C 805.480469 252.050781 799.789062 249.546875 797.433594 251.429688 C 797.046875 251.738281 796.777344 252.164062 796.507812 252.589844 C 794.855469 255.265625 792.816406 258.644531 794.621094 261.800781 " fill-opacity="1" fill-rule="nonzero"/><path fill="#b3bbc4" d="M 703.175781 249.925781 C 701.53125 251.59375 698.980469 251.84375 696.648438 251.992188 C 687.015625 252.589844 677.382812 253.078125 667.738281 253.453125 C 667.105469 253.480469 666.414062 253.492188 665.894531 253.121094 C 665.4375 252.796875 665.210938 252.25 665.03125 251.726562 C 664.304688 249.605469 664.011719 247.335938 664.183594 245.097656 C 664.257812 244.109375 664.4375 243.085938 665.03125 242.296875 C 665.921875 241.109375 667.5 240.722656 668.953125 240.441406 C 676.804688 238.957031 684.492188 237.800781 692.507812 237.746094 C 695.160156 237.730469 701.304688 236.753906 703.097656 239.179688 C 703.394531 239.578125 703.550781 240.066406 703.695312 240.539062 C 704.613281 243.550781 705.726562 247.339844 703.175781 249.925781 " fill-opacity="1" fill-rule="nonzero"/><g clip-path="url(#eae7f10892)"><path fill="#cbced7" d="M 596.875 147.617188 C 597.117188 143.519531 597.207031 139.414062 597.105469 135.296875 C 597 130.894531 597.921875 120.03125 590.847656 118.753906 C 586.746094 118.015625 582.511719 120.296875 579.09375 121.847656 C 562.554688 129.355469 539.179688 145.46875 524.816406 158.941406 C 525.53125 158.273438 545.382812 168.851562 546.855469 169.570312 C 554.34375 173.179688 561.492188 177.375 568.804688 181.25 C 575.554688 184.832031 582.792969 190.242188 590.421875 192.132812 C 590.695312 192.175781 593.789062 173.574219 594.023438 172.121094 C 595.34375 163.984375 596.40625 155.824219 596.875 147.617188 " fill-opacity="1" fill-rule="nonzero"/></g><path fill="#f9abc5" d="M 589.285156 154.039062 C 589.511719 151.355469 589.636719 148.660156 589.644531 145.953125 C 589.644531 143.058594 590.433594 135.933594 585.804688 134.976562 C 583.128906 134.421875 580.300781 135.851562 578.03125 136.8125 C 567.035156 141.464844 551.402344 151.660156 541.734375 160.269531 C 542.21875 159.847656 555.089844 167.136719 556.039062 167.628906 C 560.898438 170.125 565.53125 173.003906 570.269531 175.675781 C 574.648438 178.140625 579.3125 181.816406 584.292969 183.191406 C 584.476562 183.222656 586.816406 171.050781 586.996094 170.097656 C 588.007812 164.773438 588.835938 159.429688 589.285156 154.039062 " fill-opacity="1" fill-rule="nonzero"/><path fill="#f795b4" d="M 564.179688 155.367188 C 565.542969 146.34375 579.019531 139.617188 586.625 135.230469 C 586.371094 135.125 586.09375 135.035156 585.804688 134.976562 C 583.128906 134.421875 580.300781 135.851562 578.03125 136.8125 C 567.035156 141.464844 551.402344 151.660156 541.734375 160.277344 C 542.21875 159.847656 555.089844 167.136719 556.039062 167.628906 C 560.898438 170.125 565.53125 173.003906 570.269531 175.675781 C 574.042969 177.800781 578.03125 180.820312 582.253906 182.492188 C 580.621094 170.082031 562.371094 167.371094 564.179688 155.367188 " fill-opacity="1" fill-rule="nonzero"/><g clip-path="url(#2cfb2b5326)"><path fill="#cbced7" d="M 353.128906 147.617188 C 352.894531 143.519531 352.804688 139.414062 352.902344 135.296875 C 353.007812 130.894531 352.085938 120.03125 359.164062 118.753906 C 363.261719 118.015625 367.496094 120.296875 370.914062 121.847656 C 387.449219 129.355469 410.828125 145.46875 425.1875 158.941406 C 424.476562 158.273438 404.625 168.851562 403.148438 169.570312 C 395.664062 173.179688 388.515625 177.375 381.199219 181.25 C 374.453125 184.832031 367.214844 190.242188 359.589844 192.132812 C 359.3125 192.175781 356.21875 173.574219 355.984375 172.121094 C 354.664062 163.984375 353.601562 155.824219 353.128906 147.617188 " fill-opacity="1" fill-rule="nonzero"/></g><path fill="#f9abc5" d="M 360.726562 154.039062 C 360.503906 151.355469 360.375 148.660156 360.371094 145.953125 C 360.367188 143.058594 359.578125 135.933594 364.207031 134.976562 C 366.886719 134.421875 369.710938 135.851562 371.980469 136.8125 C 382.976562 141.464844 398.609375 151.660156 408.273438 160.269531 C 407.792969 159.847656 394.925781 167.136719 393.96875 167.628906 C 389.109375 170.125 384.480469 173.003906 379.742188 175.675781 C 375.367188 178.140625 370.703125 181.816406 365.722656 183.191406 C 365.539062 183.222656 363.195312 171.050781 363.015625 170.097656 C 362.011719 164.773438 361.175781 159.429688 360.726562 154.039062 " fill-opacity="1" fill-rule="nonzero"/><path fill="#f795b4" d="M 371.980469 136.816406 C 369.710938 135.855469 366.886719 134.425781 364.203125 134.980469 C 362.683594 135.292969 361.753906 136.28125 361.183594 137.558594 C 369.683594 134.324219 382.34375 145.75 385.332031 152.578125 C 391.078125 165.699219 371.960938 172.355469 367.308594 182.660156 C 371.695312 181.035156 375.832031 177.878906 379.738281 175.675781 C 384.480469 173.007812 389.105469 170.128906 393.964844 167.628906 C 394.921875 167.136719 407.789062 159.847656 408.269531 160.277344 C 398.609375 151.667969 382.972656 141.46875 371.980469 136.816406 " fill-opacity="1" fill-rule="nonzero"/><path fill="#cbced7" d="M 621.757812 273.847656 C 620.238281 276.277344 616.519531 276.882812 614.300781 275.105469 C 615.140625 276.578125 616 278.046875 616.824219 279.527344 C 617.757812 281.207031 618.625 282.890625 619.371094 284.644531 C 620.421875 287.191406 621.011719 290.210938 619.667969 292.613281 C 618.320312 295.042969 614.394531 295.914062 612.832031 293.625 C 614.203125 296.097656 615.605469 298.691406 615.816406 301.519531 C 616.050781 304.347656 614.722656 307.503906 612.078125 308.515625 C 610.820312 308.976562 609.363281 308.957031 608.148438 309.585938 C 606.960938 310.261719 606.210938 311.527344 605.53125 312.714844 C 602.242188 318.496094 599.136719 324.175781 595.15625 329.457031 C 583.851562 344.484375 567.023438 353.949219 549.425781 360.519531 C 522.101562 370.710938 492.371094 374.734375 463.113281 372.441406 C 435.140625 370.269531 403.03125 362.878906 379.429688 347.921875 C 371.320312 342.777344 363.582031 336.957031 356.664062 330.273438 C 348.882812 322.769531 343.742188 315.082031 333.691406 310.027344 C 332.21875 309.28125 330.652344 308.558594 329.648438 307.25 C 327.007812 303.835938 329.601562 298.925781 332.570312 295.796875 C 330.210938 295.070312 327.546875 296.449219 325.230469 295.535156 C 322.734375 294.554688 321.9375 291.121094 322.917969 288.597656 C 323.902344 286.066406 326.097656 284.226562 328.199219 282.519531 C 326.214844 282.796875 324.179688 283.03125 322.265625 282.492188 C 320.347656 281.929688 318.570312 280.386719 318.386719 278.40625 C 318.289062 277.304688 318.410156 276.085938 319.039062 275.175781 C 329.4375 260.101562 337.503906 221.601562 353.417969 198.179688 C 370.6875 172.816406 396.371094 156.894531 424.953125 148.648438 C 433.34375 146.21875 441.964844 144.441406 450.707031 143.269531 C 454.375 142.800781 458.066406 142.429688 461.757812 142.175781 C 470.78125 141.492188 479.851562 141.449219 488.804688 141.984375 C 492.492188 142.195312 496.160156 142.523438 499.808594 142.917969 C 507.449219 143.808594 514.976562 145.09375 522.292969 146.75 C 523.433594 147.007812 524.601562 147.292969 525.746094 147.597656 C 542.925781 152.152344 559.027344 161.082031 573.070312 171.878906 C 588.238281 183.542969 598.359375 199.90625 605.414062 217.441406 C 611.46875 232.492188 613.128906 248.484375 620.003906 263 C 621.660156 266.460938 623.785156 270.597656 621.757812 273.847656 " fill-opacity="1" fill-rule="nonzero"/><path fill="#bcc3cb" d="M 615.035156 298.242188 C 605.078125 309.597656 589.160156 315.304688 574.367188 320.167969 C 546.894531 329.199219 518.460938 335.496094 489.542969 337.09375 C 475.785156 337.859375 462.1875 337.878906 448.765625 334.4375 C 436.023438 331.171875 423.964844 325.421875 411.011719 322.9375 C 396.144531 320.078125 382.1875 324.144531 367.335938 324.082031 C 359.617188 324.050781 353.046875 322.125 346.539062 319.757812 C 349.855469 323.105469 352.964844 326.707031 356.664062 330.277344 C 363.582031 336.960938 371.316406 342.78125 379.425781 347.921875 C 403.03125 362.882812 435.140625 370.269531 463.113281 372.445312 C 492.371094 374.734375 522.097656 370.714844 549.425781 360.523438 C 567.019531 353.953125 583.847656 344.484375 595.15625 329.457031 C 599.132812 324.171875 602.238281 318.492188 605.53125 312.71875 C 606.210938 311.523438 606.957031 310.261719 608.152344 309.589844 C 609.363281 308.957031 610.816406 308.980469 612.078125 308.511719 C 614.71875 307.503906 616.050781 304.351562 615.816406 301.523438 C 615.730469 300.394531 615.421875 299.308594 615.035156 298.242188 " fill-opacity="1" fill-rule="nonzero"/><path fill="#744746" d="M 455.296875 310.554688 C 455.144531 311.175781 455.078125 311.773438 455.078125 312.347656 C 455.066406 314.484375 456.089844 316.25 457.613281 317.375 C 459.132812 318.515625 461.117188 319.082031 463.1875 319.082031 C 465.851562 319.082031 468.695312 318.132812 470.902344 316.058594 C 473.105469 313.984375 474.609375 310.777344 474.597656 306.484375 C 474.597656 305.804688 474.566406 305.097656 474.484375 304.363281 C 474.4375 303.851562 473.984375 303.484375 473.480469 303.539062 C 472.96875 303.585938 472.605469 304.042969 472.65625 304.546875 C 472.726562 305.226562 472.757812 305.867188 472.757812 306.484375 C 472.746094 310.363281 471.453125 312.996094 469.636719 314.71875 C 467.816406 316.433594 465.417969 317.242188 463.1875 317.242188 C 461.457031 317.242188 459.84375 316.75 458.71875 315.90625 C 457.597656 315.046875 456.925781 313.90625 456.917969 312.347656 C 456.917969 311.929688 456.96875 311.472656 457.085938 310.980469 C 457.203125 310.488281 456.894531 309.988281 456.402344 309.871094 C 455.910156 309.753906 455.410156 310.0625 455.296875 310.554688 " fill-opacity="1" fill-rule="nonzero"/><path fill="#744746" d="M 489.636719 310.980469 C 489.757812 311.515625 489.820312 312.011719 489.820312 312.46875 C 489.8125 314.039062 489.183594 315.1875 488.160156 316.03125 C 487.132812 316.863281 485.660156 317.351562 484.054688 317.351562 C 481.886719 317.351562 479.507812 316.476562 477.667969 314.53125 C 475.832031 312.585938 474.484375 309.550781 474.480469 305.09375 L 474.492188 304.488281 C 474.511719 303.980469 474.117188 303.550781 473.605469 303.535156 C 473.097656 303.519531 472.671875 303.910156 472.652344 304.417969 L 472.640625 305.09375 C 472.636719 309.917969 474.125 313.476562 476.332031 315.800781 C 478.53125 318.121094 481.398438 319.191406 484.054688 319.191406 C 486.023438 319.191406 487.898438 318.609375 489.320312 317.464844 C 490.742188 316.324219 491.667969 314.570312 491.664062 312.46875 C 491.664062 311.859375 491.582031 311.21875 491.429688 310.554688 C 491.3125 310.0625 490.820312 309.753906 490.324219 309.871094 C 489.828125 309.988281 489.519531 310.480469 489.636719 310.980469 " fill-opacity="1" fill-rule="nonzero"/><path fill="#744746" d="M 487.335938 292.242188 C 490.09375 294.011719 490.824219 296.027344 488.109375 298.171875 C 484.671875 300.894531 480.921875 303.292969 476.945312 305.332031 C 475.820312 305.90625 474.613281 306.464844 473.324219 306.429688 C 472.117188 306.398438 471.019531 305.839844 469.996094 305.273438 C 466.078125 303.109375 462.371094 300.644531 458.941406 297.898438 C 456 295.546875 458.175781 293.359375 461.203125 292.03125 C 466.570312 289.671875 473.597656 289.542969 479.410156 290.160156 C 482.0625 290.445312 485.191406 290.871094 487.335938 292.242188 " fill-opacity="1" fill-rule="nonzero"/><path fill="#f9abc5" d="M 576.246094 299.210938 C 578.015625 311.910156 565.890625 319.558594 555.5 319.496094 C 541.730469 319.417969 529.570312 305.027344 541.488281 293.027344 C 547.191406 287.285156 554.503906 284.941406 561.800781 285.9375 C 567.148438 286.671875 573.1875 289.132812 575.628906 296.566406 C 575.917969 297.457031 576.113281 298.332031 576.246094 299.210938 " fill-opacity="1" fill-rule="nonzero"/><path fill="#f9abc5" d="M 371.121094 299.210938 C 369.347656 311.910156 381.46875 319.558594 391.863281 319.496094 C 405.628906 319.417969 417.792969 305.027344 405.875 293.027344 C 400.167969 287.285156 392.859375 284.941406 385.566406 285.9375 C 380.214844 286.671875 374.175781 289.132812 371.734375 296.566406 C 371.445312 297.457031 371.25 298.332031 371.121094 299.210938 " fill-opacity="1" fill-rule="nonzero"/><path fill="#ffffff" d="M 571.761719 273.765625 C 572.246094 286.691406 560.113281 297.640625 544.648438 298.226562 C 529.1875 298.808594 516.261719 288.804688 515.773438 275.875 C 515.289062 262.945312 527.421875 251.992188 542.886719 251.410156 C 558.347656 250.824219 571.269531 260.835938 571.761719 273.765625 " fill-opacity="1" fill-rule="nonzero"/><path fill="#edecee" d="M 530.179688 259.949219 C 536.015625 257.871094 542.402344 258.164062 548.464844 258.773438 C 554.179688 259.339844 559.757812 260.304688 564.792969 263.253906 C 566.75 264.394531 568.550781 265.742188 570.300781 267.152344 C 566.507812 257.601562 555.574219 250.929688 542.886719 251.410156 C 530.183594 251.886719 519.765625 259.382812 516.710938 269.210938 C 520.253906 265.007812 525.039062 261.78125 530.179688 259.949219 " fill-opacity="1" fill-rule="nonzero"/><path fill="#744746" d="M 542.605469 278.40625 C 542.457031 274.714844 545.335938 271.605469 549.027344 271.472656 C 549.472656 271.457031 549.921875 271.488281 550.367188 271.574219 C 547.683594 265.019531 541.136719 260.519531 533.65625 260.796875 C 524.078125 261.164062 516.601562 269.21875 516.96875 278.800781 C 517.328125 288.386719 525.386719 295.847656 534.964844 295.5 C 541.980469 295.234375 547.867188 290.832031 550.382812 284.742188 C 550.101562 284.792969 549.824219 284.808594 549.542969 284.824219 C 545.851562 284.976562 542.738281 282.09375 542.605469 278.40625 " fill-opacity="1" fill-rule="nonzero"/><path fill="#ffffff" d="M 428.738281 284.84375 C 424.335938 292.433594 415.203125 297.835938 404.484375 298.230469 C 389.015625 298.808594 376.09375 288.796875 375.597656 275.875 C 375.117188 262.953125 387.242188 251.996094 402.714844 251.417969 C 417.402344 250.855469 429.828125 259.871094 431.417969 271.871094 C 431.5 272.480469 431.5625 273.128906 431.582031 273.757812 C 431.730469 277.707031 430.703125 281.5 428.738281 284.84375 " fill-opacity="1" fill-rule="nonzero"/><path fill="#edecee" d="M 399.652344 259.074219 C 406.074219 257.960938 412.601562 257.871094 418.71875 260.417969 C 424.34375 262.761719 428.238281 267.542969 431.46875 272.535156 C 430.230469 260.210938 417.675781 250.84375 402.710938 251.410156 C 388.914062 251.929688 377.792969 260.714844 375.898438 271.785156 C 381.574219 264.722656 390.589844 260.640625 399.652344 259.074219 " fill-opacity="1" fill-rule="nonzero"/><path fill="#744746" d="M 422.335938 278.386719 C 422.203125 274.71875 425.0625 271.589844 428.746094 271.441406 C 426.21875 264.585938 419.511719 259.816406 411.816406 260.105469 C 402.238281 260.464844 394.769531 268.523438 395.128906 278.105469 C 395.492188 287.683594 403.546875 295.160156 413.125 294.800781 C 419.851562 294.546875 425.523438 290.492188 428.191406 284.789062 C 424.988281 284.386719 422.464844 281.707031 422.335938 278.386719 " fill-opacity="1" fill-rule="nonzero"/><path fill="#b3bbc4" d="M 530.949219 235.445312 C 532.617188 237.648438 535.570312 238.324219 538.28125 238.851562 C 549.472656 241.019531 560.683594 243.058594 571.917969 244.96875 C 572.660156 245.09375 573.472656 245.207031 574.136719 244.859375 C 574.71875 244.546875 575.066406 243.941406 575.359375 243.351562 C 576.535156 240.976562 577.222656 238.363281 577.363281 235.722656 C 577.429688 234.550781 577.367188 233.324219 576.796875 232.308594 C 575.933594 230.78125 574.140625 230.085938 572.472656 229.539062 C 563.503906 226.601562 554.671875 224.082031 545.292969 222.804688 C 542.195312 222.375 535.148438 220.300781 532.671875 222.867188 C 532.265625 223.292969 532.007812 223.835938 531.765625 224.367188 C 530.238281 227.753906 528.355469 232.027344 530.949219 235.445312 " fill-opacity="1" fill-rule="nonzero"/><path fill="#b3bbc4" d="M 422.019531 235.445312 C 420.351562 237.648438 417.398438 238.324219 414.691406 238.851562 C 403.5 241.019531 392.285156 243.058594 381.050781 244.96875 C 380.304688 245.09375 379.5 245.207031 378.832031 244.859375 C 378.253906 244.546875 377.898438 243.941406 377.609375 243.351562 C 376.433594 240.976562 375.75 238.363281 375.605469 235.722656 C 375.542969 234.550781 375.597656 233.324219 376.171875 232.308594 C 377.035156 230.78125 378.828125 230.085938 380.492188 229.539062 C 389.464844 226.601562 398.292969 224.082031 407.675781 222.804688 C 410.777344 222.375 417.820312 220.300781 420.296875 222.867188 C 420.703125 223.292969 420.960938 223.835938 421.203125 224.367188 C 422.730469 227.753906 424.613281 232.027344 422.019531 235.445312 " fill-opacity="1" fill-rule="nonzero"/><path fill="#b3bbc4" d="M 488.804688 141.984375 C 488.171875 155.515625 487.277344 169.007812 486.132812 182.425781 C 485.363281 191.191406 484.457031 200.140625 481.742188 207.902344 C 480.363281 211.828125 478.144531 215.738281 475.273438 215.6875 C 473.652344 215.667969 472.140625 214.332031 471.015625 212.554688 C 468.984375 209.351562 468.074219 204.914062 467.300781 200.589844 C 463.890625 181.582031 462.019531 161.898438 461.757812 142.175781 C 470.78125 141.492188 479.851562 141.449219 488.804688 141.984375 " fill-opacity="1" fill-rule="nonzero"/><path fill="#b3bbc4" d="M 525.75 147.601562 C 524.203125 155.851562 522.496094 164.035156 520.648438 172.191406 C 519.039062 179.34375 517.238281 186.613281 513.777344 192.667969 C 512.054688 195.730469 509.453125 198.628906 506.609375 198.210938 C 505.015625 197.953125 503.636719 196.640625 502.679688 194.980469 C 501 192.082031 500.53125 188.25 500.203125 184.582031 C 498.914062 170.835938 498.796875 156.835938 499.808594 142.925781 C 507.445312 143.8125 514.96875 145.097656 522.289062 146.757812 C 523.433594 147.019531 524.597656 147.296875 525.75 147.601562 " fill-opacity="1" fill-rule="nonzero"/><path fill="#b3bbc4" d="M 450.304688 184.574219 C 449.984375 188.246094 449.488281 192.082031 447.808594 194.980469 C 446.871094 196.640625 445.496094 197.945312 443.878906 198.207031 C 441.054688 198.625 438.460938 195.726562 436.707031 192.664062 C 433.273438 186.609375 431.472656 179.34375 429.835938 172.1875 C 428.085938 164.378906 426.445312 156.527344 424.953125 148.648438 C 433.339844 146.21875 441.964844 144.441406 450.703125 143.273438 C 451.710938 157.0625 451.574219 170.949219 450.304688 184.574219 " fill-opacity="1" fill-rule="nonzero"/><path fill="#fbc9d3" d="M 959.03125 518.257812 C 959.582031 519.601562 959.996094 521.019531 959.609375 522.15625 C 958.960938 524.074219 956.265625 524.714844 953.644531 524.753906 C 892.808594 525.695312 77.503906 523.890625 18.226562 523.207031 C 10.933594 523.117188 2.9375 522.019531 1.140625 516.722656 C 0.0234375 513.425781 1.714844 509.246094 3.441406 505.390625 C 13.976562 481.863281 67.5625 364.675781 70.089844 359.617188 C 74.707031 350.382812 77.269531 351.148438 98.828125 350.8125 C 184.851562 349.449219 294.769531 347.242188 387.410156 346.90625 C 475.8125 346.585938 563.945312 346.710938 645.222656 347.007812 C 728.882812 347.347656 805.320312 347.878906 867.171875 348.34375 C 867.433594 348.34375 867.71875 348.324219 867.996094 348.324219 C 873.335938 348.195312 879.582031 348.324219 884.203125 351.277344 C 887.394531 353.292969 888.722656 356.117188 890.191406 358.765625 C 900.710938 377.667969 948.699219 492.855469 959.03125 518.257812 " fill-opacity="1" fill-rule="nonzero"/><path fill="#ffffff" d="M 397.324219 328.359375 C 385.242188 329.257812 367.5 333.679688 366.738281 344.65625 C 368.070312 348.742188 368.496094 353.699219 369.375 357.128906 C 370.199219 360.34375 371.039062 363.597656 372.589844 366.425781 C 377.238281 374.925781 386.777344 375.488281 392.84375 367.589844 C 394.226562 371.964844 398.132812 375.078125 402.332031 375.148438 C 406.800781 375.222656 410.003906 372.242188 412.433594 368.261719 C 412.710938 368.648438 413.003906 369.070312 413.355469 369.382812 C 419.597656 375 429.15625 374.488281 431.964844 364.644531 C 434.496094 355.769531 431.660156 344.292969 427.394531 335.902344 C 422.753906 327.132812 405.925781 327.722656 397.324219 328.359375 " fill-opacity="1" fill-rule="nonzero"/><path fill="#d8e2e9" d="M 606.371094 320.390625 C 619.378906 322.382812 631.648438 328.601562 639.058594 339.597656 C 644.660156 347.902344 649.3125 362.226562 646.316406 372.824219 C 643.527344 382.683594 633.960938 383.207031 627.710938 377.609375 C 627.363281 377.289062 627.070312 376.871094 626.792969 376.488281 C 624.371094 380.472656 621.171875 383.457031 616.707031 383.394531 C 612.5 383.328125 608.589844 380.230469 607.195312 375.851562 C 601.152344 383.765625 591.609375 383.222656 586.9375 374.734375 C 585.386719 371.90625 584.542969 368.652344 583.710938 365.4375 C 582.164062 359.457031 581.996094 348.773438 575.957031 346.320312 C 574.53125 345.75 555.457031 345.84375 547.039062 345.949219 C 554.046875 334.363281 562.222656 327.761719 573.113281 323.28125 C 582.613281 319.367188 595.515625 318.730469 606.371094 320.390625 " fill-opacity="1" fill-rule="nonzero"/><path fill="#ffffff" d="M 611.597656 336.617188 C 599.519531 337.539062 581.785156 342 581.042969 352.976562 C 582.390625 357.054688 582.824219 362.019531 583.710938 365.4375 C 584.542969 368.652344 585.386719 371.90625 586.9375 374.734375 C 591.609375 383.21875 601.152344 383.765625 607.195312 375.851562 C 608.589844 380.230469 612.5 383.328125 616.707031 383.394531 C 621.171875 383.457031 624.371094 380.472656 626.792969 376.488281 C 627.070312 376.871094 627.363281 377.292969 627.710938 377.609375 C 633.960938 383.207031 643.527344 382.683594 646.316406 372.824219 C 648.824219 363.949219 645.964844 352.472656 641.683594 344.09375 C 637.019531 335.335938 620.195312 335.960938 611.597656 336.617188 " fill-opacity="1" fill-rule="nonzero"/><path fill="#433634" d="M 669.691406 332.613281 C 659.464844 333.378906 644.445312 337.121094 643.796875 346.414062 C 644.925781 349.863281 645.289062 354.0625 646.03125 356.96875 C 646.730469 359.691406 647.441406 362.445312 648.75 364.839844 C 652.6875 372.03125 660.761719 372.503906 665.894531 365.824219 C 667.066406 369.53125 670.375 372.160156 673.933594 372.21875 C 677.710938 372.285156 680.425781 369.757812 682.484375 366.394531 C 682.714844 366.714844 682.964844 367.078125 683.257812 367.339844 C 688.542969 372.097656 696.640625 371.667969 699.015625 363.328125 C 701.15625 355.820312 698.753906 346.101562 695.144531 339 C 691.214844 331.574219 676.96875 332.074219 669.691406 332.613281 " fill-opacity="1" fill-rule="nonzero"/><path fill="#433634" d="M 840.261719 334.53125 C 850.484375 335.308594 865.496094 339.085938 866.125 348.378906 C 864.988281 351.828125 864.617188 356.03125 863.875 358.933594 C 863.164062 361.648438 862.449219 364.410156 861.132812 366.792969 C 857.179688 373.984375 849.105469 374.4375 843.984375 367.746094 C 842.808594 371.449219 839.496094 374.070312 835.941406 374.125 C 832.160156 374.179688 829.449219 371.652344 827.398438 368.28125 C 827.160156 368.601562 826.917969 368.964844 826.617188 369.230469 C 821.328125 373.972656 813.230469 373.523438 810.867188 365.179688 C 808.746094 357.671875 811.171875 347.953125 814.792969 340.859375 C 818.738281 333.449219 832.984375 333.972656 840.261719 334.53125 " fill-opacity="1" fill-rule="nonzero"/><path fill="#f9a75a" d="M 303.726562 332.613281 C 313.953125 333.378906 328.972656 337.121094 329.617188 346.414062 C 328.488281 349.863281 328.128906 354.0625 327.382812 356.96875 C 326.6875 359.691406 325.976562 362.445312 324.664062 364.839844 C 320.726562 372.03125 312.652344 372.503906 307.519531 365.824219 C 306.347656 369.53125 303.039062 372.160156 299.484375 372.21875 C 295.703125 372.285156 292.988281 369.757812 290.933594 366.394531 C 290.695312 366.714844 290.449219 367.078125 290.15625 367.339844 C 284.875 372.097656 276.777344 371.667969 274.402344 363.328125 C 272.257812 355.820312 274.660156 346.101562 278.273438 339 C 282.199219 331.574219 296.445312 332.074219 303.726562 332.613281 " fill-opacity="1" fill-rule="nonzero"/><path fill="#f9a75a" d="M 133.152344 334.527344 C 122.929688 335.3125 107.917969 339.082031 107.292969 348.378906 C 108.425781 351.832031 108.796875 356.03125 109.546875 358.933594 C 110.25 361.652344 110.964844 364.40625 112.28125 366.796875 C 116.234375 373.980469 124.308594 374.441406 129.429688 367.746094 C 130.609375 371.445312 133.921875 374.070312 137.476562 374.125 C 141.257812 374.179688 143.964844 371.652344 146.015625 368.28125 C 146.253906 368.601562 146.5 368.964844 146.796875 369.230469 C 152.089844 373.96875 160.183594 373.523438 162.542969 365.183594 C 164.667969 357.671875 162.246094 347.957031 158.621094 340.859375 C 154.679688 333.445312 140.433594 333.972656 133.152344 334.527344 " fill-opacity="1" fill-rule="nonzero"/><path fill="#ffffff" d="M 424.457031 652.847656 C 434.15625 641.210938 446.554688 631.027344 459.292969 628.601562 C 479.242188 624.8125 501.277344 637.128906 515.292969 650.550781 C 527.363281 662.109375 535.007812 678.089844 538.476562 694.746094 C 540.0625 702.335938 540.792969 710.441406 538.230469 717.761719 C 532.433594 734.375 518.628906 730.839844 505.367188 727.558594 C 491.753906 724.183594 478.007812 719.351562 463.792969 721.023438 C 446.199219 723.097656 427.5625 737.988281 411.335938 724.867188 C 396.320312 712.722656 403.136719 688.128906 410.746094 673.367188 C 414.097656 666.863281 418.820312 659.609375 424.457031 652.847656 " fill-opacity="1" fill-rule="nonzero"/><path fill="#ffffff" d="M 434.257812 600.273438 C 435.890625 607.820312 439.429688 614.496094 444.804688 617.980469 C 452.226562 622.785156 461.902344 620.484375 467.03125 613.179688 C 473.707031 603.664062 473.398438 590.550781 469.933594 579.386719 C 467.679688 572.121094 463.289062 564.503906 456.0625 563.003906 C 437.328125 559.109375 430.339844 582.195312 434.257812 600.273438 " fill-opacity="1" fill-rule="nonzero"/><path fill="#ffffff" d="M 491.757812 599.582031 C 490.085938 606.390625 490.285156 613.304688 493.242188 618.410156 C 497.320312 625.464844 506.050781 627.71875 513.09375 623.972656 C 522.265625 619.105469 527.226562 608.34375 528.859375 597.824219 C 529.917969 590.980469 529.40625 582.941406 524.160156 578.644531 C 510.585938 567.519531 495.769531 583.253906 491.757812 599.582031 " fill-opacity="1" fill-rule="nonzero"/><path fill="#ffffff" d="M 535.511719 625.382812 C 530.480469 630.109375 526.953125 636 526.675781 641.960938 C 526.292969 650.183594 532.34375 657.0625 540.195312 657.972656 C 550.414062 659.164062 560.292969 653.019531 567.273438 645.175781 C 571.816406 640.066406 575.691406 633.058594 573.632812 626.472656 C 568.304688 609.40625 547.578125 614.058594 535.511719 625.382812 " fill-opacity="1" fill-rule="nonzero"/><path fill="#ffffff" d="M 420.152344 619.261719 C 422.601562 625.804688 423.199219 632.691406 420.855469 638.152344 C 417.621094 645.6875 409.222656 649.070312 401.796875 646.28125 C 392.136719 642.65625 385.96875 632.628906 383.132812 622.402344 C 381.285156 615.75 380.871094 607.699219 385.574219 602.753906 C 397.761719 589.929688 414.28125 603.59375 420.152344 619.261719 " fill-opacity="1" fill-rule="nonzero"/><path fill="#ffffff" d="M 678.570312 650.917969 C 685.59375 645.660156 693.945312 641.585938 701.449219 641.929688 C 713.191406 642.464844 723.953125 652.359375 730.050781 661.796875 C 735.296875 669.933594 737.464844 679.957031 737.191406 689.800781 C 737.0625 694.292969 736.386719 698.953125 733.96875 702.734375 C 728.472656 711.316406 721.167969 707.476562 714.140625 703.84375 C 706.921875 700.121094 699.824219 695.5625 691.597656 694.59375 C 681.40625 693.402344 668.910156 699.292969 661.53125 689.726562 C 654.699219 680.871094 661.832031 667.933594 668.101562 660.636719 C 670.863281 657.417969 674.496094 653.972656 678.570312 650.917969 " fill-opacity="1" fill-rule="nonzero"/><path fill="#ffffff" d="M 691.140625 622.613281 C 691.050781 627.085938 692.148438 631.316406 694.710938 634 C 698.246094 637.703125 704.003906 637.707031 707.871094 634.277344 C 712.910156 629.8125 714.488281 622.382812 714.035156 615.632812 C 713.738281 611.238281 712.289062 606.355469 708.414062 604.539062 C 698.386719 599.835938 691.351562 611.902344 691.140625 622.613281 " fill-opacity="1" fill-rule="nonzero"/><path fill="#ffffff" d="M 723.625 629.929688 C 721.765625 633.539062 720.953125 637.460938 721.933594 640.738281 C 723.289062 645.257812 727.902344 647.699219 732.371094 646.539062 C 738.1875 645.019531 742.429688 639.628906 744.753906 633.917969 C 746.269531 630.203125 747.0625 625.601562 744.679688 622.484375 C 738.527344 614.394531 728.070312 621.273438 723.625 629.929688 " fill-opacity="1" fill-rule="nonzero"/><path fill="#ffffff" d="M 744.8125 650.335938 C 741.347656 652.324219 738.570312 655.164062 737.613281 658.484375 C 736.292969 663.066406 738.78125 667.753906 743.082031 669.316406 C 748.679688 671.359375 755.066406 669.222656 760.050781 665.738281 C 763.296875 663.472656 766.417969 660.042969 766.140625 656.054688 C 765.425781 645.730469 753.125 645.570312 744.8125 650.335938 " fill-opacity="1" fill-rule="nonzero"/><path fill="#ffffff" d="M 680.648438 631.417969 C 681.152344 635.433594 680.566406 639.394531 678.511719 642.15625 C 675.679688 645.964844 670.496094 646.742188 666.691406 644.175781 C 661.734375 640.839844 659.601562 634.367188 659.371094 628.226562 C 659.226562 624.230469 660.070312 619.636719 663.382812 617.480469 C 671.964844 611.894531 679.441406 621.804688 680.648438 631.417969 " fill-opacity="1" fill-rule="nonzero"/><path fill="#ffffff" d="M 268.789062 650.917969 C 261.765625 645.660156 253.417969 641.585938 245.914062 641.929688 C 234.171875 642.464844 223.410156 652.359375 217.3125 661.796875 C 212.0625 669.933594 209.894531 679.957031 210.171875 689.800781 C 210.300781 694.292969 210.972656 698.953125 213.394531 702.734375 C 218.890625 711.316406 226.195312 707.476562 233.222656 703.84375 C 240.4375 700.121094 247.535156 695.5625 255.765625 694.59375 C 265.953125 693.402344 278.449219 699.292969 285.832031 689.726562 C 292.664062 680.871094 285.527344 667.933594 279.261719 660.636719 C 276.503906 657.417969 272.867188 653.972656 268.789062 650.917969 " fill-opacity="1" fill-rule="nonzero"/><path fill="#ffffff" d="M 256.222656 622.613281 C 256.3125 627.085938 255.214844 631.316406 252.652344 634 C 249.117188 637.703125 243.359375 637.707031 239.492188 634.277344 C 234.453125 629.8125 232.871094 622.382812 233.328125 615.632812 C 233.625 611.238281 235.074219 606.355469 238.945312 604.539062 C 248.976562 599.835938 256.007812 611.902344 256.222656 622.613281 " fill-opacity="1" fill-rule="nonzero"/><path fill="#ffffff" d="M 223.738281 629.929688 C 225.597656 633.539062 226.40625 637.460938 225.425781 640.738281 C 224.074219 645.257812 219.460938 647.699219 214.988281 646.539062 C 209.171875 645.019531 204.9375 639.628906 202.605469 633.917969 C 201.089844 630.203125 200.304688 625.601562 202.679688 622.484375 C 208.835938 614.394531 219.292969 621.273438 223.738281 629.929688 " fill-opacity="1" fill-rule="nonzero"/><path fill="#ffffff" d="M 202.546875 650.335938 C 206.015625 652.324219 208.792969 655.164062 209.75 658.484375 C 211.066406 663.066406 208.582031 667.753906 204.28125 669.316406 C 198.679688 671.359375 192.296875 669.222656 187.308594 665.738281 C 184.066406 663.472656 180.945312 660.042969 181.222656 656.054688 C 181.9375 645.730469 194.234375 645.570312 202.546875 650.335938 " fill-opacity="1" fill-rule="nonzero"/><path fill="#ffffff" d="M 266.714844 631.417969 C 266.207031 635.433594 266.796875 639.394531 268.847656 642.15625 C 271.679688 645.964844 276.867188 646.742188 280.675781 644.175781 C 285.628906 640.839844 287.761719 634.367188 287.988281 628.226562 C 288.136719 624.230469 287.292969 619.636719 283.980469 617.480469 C 275.394531 611.894531 267.921875 621.804688 266.714844 631.417969 " fill-opacity="1" fill-rule="nonzero"/></svg>