<svg width="1440" height="1024" viewBox="0 0 1440 1024" fill="none" xmlns="http://www.w3.org/2000/svg">
<g clip-path="url(#clip0_1_2)">
<rect width="1440" height="1024" fill="white"/>
<g clip-path="url(#clip1_1_2)">
<path d="M6.01267 97.537C4.56358 90.9915 3.01205 83.953 3.11189 77.22C2.86831 72.798 3.69761 68.4344 4.93734 64.3552C6.03634 60.1952 10.4158 56.6146 15.0675 56.9962C18.2793 57.293 21.4395 58.8364 24.0318 60.89C27.8091 63.355 30.4584 67.2099 33.6428 70.2584C37.3502 74.2895 40.195 79.1078 43.2156 83.5871C48.7154 93.8713 49.0153 104.947 41.8102 112.493C37.7441 117.107 30.7975 119.746 24.5716 119.159C20.2676 118.838 16.7626 116.131 13.7327 113.267C9.61811 108.973 6.82247 103.911 5.86028 97.7641L6.01267 97.537Z" fill="#FFF5FB"/>
<path d="M24.5202 155.342C23.152 145.125 27.0701 135.145 33.3286 127.463C38.9274 120.169 45.3469 113.568 50.6225 106.069C53.4928 99.5938 53.606 92.2453 55.8606 85.5007C59.9709 75.4648 70.1314 69.8777 79.6992 66.3734C92.0164 62.0938 106.129 57.951 118.814 63.6861C126.386 67.7856 130.599 76.404 138.647 79.8213C146.327 82.9932 154.352 84.4674 162.195 87.1496C172.907 90.5188 184.02 97.3694 187.587 108.977C190.621 117.972 190.008 127.941 188.008 137.008C185.618 145.932 178.639 153.073 169.759 155.066C160.709 157.963 151.012 155.324 141.907 157.434C133.763 162.311 124.991 166.448 115.733 168.899C107.199 172.182 97.8628 171.991 89.116 173.65C79.1719 178.754 70.4199 187.33 58.8008 188.362C48.277 189.025 38.7979 182.184 33.1242 173.4C29.2222 168.148 25.0828 162.04 24.5202 155.342Z" fill="#FFF5FB"/>
<path d="M22.8673 49.0911C20.7328 40.9879 19.6398 32.732 19.0501 24.3476C18.8727 13.0049 18.3173 -1.06149 28.0574 -8.4556C37.9736 -13.3435 48.1535 -3.9057 54.3656 3.63992C63.0907 14.0406 70.5472 25.7511 75.7225 38.3998C80.031 50.224 72.1852 61.7091 62.1217 66.683C53.3365 72.6529 40.6001 72.9331 32.5279 65.0001C27.701 60.8358 24.4734 54.6962 22.8658 49.0915L22.8673 49.0911Z" fill="#FFF5FB"/>
<path d="M77.9381 35.2191C77.0475 28.822 75.6687 22.1687 76.0689 15.9222C75.0883 11.0809 76.559 6.28652 75.9175 1.46886C77.3707 -2.21148 76.0441 -5.86366 77.8758 -9.24456C78.2421 -12.5691 79.0839 -15.8724 80.6546 -18.9912C81.7616 -21.826 83.8906 -24.3506 86.4997 -25.9254C89.9147 -29.4284 94.7503 -27.6341 98.5045 -26.5244C100.942 -25.4083 102.251 -22.9824 104.987 -22.3708C106.815 -19.0902 110.359 -17.2488 111.889 -13.7128C115.474 -9.11827 118.698 -3.9921 121.171 1.66289C124.304 7.12223 127.357 13.7653 129.017 19.6026C129.49 24.8086 130.855 30.1114 129.167 35.1013C128.602 37.8785 126.902 40.969 125.66 43.4632C121.644 49.116 115.234 52.063 108.455 53.3897C103.041 53.706 97.9172 54.1892 92.8106 52.3199C89.5042 51.2373 86.2665 49.8755 84.0314 47.1457C81.2438 43.9987 78.5588 39.5232 77.9381 35.2191Z" fill="#FFF5FB"/>
<path d="M130.677 49.3932C130.766 45.2836 130.887 41.4471 131.634 37.4856C131.816 34.3971 132.708 31.0966 133.33 28.0709C135.051 24.9042 136.108 21.8571 138.532 19.6594C142.011 15.7765 147.979 16.5407 151.458 19.5628C154.006 21.7207 156.556 23.8719 158.373 26.6414C162.628 31.7317 165.335 38.1385 167.889 44.6393C170.582 49.7195 172.758 55.644 171.868 61.3652C171.991 64.4914 171.377 68.2501 169.086 70.7012C168.195 75.8843 162.025 79.1105 157.043 80.1148C151.847 81.2034 146.889 80.4811 141.925 79.2544C137.578 77.2307 133.89 74.4016 133.057 69.3511C129.544 64.3046 130.48 55.0507 130.678 49.3938L130.677 49.3932Z" fill="#FFF5FB"/>
</g>
<g clip-path="url(#clip2_1_2)">
<path d="M294.413 381.319C292.964 374.773 291.412 367.735 291.512 361.002C291.268 356.58 292.098 352.216 293.337 348.137C294.436 343.977 298.816 340.397 303.468 340.778C306.679 341.075 309.84 342.618 312.432 344.672C316.209 347.137 318.858 350.992 322.043 354.04C325.75 358.072 328.595 362.89 331.616 367.369C337.115 377.653 337.415 388.729 330.21 396.275C326.144 400.889 319.198 403.528 312.972 402.941C308.668 402.62 305.163 399.913 302.133 397.049C298.018 392.755 295.222 387.693 294.26 381.546L294.413 381.319Z" fill="#FFF5FB"/>
<path d="M312.92 439.124C311.552 428.907 315.47 418.927 321.729 411.245C327.327 403.951 333.747 397.35 339.023 389.851C341.893 383.376 342.006 376.027 344.261 369.283C348.371 359.247 358.531 353.66 368.099 350.155C380.416 345.876 394.529 341.733 407.214 347.468C414.786 351.568 418.999 360.186 427.048 363.603C434.727 366.775 442.752 368.249 450.595 370.932C461.307 374.301 472.42 381.151 475.987 392.759C479.021 401.754 478.408 411.723 476.408 420.79C474.018 429.714 467.039 436.855 458.159 438.848C449.109 441.745 439.412 439.106 430.307 441.216C422.163 446.093 413.391 450.23 404.133 452.681C395.599 455.964 386.263 455.773 377.516 457.432C367.572 462.535 358.82 471.112 347.201 472.144C336.677 472.807 327.198 465.966 321.524 457.182C317.622 451.93 313.483 445.822 312.92 439.124Z" fill="#FFF5FB"/>
<path d="M311.267 332.873C309.133 324.77 308.04 316.514 307.45 308.13C307.273 296.787 306.717 282.721 316.457 275.326C326.374 270.439 336.554 279.876 342.766 287.422C351.491 297.823 358.947 309.533 364.123 322.182C368.431 334.006 360.585 345.491 350.522 350.465C341.737 356.435 329 356.715 320.928 348.782C316.101 344.618 312.873 338.478 311.266 332.874L311.267 332.873Z" fill="#FFF5FB"/>
<path d="M366.338 319.001C365.448 312.604 364.069 305.951 364.469 299.704C363.488 294.863 364.959 290.068 364.318 285.251C365.771 281.57 364.444 277.918 366.276 274.537C366.642 271.213 367.484 267.91 369.055 264.791C370.162 261.956 372.291 259.431 374.9 257.857C378.315 254.354 383.15 256.148 386.904 257.258C389.342 258.374 390.651 260.8 393.387 261.411C395.215 264.692 398.759 266.533 400.289 270.069C403.874 274.664 407.098 279.79 409.571 285.445C412.704 290.904 415.757 297.547 417.417 303.385C417.89 308.591 419.255 313.893 417.567 318.883C417.002 321.661 415.302 324.751 414.06 327.245C410.044 332.898 403.634 335.845 396.855 337.172C391.441 337.488 386.317 337.971 381.211 336.102C377.904 335.019 374.667 333.658 372.431 330.928C369.644 327.781 366.959 323.305 366.338 319.001Z" fill="#FFF5FB"/>
<path d="M419.077 333.175C419.166 329.066 419.287 325.229 420.034 321.268C420.216 318.179 421.108 314.879 421.73 311.853C423.451 308.686 424.508 305.639 426.932 303.441C430.411 299.559 436.379 300.323 439.858 303.345C442.406 305.503 444.956 307.654 446.773 310.423C451.028 315.514 453.735 321.92 456.289 328.421C458.982 333.501 461.158 339.426 460.268 345.147C460.391 348.273 459.777 352.032 457.486 354.483C456.595 359.666 450.425 362.892 445.443 363.897C440.247 364.985 435.289 364.263 430.325 363.036C425.978 361.013 422.29 358.184 421.457 353.133C417.944 348.087 418.88 338.833 419.078 333.176L419.077 333.175Z" fill="#FFF5FB"/>
</g>
<g clip-path="url(#clip3_1_2)">
<path d="M294.413 971.319C292.964 964.773 291.412 957.735 291.512 951.002C291.268 946.58 292.098 942.216 293.337 938.137C294.436 933.977 298.816 930.397 303.468 930.778C306.679 931.075 309.84 932.618 312.432 934.672C316.209 937.137 318.858 940.992 322.043 944.04C325.75 948.071 328.595 952.89 331.616 957.369C337.115 967.653 337.415 978.729 330.21 986.275C326.144 990.889 319.198 993.528 312.972 992.941C308.668 992.62 305.163 989.913 302.133 987.048C298.018 982.755 295.222 977.693 294.26 971.546L294.413 971.319Z" fill="#FFF5FB"/>
<path d="M312.92 1029.12C311.552 1018.91 315.47 1008.93 321.729 1001.25C327.327 993.951 333.747 987.35 339.023 979.851C341.893 973.376 342.006 966.027 344.261 959.283C348.371 949.247 358.531 943.66 368.099 940.155C380.416 935.876 394.529 931.733 407.214 937.468C414.786 941.568 418.999 950.186 427.048 953.603C434.727 956.775 442.752 958.249 450.595 960.932C461.307 964.301 472.42 971.151 475.987 982.759C479.021 991.754 478.408 1001.72 476.408 1010.79C474.018 1019.71 467.039 1026.85 458.159 1028.85C449.109 1031.75 439.412 1029.11 430.307 1031.22C422.163 1036.09 413.391 1040.23 404.133 1042.68C395.599 1045.96 386.263 1045.77 377.516 1047.43C367.572 1052.54 358.82 1061.11 347.201 1062.14C336.677 1062.81 327.198 1055.97 321.524 1047.18C317.622 1041.93 313.483 1035.82 312.92 1029.12Z" fill="#FFF5FB"/>
<path d="M311.267 922.873C309.133 914.77 308.04 906.514 307.45 898.13C307.273 886.787 306.717 872.72 316.457 865.326C326.374 860.439 336.554 869.876 342.766 877.422C351.491 887.823 358.947 899.533 364.123 912.182C368.431 924.006 360.585 935.491 350.522 940.465C341.737 946.435 329 946.715 320.928 938.782C316.101 934.618 312.873 928.478 311.266 922.873L311.267 922.873Z" fill="#FFF5FB"/>
<path d="M366.338 909.001C365.448 902.604 364.069 895.951 364.469 889.704C363.488 884.863 364.959 880.068 364.318 875.251C365.771 871.57 364.444 867.918 366.276 864.537C366.642 861.213 367.484 857.91 369.055 854.791C370.162 851.956 372.291 849.431 374.9 847.857C378.315 844.354 383.15 846.148 386.904 847.258C389.342 848.374 390.651 850.8 393.387 851.411C395.215 854.692 398.759 856.533 400.289 860.069C403.874 864.664 407.098 869.79 409.571 875.445C412.704 880.904 415.757 887.547 417.417 893.385C417.89 898.591 419.255 903.893 417.567 908.883C417.002 911.661 415.302 914.751 414.06 917.245C410.044 922.898 403.634 925.845 396.855 927.172C391.441 927.488 386.317 927.971 381.211 926.102C377.904 925.019 374.667 923.657 372.431 920.928C369.644 917.781 366.959 913.305 366.338 909.001Z" fill="#FFF5FB"/>
<path d="M419.077 923.175C419.166 919.066 419.287 915.229 420.034 911.268C420.216 908.179 421.108 904.879 421.73 901.853C423.451 898.686 424.508 895.639 426.932 893.441C430.411 889.559 436.379 890.323 439.858 893.345C442.406 895.503 444.956 897.654 446.773 900.423C451.028 905.514 453.735 911.92 456.289 918.421C458.982 923.501 461.158 929.426 460.268 935.147C460.391 938.273 459.777 942.032 457.486 944.483C456.595 949.666 450.425 952.892 445.443 953.897C440.247 954.985 435.289 954.263 430.325 953.036C425.978 951.013 422.29 948.184 421.457 943.133C417.944 938.087 418.88 928.833 419.078 923.176L419.077 923.175Z" fill="#FFF5FB"/>
</g>
<g clip-path="url(#clip4_1_2)">
<path d="M499.113 75.037C497.664 68.4915 496.112 61.4531 496.212 54.7201C495.968 50.298 496.798 45.9344 498.037 41.8553C499.136 37.6953 503.516 34.1146 508.168 34.4963C511.379 34.7931 514.54 36.3364 517.132 38.39C520.909 40.8551 523.558 44.7099 526.743 47.7584C530.45 51.7896 533.295 56.6078 536.316 61.0871C541.815 71.3714 542.115 82.4472 534.91 89.9935C530.844 94.6071 523.898 97.2464 517.672 96.6595C513.368 96.3381 509.863 93.6311 506.833 90.7666C502.718 86.4726 499.922 81.4108 498.96 75.2641L499.113 75.037Z" fill="#FFF5FB"/>
<path d="M517.62 132.842C516.252 122.625 520.17 112.645 526.429 104.963C532.027 97.6689 538.447 91.0676 543.723 83.5695C546.593 77.0938 546.706 69.7453 548.961 63.0008C553.071 52.9648 563.231 47.3777 572.799 43.8734C585.116 39.5939 599.229 35.4511 611.914 41.1861C619.486 45.2856 623.699 53.904 631.748 57.3214C639.427 60.4933 647.452 61.9674 655.295 64.6496C666.007 68.0188 677.12 74.8694 680.687 86.4771C683.721 95.4724 683.108 105.441 681.108 114.508C678.718 123.432 671.739 130.573 662.859 132.566C653.809 135.463 644.112 132.824 635.007 134.934C626.863 139.811 618.091 143.948 608.833 146.399C600.299 149.682 590.963 149.491 582.216 151.15C572.272 156.254 563.52 164.83 551.901 165.862C541.377 166.525 531.898 159.684 526.224 150.9C522.322 145.648 518.183 139.54 517.62 132.842Z" fill="#FFF5FB"/>
<path d="M515.967 26.5911C513.833 18.4879 512.74 10.2321 512.15 1.84765C511.973 -9.49507 511.417 -23.5614 521.157 -30.9555C531.074 -35.8434 541.254 -26.4056 547.466 -18.86C556.191 -8.45932 563.647 3.25116 568.823 15.8999C573.131 27.7241 565.285 39.2092 555.222 44.183C546.437 50.153 533.7 50.4331 525.628 42.5002C520.801 38.3359 517.573 32.1963 515.966 26.5916L515.967 26.5911Z" fill="#FFF5FB"/>
<path d="M571.038 12.7191C570.148 6.32205 568.769 -0.331323 569.169 -6.5778C568.188 -11.4191 569.659 -16.2135 569.018 -21.0311C570.471 -24.7115 569.144 -28.3637 570.976 -31.7446C571.342 -35.0691 572.184 -38.3724 573.755 -41.4912C574.862 -44.326 576.991 -46.8506 579.6 -48.4254C583.015 -51.9284 587.85 -50.1341 591.604 -49.0244C594.042 -47.9083 595.351 -45.4824 598.087 -44.8708C599.915 -41.5902 603.459 -39.7488 604.989 -36.2128C608.574 -31.6183 611.798 -26.4921 614.271 -20.8371C617.404 -15.3778 620.457 -8.7347 622.117 -2.89744C622.59 2.30862 623.955 7.61142 622.267 12.6013C621.702 15.3785 620.002 18.469 618.76 20.9632C614.744 26.616 608.334 29.563 601.555 30.8897C596.141 31.206 591.017 31.6892 585.911 29.8199C582.604 28.7373 579.367 27.3755 577.131 24.6457C574.344 21.4987 571.659 17.0232 571.038 12.7191Z" fill="#FFF5FB"/>
<path d="M623.777 26.8933C623.867 22.7836 623.987 18.9471 624.734 14.9856C624.916 11.8971 625.808 8.59659 626.43 5.57098C628.151 2.40421 629.208 -0.642876 631.632 -2.84057C635.111 -6.72342 641.079 -5.95931 644.558 -2.93714C647.106 -0.779227 649.656 1.37192 651.473 4.14144C655.728 9.23168 658.435 15.6385 660.989 22.1393C663.682 27.2195 665.858 33.1441 664.968 38.8652C665.091 41.9914 664.477 45.7501 662.186 48.2012C661.295 53.3843 655.125 56.6105 650.143 57.6148C644.947 58.7034 639.989 57.9811 635.026 56.7545C630.678 54.7307 626.99 51.9016 626.157 46.8512C622.644 41.8046 623.58 32.5507 623.778 26.8938L623.777 26.8933Z" fill="#FFF5FB"/>
</g>
<g clip-path="url(#clip5_1_2)">
<path d="M618.413 673.319C616.964 666.773 615.412 659.735 615.512 653.002C615.268 648.58 616.098 644.216 617.337 640.137C618.436 635.977 622.816 632.397 627.468 632.778C630.679 633.075 633.84 634.618 636.432 636.672C640.209 639.137 642.858 642.992 646.043 646.04C649.75 650.072 652.595 654.89 655.616 659.369C661.115 669.653 661.415 680.729 654.21 688.275C650.144 692.889 643.198 695.528 636.972 694.941C632.668 694.62 629.163 691.913 626.133 689.048C622.018 684.755 619.222 679.693 618.26 673.546L618.413 673.319Z" fill="#FFF5FB"/>
<path d="M636.92 731.124C635.552 720.907 639.47 710.927 645.729 703.245C651.327 695.951 657.747 689.35 663.023 681.851C665.893 675.376 666.006 668.027 668.261 661.283C672.371 651.247 682.531 645.66 692.099 642.155C704.416 637.876 718.529 633.733 731.214 639.468C738.786 643.568 742.999 652.186 751.048 655.603C758.727 658.775 766.752 660.249 774.595 662.932C785.307 666.301 796.42 673.151 799.987 684.759C803.021 693.754 802.408 703.723 800.408 712.79C798.018 721.714 791.039 728.855 782.159 730.848C773.109 733.745 763.412 731.106 754.307 733.216C746.163 738.093 737.391 742.23 728.133 744.681C719.599 747.964 710.263 747.773 701.516 749.431C691.572 754.535 682.82 763.112 671.201 764.144C660.677 764.807 651.198 757.966 645.524 749.182C641.622 743.93 637.483 737.822 636.92 731.124Z" fill="#FFF5FB"/>
<path d="M635.267 624.873C633.133 616.77 632.04 608.514 631.45 600.13C631.273 588.787 630.717 574.72 640.457 567.326C650.374 562.439 660.554 571.876 666.766 579.422C675.491 589.823 682.947 601.533 688.123 614.182C692.431 626.006 684.585 637.491 674.522 642.465C665.737 648.435 653 648.715 644.928 640.782C640.101 636.618 636.873 630.478 635.266 624.873L635.267 624.873Z" fill="#FFF5FB"/>
<path d="M690.338 611.001C689.448 604.604 688.069 597.951 688.469 591.704C687.488 586.863 688.959 582.068 688.318 577.251C689.771 573.57 688.444 569.918 690.276 566.537C690.642 563.213 691.484 559.91 693.055 556.791C694.162 553.956 696.291 551.431 698.9 549.857C702.315 546.354 707.15 548.148 710.904 549.258C713.342 550.374 714.651 552.8 717.387 553.411C719.215 556.692 722.759 558.533 724.289 562.069C727.874 566.664 731.098 571.79 733.571 577.445C736.704 582.904 739.757 589.547 741.417 595.385C741.89 600.591 743.255 605.893 741.567 610.883C741.002 613.66 739.302 616.751 738.06 619.245C734.044 624.898 727.634 627.845 720.855 629.172C715.441 629.488 710.317 629.971 705.211 628.102C701.904 627.019 698.667 625.657 696.431 622.928C693.644 619.781 690.959 615.305 690.338 611.001Z" fill="#FFF5FB"/>
<path d="M743.077 625.175C743.166 621.066 743.287 617.229 744.034 613.268C744.216 610.179 745.108 606.879 745.73 603.853C747.451 600.686 748.508 597.639 750.932 595.441C754.411 591.559 760.379 592.323 763.858 595.345C766.406 597.503 768.956 599.654 770.773 602.423C775.028 607.514 777.735 613.92 780.289 620.421C782.982 625.501 785.158 631.426 784.268 637.147C784.391 640.273 783.777 644.032 781.486 646.483C780.595 651.666 774.425 654.892 769.443 655.897C764.247 656.985 759.289 656.263 754.325 655.036C749.978 653.013 746.29 650.184 745.457 645.133C741.944 640.087 742.88 630.833 743.078 625.176L743.077 625.175Z" fill="#FFF5FB"/>
</g>
<g clip-path="url(#clip6_1_2)">
<path d="M884.413 313.319C882.964 306.773 881.412 299.735 881.512 293.002C881.268 288.58 882.098 284.216 883.337 280.137C884.436 275.977 888.816 272.397 893.468 272.778C896.679 273.075 899.84 274.618 902.432 276.672C906.209 279.137 908.858 282.992 912.043 286.04C915.75 290.071 918.595 294.89 921.616 299.369C927.115 309.653 927.415 320.729 920.21 328.275C916.144 332.889 909.197 335.528 902.972 334.941C898.668 334.62 895.163 331.913 892.133 329.048C888.018 324.755 885.222 319.693 884.26 313.546L884.413 313.319Z" fill="#FFF5FB"/>
<path d="M902.92 371.124C901.552 360.907 905.47 350.927 911.729 343.245C917.327 335.951 923.747 329.35 929.023 321.851C931.893 315.376 932.006 308.027 934.261 301.283C938.371 291.247 948.531 285.66 958.099 282.155C970.416 277.876 984.529 273.733 997.214 279.468C1004.79 283.568 1009 292.186 1017.05 295.603C1024.73 298.775 1032.75 300.249 1040.6 302.932C1051.31 306.301 1062.42 313.151 1065.99 324.759C1069.02 333.754 1068.41 343.723 1066.41 352.79C1064.02 361.714 1057.04 368.855 1048.16 370.848C1039.11 373.745 1029.41 371.106 1020.31 373.216C1012.16 378.093 1003.39 382.23 994.133 384.681C985.599 387.964 976.263 387.773 967.516 389.431C957.572 394.535 948.82 403.112 937.201 404.144C926.677 404.807 917.198 397.966 911.524 389.182C907.622 383.93 903.483 377.822 902.92 371.124Z" fill="#FFF5FB"/>
<path d="M901.267 264.873C899.133 256.77 898.04 248.514 897.45 240.13C897.273 228.787 896.717 214.72 906.457 207.326C916.374 202.439 926.554 211.876 932.766 219.422C941.491 229.823 948.947 241.533 954.123 254.182C958.431 266.006 950.585 277.491 940.522 282.465C931.737 288.435 919 288.715 910.928 280.782C906.101 276.618 902.873 270.478 901.266 264.873L901.267 264.873Z" fill="#FFF5FB"/>
<path d="M956.338 251.001C955.448 244.604 954.069 237.951 954.469 231.704C953.488 226.863 954.959 222.068 954.318 217.251C955.771 213.57 954.444 209.918 956.276 206.537C956.642 203.213 957.484 199.91 959.055 196.791C960.162 193.956 962.291 191.431 964.9 189.857C968.315 186.354 973.15 188.148 976.904 189.258C979.342 190.374 980.651 192.8 983.387 193.411C985.215 196.692 988.759 198.533 990.289 202.069C993.874 206.664 997.098 211.79 999.571 217.445C1002.7 222.904 1005.76 229.547 1007.42 235.385C1007.89 240.591 1009.26 245.893 1007.57 250.883C1007 253.661 1005.3 256.751 1004.06 259.245C1000.04 264.898 993.634 267.845 986.855 269.172C981.441 269.488 976.317 269.971 971.211 268.102C967.904 267.019 964.667 265.657 962.431 262.928C959.644 259.781 956.959 255.305 956.338 251.001Z" fill="#FFF5FB"/>
<path d="M1009.08 265.175C1009.17 261.066 1009.29 257.229 1010.03 253.268C1010.22 250.179 1011.11 246.879 1011.73 243.853C1013.45 240.686 1014.51 237.639 1016.93 235.441C1020.41 231.559 1026.38 232.323 1029.86 235.345C1032.41 237.503 1034.96 239.654 1036.77 242.423C1041.03 247.514 1043.74 253.92 1046.29 260.421C1048.98 265.501 1051.16 271.426 1050.27 277.147C1050.39 280.273 1049.78 284.032 1047.49 286.483C1046.6 291.666 1040.43 294.892 1035.44 295.897C1030.25 296.985 1025.29 296.263 1020.33 295.036C1015.98 293.013 1012.29 290.184 1011.46 285.133C1007.94 280.087 1008.88 270.833 1009.08 265.176L1009.08 265.175Z" fill="#FFF5FB"/>
</g>
<g clip-path="url(#clip7_1_2)">
<path d="M1039.41 946.319C1037.96 939.773 1036.41 932.735 1036.51 926.002C1036.27 921.58 1037.1 917.216 1038.34 913.137C1039.44 908.977 1043.82 905.397 1048.47 905.778C1051.68 906.075 1054.84 907.618 1057.43 909.672C1061.21 912.137 1063.86 915.992 1067.04 919.04C1070.75 923.071 1073.6 927.89 1076.62 932.369C1082.12 942.653 1082.42 953.729 1075.21 961.275C1071.14 965.889 1064.2 968.528 1057.97 967.941C1053.67 967.62 1050.16 964.913 1047.13 962.048C1043.02 957.755 1040.22 952.693 1039.26 946.546L1039.41 946.319Z" fill="#FFF5FB"/>
<path d="M1057.92 1004.12C1056.55 993.907 1060.47 983.927 1066.73 976.245C1072.33 968.951 1078.75 962.35 1084.02 954.851C1086.89 948.376 1087.01 941.027 1089.26 934.283C1093.37 924.247 1103.53 918.66 1113.1 915.155C1125.42 910.876 1139.53 906.733 1152.21 912.468C1159.79 916.568 1164 925.186 1172.05 928.603C1179.73 931.775 1187.75 933.249 1195.6 935.932C1206.31 939.301 1217.42 946.151 1220.99 957.759C1224.02 966.754 1223.41 976.723 1221.41 985.79C1219.02 994.714 1212.04 1001.85 1203.16 1003.85C1194.11 1006.75 1184.41 1004.11 1175.31 1006.22C1167.16 1011.09 1158.39 1015.23 1149.13 1017.68C1140.6 1020.96 1131.26 1020.77 1122.52 1022.43C1112.57 1027.54 1103.82 1036.11 1092.2 1037.14C1081.68 1037.81 1072.2 1030.97 1066.52 1022.18C1062.62 1016.93 1058.48 1010.82 1057.92 1004.12Z" fill="#FFF5FB"/>
<path d="M1056.27 897.873C1054.13 889.77 1053.04 881.514 1052.45 873.13C1052.27 861.787 1051.72 847.72 1061.46 840.326C1071.37 835.439 1081.55 844.876 1087.77 852.422C1096.49 862.823 1103.95 874.533 1109.12 887.182C1113.43 899.006 1105.59 910.491 1095.52 915.465C1086.74 921.435 1074 921.715 1065.93 913.782C1061.1 909.618 1057.87 903.478 1056.27 897.873L1056.27 897.873Z" fill="#FFF5FB"/>
<path d="M1111.34 884.001C1110.45 877.604 1109.07 870.951 1109.47 864.704C1108.49 859.863 1109.96 855.068 1109.32 850.251C1110.77 846.57 1109.44 842.918 1111.28 839.537C1111.64 836.213 1112.48 832.91 1114.05 829.791C1115.16 826.956 1117.29 824.431 1119.9 822.857C1123.31 819.354 1128.15 821.148 1131.9 822.258C1134.34 823.374 1135.65 825.8 1138.39 826.411C1140.22 829.692 1143.76 831.533 1145.29 835.069C1148.87 839.664 1152.1 844.79 1154.57 850.445C1157.7 855.904 1160.76 862.547 1162.42 868.385C1162.89 873.591 1164.26 878.893 1162.57 883.883C1162 886.661 1160.3 889.751 1159.06 892.245C1155.04 897.898 1148.63 900.845 1141.86 902.172C1136.44 902.488 1131.32 902.971 1126.21 901.102C1122.9 900.019 1119.67 898.657 1117.43 895.928C1114.64 892.781 1111.96 888.305 1111.34 884.001Z" fill="#FFF5FB"/>
<path d="M1164.08 898.175C1164.17 894.066 1164.29 890.229 1165.03 886.268C1165.22 883.179 1166.11 879.879 1166.73 876.853C1168.45 873.686 1169.51 870.639 1171.93 868.441C1175.41 864.559 1181.38 865.323 1184.86 868.345C1187.41 870.503 1189.96 872.654 1191.77 875.423C1196.03 880.514 1198.74 886.92 1201.29 893.421C1203.98 898.501 1206.16 904.426 1205.27 910.147C1205.39 913.273 1204.78 917.032 1202.49 919.483C1201.6 924.666 1195.43 927.892 1190.44 928.897C1185.25 929.985 1180.29 929.263 1175.33 928.036C1170.98 926.013 1167.29 923.184 1166.46 918.133C1162.94 913.087 1163.88 903.833 1164.08 898.176L1164.08 898.175Z" fill="#FFF5FB"/>
</g>
<g clip-path="url(#clip8_1_2)">
<path d="M1292.41 92.319C1290.96 85.7734 1289.41 78.735 1289.51 72.002C1289.27 67.58 1290.1 63.2164 1291.34 59.1372C1292.44 54.9772 1296.82 51.3966 1301.47 51.7782C1304.68 52.075 1307.84 53.6183 1310.43 55.672C1314.21 58.137 1316.86 61.9919 1320.04 65.0404C1323.75 69.0715 1326.6 73.8898 1329.62 78.3691C1335.12 88.6533 1335.42 99.7292 1328.21 107.275C1324.14 111.889 1317.2 114.528 1310.97 113.941C1306.67 113.62 1303.16 110.913 1300.13 108.049C1296.02 103.755 1293.22 98.6927 1292.26 92.5461L1292.41 92.319Z" fill="#FFF5FB"/>
<path d="M1310.92 150.124C1309.55 139.907 1313.47 129.927 1319.73 122.245C1325.33 114.951 1331.75 108.35 1337.02 100.851C1339.89 94.3758 1340.01 87.0273 1342.26 80.2827C1346.37 70.2468 1356.53 64.6597 1366.1 61.1553C1378.42 56.8758 1392.53 52.733 1405.21 58.4681C1412.79 62.5676 1417 71.186 1425.05 74.6033C1432.73 77.7752 1440.75 79.2493 1448.6 81.9316C1459.31 85.3008 1470.42 92.1514 1473.99 103.759C1477.02 112.754 1476.41 122.723 1474.41 131.79C1472.02 140.714 1465.04 147.855 1456.16 149.848C1447.11 152.745 1437.41 150.106 1428.31 152.216C1420.16 157.093 1411.39 161.23 1402.13 163.681C1393.6 166.964 1384.26 166.773 1375.52 168.432C1365.57 173.535 1356.82 182.112 1345.2 183.144C1334.68 183.807 1325.2 176.966 1319.52 168.182C1315.62 162.93 1311.48 156.822 1310.92 150.124Z" fill="#FFF5FB"/>
<path d="M1309.27 43.873C1307.13 35.7699 1306.04 27.514 1305.45 19.1296C1305.27 7.78685 1304.72 -6.27951 1314.46 -13.6736C1324.37 -18.5615 1334.55 -9.12372 1340.77 -1.57809C1349.49 8.8226 1356.95 20.5331 1362.12 33.1818C1366.43 45.006 1358.59 56.4911 1348.52 61.4649C1339.74 67.4349 1327 67.715 1318.93 59.7821C1314.1 55.6178 1310.87 49.4782 1309.27 43.8735L1309.27 43.873Z" fill="#FFF5FB"/>
<path d="M1364.34 30.0011C1363.45 23.604 1362.07 16.9507 1362.47 10.7042C1361.49 5.86287 1362.96 1.0685 1362.32 -3.74915C1363.77 -7.4295 1362.44 -11.0817 1364.28 -14.4626C1364.64 -17.7871 1365.48 -21.0904 1367.05 -24.2092C1368.16 -27.0441 1370.29 -29.5686 1372.9 -31.1435C1376.31 -34.6464 1381.15 -32.8521 1384.9 -31.7424C1387.34 -30.6263 1388.65 -28.2004 1391.39 -27.5888C1393.22 -24.3082 1396.76 -22.4668 1398.29 -18.9309C1401.87 -14.3363 1405.1 -9.21012 1407.57 -3.55512C1410.7 1.90421 1413.76 8.54728 1415.42 14.3845C1415.89 19.5906 1417.26 24.8934 1415.57 29.8832C1415 32.6605 1413.3 35.7509 1412.06 38.2452C1408.04 43.898 1401.63 46.845 1394.86 48.1717C1389.44 48.488 1384.32 48.9712 1379.21 47.1018C1375.9 46.0193 1372.67 44.6575 1370.43 41.9277C1367.64 38.7807 1364.96 34.3052 1364.34 30.0011Z" fill="#FFF5FB"/>
<path d="M1417.08 44.1752C1417.17 40.0656 1417.29 36.229 1418.03 32.2675C1418.22 29.1791 1419.11 25.8785 1419.73 22.8529C1421.45 19.6862 1422.51 16.6391 1424.93 14.4414C1428.41 10.5585 1434.38 11.3226 1437.86 14.3448C1440.41 16.5027 1442.96 18.6539 1444.77 21.4234C1449.03 26.5136 1451.74 32.9205 1454.29 39.4213C1456.98 44.5014 1459.16 50.426 1458.27 56.1472C1458.39 59.2734 1457.78 63.0321 1455.49 65.4832C1454.6 70.6662 1448.43 73.8925 1443.44 74.8968C1438.25 75.9854 1433.29 75.2631 1428.33 74.0364C1423.98 72.0127 1420.29 69.1836 1419.46 64.1331C1415.94 59.0866 1416.88 49.8326 1417.08 44.1758L1417.08 44.1752Z" fill="#FFF5FB"/>
</g>
<g clip-path="url(#clip9_1_2)">
<path d="M-31.9873 602.937C-33.4364 596.391 -34.988 589.353 -34.8881 582.62C-35.1317 578.198 -34.3024 573.834 -33.0627 569.755C-31.9637 565.595 -27.5842 562.015 -22.9325 562.396C-19.7207 562.693 -16.5605 564.236 -13.9682 566.29C-10.1909 568.755 -7.54155 572.61 -4.35724 575.658C-0.649794 579.69 2.195 584.508 5.21559 588.987C10.7154 599.271 11.0153 610.347 3.81024 617.893C-0.255909 622.507 -7.20251 625.146 -13.4284 624.559C-17.7324 624.238 -21.2374 621.531 -24.2673 618.667C-28.3819 614.373 -31.1775 609.311 -32.1397 603.164L-31.9873 602.937Z" fill="#FFF5FB"/>
<path d="M-13.4798 660.742C-14.848 650.525 -10.9299 640.545 -4.67142 632.863C0.927399 625.569 7.34685 618.968 12.6225 611.469C15.4928 604.994 15.606 597.645 17.8606 590.901C21.9709 580.865 32.1314 575.278 41.6992 571.773C54.0164 567.494 68.129 563.351 80.8137 569.086C88.3862 573.186 92.5985 581.804 100.647 585.221C108.327 588.393 116.352 589.867 124.195 592.55C134.907 595.919 146.02 602.769 149.587 614.377C152.621 623.372 152.008 633.341 150.008 642.408C147.618 651.332 140.639 658.473 131.759 660.466C122.709 663.363 113.012 660.724 103.907 662.834C95.7633 667.711 86.9909 671.848 77.7327 674.299C69.199 677.582 59.8628 677.391 51.116 679.05C41.1719 684.154 32.4199 692.73 20.8008 693.762C10.277 694.425 0.797877 687.584 -4.87577 678.8C-8.77785 673.548 -12.9172 667.44 -13.4798 660.742Z" fill="#FFF5FB"/>
<path d="M-15.1327 554.491C-17.2672 546.388 -18.3602 538.132 -18.9499 529.748C-19.1273 518.405 -19.6827 504.339 -9.94263 496.944C-0.0264486 492.057 10.1535 501.494 16.3656 509.04C25.0907 519.441 32.5472 531.151 37.7225 543.8C42.031 555.624 34.1852 567.109 24.1217 572.083C15.3365 578.053 2.60012 578.333 -5.47207 570.4C-10.299 566.236 -13.5266 560.096 -15.1342 554.492L-15.1327 554.491Z" fill="#FFF5FB"/>
<path d="M39.9381 540.619C39.0475 534.222 37.6687 527.569 38.0689 521.322C37.0883 516.481 38.559 511.687 37.9175 506.869C39.3707 503.189 38.0441 499.536 39.8758 496.155C40.2421 492.831 41.0839 489.528 42.6546 486.409C43.7616 483.574 45.8906 481.049 48.4997 479.475C51.9147 475.972 56.7503 477.766 60.5045 478.876C62.9422 479.992 64.2512 482.418 66.9868 483.029C68.8154 486.31 72.3588 488.151 73.8887 491.687C77.4737 496.282 80.698 501.408 83.1711 507.063C86.3042 512.522 89.3572 519.165 91.0174 525.003C91.4897 530.209 92.8552 535.511 91.1674 540.501C90.6024 543.279 88.9021 546.369 87.6596 548.863C83.6436 554.516 77.2339 557.463 70.455 558.79C65.0412 559.106 59.9172 559.589 54.8106 557.72C51.5042 556.637 48.2665 555.276 46.0314 552.546C43.2438 549.399 40.5588 544.923 39.9381 540.619Z" fill="#FFF5FB"/>
<path d="M92.6766 554.793C92.7665 550.684 92.8873 546.847 93.6338 542.886C93.8157 539.797 94.7084 536.497 95.3295 533.471C97.0514 530.304 98.108 527.257 100.532 525.059C104.011 521.177 109.979 521.941 113.458 524.963C116.006 527.121 118.556 529.272 120.373 532.041C124.628 537.132 127.335 543.538 129.889 550.039C132.582 555.119 134.758 561.044 133.868 566.765C133.991 569.891 133.377 573.65 131.086 576.101C130.195 581.284 124.025 584.51 119.043 585.515C113.847 586.603 108.889 585.881 103.925 584.654C99.5777 582.631 95.8898 579.802 95.057 574.751C91.5438 569.705 92.48 560.451 92.6776 554.794L92.6766 554.793Z" fill="#FFF5FB"/>
</g>
<g clip-path="url(#clip10_1_2)">
<path d="M1212.41 550.319C1210.96 543.773 1209.41 536.735 1209.51 530.002C1209.27 525.58 1210.1 521.216 1211.34 517.137C1212.44 512.977 1216.82 509.397 1221.47 509.778C1224.68 510.075 1227.84 511.618 1230.43 513.672C1234.21 516.137 1236.86 519.992 1240.04 523.04C1243.75 527.072 1246.6 531.89 1249.62 536.369C1255.12 546.653 1255.42 557.729 1248.21 565.275C1244.14 569.889 1237.2 572.528 1230.97 571.941C1226.67 571.62 1223.16 568.913 1220.13 566.049C1216.02 561.755 1213.22 556.693 1212.26 550.546L1212.41 550.319Z" fill="#FFF5FB"/>
<path d="M1230.92 608.124C1229.55 597.907 1233.47 587.927 1239.73 580.245C1245.33 572.951 1251.75 566.35 1257.02 558.851C1259.89 552.376 1260.01 545.027 1262.26 538.283C1266.37 528.247 1276.53 522.66 1286.1 519.155C1298.42 514.876 1312.53 510.733 1325.21 516.468C1332.79 520.568 1337 529.186 1345.05 532.603C1352.73 535.775 1360.75 537.249 1368.6 539.932C1379.31 543.301 1390.42 550.151 1393.99 561.759C1397.02 570.754 1396.41 580.723 1394.41 589.79C1392.02 598.714 1385.04 605.855 1376.16 607.848C1367.11 610.745 1357.41 608.106 1348.31 610.216C1340.16 615.093 1331.39 619.23 1322.13 621.681C1313.6 624.964 1304.26 624.773 1295.52 626.432C1285.57 631.536 1276.82 640.112 1265.2 641.144C1254.68 641.807 1245.2 634.966 1239.52 626.182C1235.62 620.93 1231.48 614.822 1230.92 608.124Z" fill="#FFF5FB"/>
<path d="M1229.27 501.873C1227.13 493.77 1226.04 485.514 1225.45 477.13C1225.27 465.787 1224.72 451.721 1234.46 444.326C1244.37 439.439 1254.55 448.876 1260.77 456.422C1269.49 466.823 1276.95 478.533 1282.12 491.182C1286.43 503.006 1278.59 514.491 1268.52 519.465C1259.74 525.435 1247 525.715 1238.93 517.782C1234.1 513.618 1230.87 507.478 1229.27 501.874L1229.27 501.873Z" fill="#FFF5FB"/>
<path d="M1284.34 488.001C1283.45 481.604 1282.07 474.951 1282.47 468.704C1281.49 463.863 1282.96 459.068 1282.32 454.251C1283.77 450.57 1282.44 446.918 1284.28 443.537C1284.64 440.213 1285.48 436.91 1287.05 433.791C1288.16 430.956 1290.29 428.431 1292.9 426.857C1296.31 423.354 1301.15 425.148 1304.9 426.258C1307.34 427.374 1308.65 429.8 1311.39 430.411C1313.22 433.692 1316.76 435.533 1318.29 439.069C1321.87 443.664 1325.1 448.79 1327.57 454.445C1330.7 459.904 1333.76 466.547 1335.42 472.385C1335.89 477.591 1337.26 482.893 1335.57 487.883C1335 490.661 1333.3 493.751 1332.06 496.245C1328.04 501.898 1321.63 504.845 1314.86 506.172C1309.44 506.488 1304.32 506.971 1299.21 505.102C1295.9 504.019 1292.67 502.658 1290.43 499.928C1287.64 496.781 1284.96 492.305 1284.34 488.001Z" fill="#FFF5FB"/>
<path d="M1337.08 502.175C1337.17 498.066 1337.29 494.229 1338.03 490.268C1338.22 487.179 1339.11 483.879 1339.73 480.853C1341.45 477.686 1342.51 474.639 1344.93 472.441C1348.41 468.559 1354.38 469.323 1357.86 472.345C1360.41 474.503 1362.96 476.654 1364.77 479.423C1369.03 484.514 1371.74 490.92 1374.29 497.421C1376.98 502.501 1379.16 508.426 1378.27 514.147C1378.39 517.273 1377.78 521.032 1375.49 523.483C1374.6 528.666 1368.43 531.892 1363.44 532.897C1358.25 533.985 1353.29 533.263 1348.33 532.036C1343.98 530.013 1340.29 527.184 1339.46 522.133C1335.94 517.087 1336.88 507.833 1337.08 502.176L1337.08 502.175Z" fill="#FFF5FB"/>
</g>
</g>
<defs>
<clipPath id="clip0_1_2">
<rect width="1440" height="1024" fill="white"/>
</clipPath>
<clipPath id="clip1_1_2">
<rect width="199" height="205" fill="white" transform="translate(-36.4 7.39999) rotate(-17)"/>
</clipPath>
<clipPath id="clip2_1_2">
<rect width="199" height="205" fill="white" transform="translate(252 291.182) rotate(-17)"/>
</clipPath>
<clipPath id="clip3_1_2">
<rect width="199" height="205" fill="white" transform="translate(252 881.182) rotate(-17)"/>
</clipPath>
<clipPath id="clip4_1_2">
<rect width="199" height="205" fill="white" transform="translate(456.7 -15.1) rotate(-17)"/>
</clipPath>
<clipPath id="clip5_1_2">
<rect width="199" height="205" fill="white" transform="translate(576 583.182) rotate(-17)"/>
</clipPath>
<clipPath id="clip6_1_2">
<rect width="199" height="205" fill="white" transform="translate(842 223.182) rotate(-17)"/>
</clipPath>
<clipPath id="clip7_1_2">
<rect width="199" height="205" fill="white" transform="translate(997 856.182) rotate(-17)"/>
</clipPath>
<clipPath id="clip8_1_2">
<rect width="199" height="205" fill="white" transform="translate(1250 2.18198) rotate(-17)"/>
</clipPath>
<clipPath id="clip9_1_2">
<rect width="199" height="205" fill="white" transform="translate(-74.4 512.8) rotate(-17)"/>
</clipPath>
<clipPath id="clip10_1_2">
<rect width="199" height="205" fill="white" transform="translate(1170 460.182) rotate(-17)"/>
</clipPath>
</defs>
</svg>
