<svg xmlns="http://www.w3.org/2000/svg" xmlns:xlink="http://www.w3.org/1999/xlink" width="1280" zoomAndPan="magnify" viewBox="0 0 960 959.999988" height="1280" preserveAspectRatio="xMidYMid meet" version="1.0"><defs><clipPath id="9f24cb2178"><path d="M 5.417969 72 L 954.917969 72 L 954.917969 892.863281 L 5.417969 892.863281 Z M 5.417969 72 " clip-rule="nonzero"/></clipPath><clipPath id="69b3bddccd"><path d="M 5.417969 72 L 954.917969 72 L 954.917969 892.863281 L 5.417969 892.863281 Z M 5.417969 72 " clip-rule="nonzero"/></clipPath></defs><path fill="#ffffff" d="M 12.382812 603.96875 C 12.382812 750.585938 144.820312 886.023438 480.1875 886.023438 C 559.644531 886.023438 627.703125 878.421875 685.320312 864.863281 C 870.871094 821.214844 947.992188 715.851562 947.992188 603.960938 C 947.992188 575.320312 944.257812 547.304688 938.125 520.609375 C 923.25 455.890625 894.238281 398.878906 869.902344 359.167969 C 847.621094 322.8125 829.265625 300.941406 829.265625 300.941406 C 829.964844 178.070312 779.679688 87.308594 760.121094 80.328125 C 723.089844 67.109375 636.5 174.226562 636.5 174.226562 C 636.5 174.226562 598.179688 163.777344 545.390625 158.03125 C 523.722656 155.632812 501.988281 154.410156 480.1875 154.359375 C 396.859375 154.359375 323.875 174.253906 323.875 174.253906 C 323.875 174.253906 237.285156 67.128906 200.253906 80.355469 C 180.695312 87.335938 130.429688 178.09375 131.105469 300.964844 C 131.105469 300.964844 12.382812 442.347656 12.382812 603.96875 Z M 12.382812 603.96875 " fill-opacity="1" fill-rule="nonzero"/><g clip-path="url(#9f24cb2178)"><path fill="#000000" d="M 480.1875 892.859375 C 399.101562 892.859375 326.351562 884.898438 263.941406 869.199219 C 205.859375 854.589844 156.296875 833.1875 116.617188 805.589844 C 79.492188 779.769531 51.113281 748.652344 32.273438 713.09375 C 14.539062 679.628906 5.542969 642.921875 5.542969 603.96875 C 5.542969 566.421875 11.890625 526.871094 24.398438 486.421875 C 34.375 454.171875 48.277344 421.273438 65.714844 388.628906 C 91.824219 339.761719 117.617188 306.746094 124.261719 298.523438 C 124.238281 230.6875 139.125 177.535156 151.699219 144.742188 C 166.367188 106.511719 184.523438 78.707031 197.957031 73.910156 C 216.199219 67.398438 243.261719 81.625 280.679688 117.40625 C 301.777344 137.582031 319.679688 158.507812 326.390625 166.554688 C 343.402344 162.34375 408.378906 147.519531 480.1875 147.519531 C 502.230469 147.574219 524.207031 148.816406 546.113281 151.25 C 589.300781 155.949219 622.507812 163.652344 633.992188 166.53125 C 640.714844 158.472656 658.605469 137.558594 679.695312 117.390625 C 717.113281 81.613281 744.171875 67.375 762.421875 73.902344 C 775.863281 78.695312 794.011719 106.5 808.675781 144.738281 C 821.253906 177.53125 836.136719 230.683594 836.113281 298.519531 C 841.101562 304.691406 856.960938 324.960938 875.734375 355.59375 C 898.714844 393.085938 929.347656 451.890625 944.789062 519.078125 C 951.453125 548.042969 954.832031 576.597656 954.832031 603.960938 C 954.832031 664.246094 932.84375 719.808594 891.253906 764.640625 C 844.953125 814.546875 776.199219 850.488281 686.886719 871.507812 C 626.707031 885.679688 557.164062 892.859375 480.1875 892.859375 Z M 207.046875 86.101562 C 205.515625 86.074219 204.019531 86.304688 202.566406 86.789062 C 196.035156 89.121094 179.417969 110.710938 164.480469 149.648438 C 147.082031 195.015625 137.660156 248.742188 137.96875 300.929688 L 137.96875 303.441406 L 136.351562 305.363281 C 136.0625 305.714844 106.640625 341.007812 77.628906 395.371094 C 50.980469 445.296875 19.21875 522.011719 19.21875 603.96875 C 19.21875 680.660156 55.597656 746.492188 124.425781 794.367188 C 205.347656 850.648438 325.042969 879.183594 480.1875 879.183594 C 556.105469 879.183594 624.59375 872.132812 683.753906 858.210938 C 847.335938 819.730469 941.152344 727.066406 941.152344 603.96875 C 941.152344 577.640625 937.894531 550.113281 931.445312 522.152344 C 916.414062 456.753906 886.503906 399.351562 864.054688 362.746094 C 842.34375 327.316406 824.195312 305.574219 824.011719 305.363281 L 822.398438 303.441406 L 822.398438 300.929688 C 822.695312 248.742188 813.273438 195.015625 795.886719 149.648438 C 780.953125 110.710938 764.335938 89.121094 757.800781 86.792969 C 752.035156 84.734375 733.8125 84.554688 689.132812 127.285156 C 663.46875 151.824219 642.011719 178.285156 641.800781 178.550781 L 638.992188 182.023438 L 634.683594 180.847656 C 634.308594 180.746094 596.222656 170.472656 544.613281 164.855469 C 523.199219 162.476562 501.714844 161.257812 480.167969 161.199219 C 398.769531 161.199219 326.375 180.652344 325.65625 180.847656 L 321.347656 182.023438 L 318.539062 178.550781 C 318.324219 178.285156 296.792969 151.738281 271.117188 127.203125 C 234.679688 92.355469 215.851562 86.101562 207.046875 86.101562 Z M 207.046875 86.101562 " fill-opacity="1" fill-rule="nonzero"/></g><path fill="#ff8533" d="M 685.320312 864.863281 C 870.871094 821.214844 947.992188 715.851562 947.992188 603.960938 C 947.992188 575.320312 944.257812 547.304688 938.125 520.609375 C 909.035156 525.453125 881.097656 534.035156 854.308594 546.363281 C 720.230469 607.882812 649.539062 745.515625 685.320312 864.863281 Z M 685.320312 864.863281 " fill-opacity="1" fill-rule="nonzero"/><path fill="#ff8533" d="M 356.566406 334.957031 C 285.125 406.378906 173.550781 414.125 90.171875 359.179688 C 112.453125 322.824219 130.808594 300.96875 130.808594 300.96875 C 130.109375 178.097656 180.394531 87.34375 199.953125 80.355469 C 236.984375 67.132812 323.574219 174.253906 323.574219 174.253906 C 323.574219 174.253906 361.894531 163.804688 414.683594 158.058594 C 423.683594 221.34375 404.390625 287.148438 356.566406 334.957031 Z M 356.566406 334.957031 " fill-opacity="1" fill-rule="nonzero"/><path fill="#ffb0c7" d="M 750.019531 179.300781 C 758.078125 196.003906 773.03125 232.800781 772.976562 275.683594 C 772.976562 287.179688 759.738281 293.621094 750.613281 286.617188 C 732.253906 272.535156 703.195312 253.554688 671.390625 245.523438 C 661.742188 243.085938 657.660156 231.625 663.679688 223.699219 C 676.792969 206.433594 700.476562 181.859375 734.253906 172.191406 C 735.007812 171.976562 735.777344 171.828125 736.558594 171.75 C 737.339844 171.667969 738.121094 171.65625 738.902344 171.714844 C 739.6875 171.773438 740.460938 171.898438 741.21875 172.089844 C 741.980469 172.285156 742.71875 172.542969 743.4375 172.867188 C 744.152344 173.1875 744.832031 173.570312 745.484375 174.011719 C 746.132812 174.457031 746.738281 174.953125 747.296875 175.5 C 747.859375 176.050781 748.367188 176.644531 748.824219 177.28125 C 749.285156 177.917969 749.679688 178.59375 750.019531 179.300781 Z M 750.019531 179.300781 " fill-opacity="1" fill-rule="nonzero"/><path fill="#ffb0c7" d="M 210.355469 179.300781 C 202.300781 196.003906 187.34375 232.800781 187.402344 275.683594 C 187.402344 287.179688 200.636719 293.621094 209.761719 286.617188 C 228.121094 272.535156 257.183594 253.554688 288.984375 245.523438 C 298.632812 243.085938 302.714844 231.625 296.695312 223.699219 C 283.582031 206.433594 259.902344 181.859375 226.125 172.191406 C 225.367188 171.976562 224.601562 171.828125 223.820312 171.75 C 223.039062 171.667969 222.253906 171.660156 221.472656 171.714844 C 220.691406 171.773438 219.917969 171.898438 219.15625 172.09375 C 218.394531 172.285156 217.65625 172.542969 216.941406 172.867188 C 216.226562 173.1875 215.542969 173.570312 214.894531 174.015625 C 214.246094 174.457031 213.640625 174.953125 213.078125 175.5 C 212.515625 176.050781 212.007812 176.644531 211.550781 177.28125 C 211.09375 177.917969 210.695312 178.59375 210.355469 179.300781 Z M 210.355469 179.300781 " fill-opacity="1" fill-rule="nonzero"/><path fill="#000000" d="M 503.695312 603.878906 C 503.695312 604.65625 503.660156 605.429688 503.582031 606.199219 C 503.507812 606.96875 503.394531 607.734375 503.242188 608.496094 C 503.089844 609.253906 502.902344 610.003906 502.679688 610.746094 C 502.453125 611.488281 502.191406 612.214844 501.894531 612.929688 C 501.601562 613.644531 501.269531 614.347656 500.902344 615.027344 C 500.539062 615.710938 500.140625 616.375 499.710938 617.019531 C 499.28125 617.664062 498.820312 618.285156 498.328125 618.882812 C 497.835938 619.480469 497.316406 620.054688 496.769531 620.601562 C 496.21875 621.152344 495.644531 621.671875 495.046875 622.160156 C 494.449219 622.652344 493.828125 623.113281 493.183594 623.542969 C 492.539062 623.976562 491.875 624.371094 491.191406 624.738281 C 490.507812 625.101562 489.808594 625.433594 489.09375 625.730469 C 488.375 626.027344 487.648438 626.285156 486.90625 626.511719 C 486.164062 626.738281 485.414062 626.925781 484.652344 627.074219 C 483.894531 627.226562 483.128906 627.339844 482.359375 627.417969 C 481.585938 627.492188 480.8125 627.53125 480.039062 627.53125 C 479.265625 627.53125 478.492188 627.492188 477.71875 627.417969 C 476.949219 627.339844 476.183594 627.226562 475.421875 627.074219 C 474.664062 626.925781 473.914062 626.738281 473.171875 626.511719 C 472.429688 626.285156 471.699219 626.027344 470.984375 625.730469 C 470.269531 625.433594 469.570312 625.101562 468.886719 624.738281 C 468.203125 624.371094 467.539062 623.976562 466.894531 623.542969 C 466.25 623.113281 465.628906 622.652344 465.03125 622.160156 C 464.429688 621.671875 463.859375 621.152344 463.308594 620.601562 C 462.761719 620.054688 462.242188 619.480469 461.75 618.882812 C 461.257812 618.285156 460.796875 617.664062 460.367188 617.019531 C 459.9375 616.375 459.539062 615.710938 459.175781 615.027344 C 458.808594 614.347656 458.476562 613.644531 458.179688 612.929688 C 457.886719 612.214844 457.625 611.488281 457.398438 610.746094 C 457.175781 610.003906 456.988281 609.253906 456.835938 608.496094 C 456.683594 607.734375 456.570312 606.96875 456.496094 606.199219 C 456.417969 605.429688 456.378906 604.65625 456.378906 603.878906 C 456.378906 603.105469 456.417969 602.332031 456.496094 601.5625 C 456.570312 600.792969 456.683594 600.027344 456.835938 599.265625 C 456.988281 598.507812 457.175781 597.757812 457.398438 597.015625 C 457.625 596.273438 457.886719 595.546875 458.179688 594.832031 C 458.476562 594.113281 458.808594 593.414062 459.175781 592.730469 C 459.539062 592.050781 459.9375 591.386719 460.367188 590.742188 C 460.796875 590.097656 461.257812 589.476562 461.75 588.878906 C 462.242188 588.277344 462.761719 587.707031 463.308594 587.15625 C 463.859375 586.609375 464.429688 586.089844 465.03125 585.597656 C 465.628906 585.109375 466.25 584.648438 466.894531 584.21875 C 467.539062 583.785156 468.203125 583.390625 468.886719 583.023438 C 469.570312 582.660156 470.269531 582.328125 470.984375 582.03125 C 471.699219 581.734375 472.429688 581.472656 473.171875 581.25 C 473.914062 581.023438 474.664062 580.835938 475.421875 580.6875 C 476.183594 580.535156 476.949219 580.421875 477.71875 580.34375 C 478.492188 580.269531 479.265625 580.230469 480.039062 580.230469 C 480.8125 580.230469 481.585938 580.269531 482.359375 580.34375 C 483.128906 580.421875 483.894531 580.535156 484.652344 580.6875 C 485.414062 580.835938 486.164062 581.023438 486.90625 581.25 C 487.648438 581.472656 488.375 581.734375 489.09375 582.03125 C 489.808594 582.328125 490.507812 582.660156 491.191406 583.023438 C 491.875 583.390625 492.539062 583.785156 493.183594 584.21875 C 493.828125 584.648438 494.449219 585.109375 495.046875 585.597656 C 495.644531 586.089844 496.21875 586.609375 496.769531 587.15625 C 497.316406 587.707031 497.835938 588.277344 498.328125 588.878906 C 498.820312 589.476562 499.28125 590.097656 499.710938 590.742188 C 500.140625 591.386719 500.539062 592.050781 500.902344 592.730469 C 501.269531 593.414062 501.601562 594.113281 501.894531 594.832031 C 502.191406 595.546875 502.453125 596.273438 502.679688 597.015625 C 502.902344 597.757812 503.089844 598.507812 503.242188 599.265625 C 503.394531 600.027344 503.507812 600.792969 503.582031 601.5625 C 503.660156 602.332031 503.695312 603.105469 503.695312 603.878906 Z M 503.695312 603.878906 " fill-opacity="1" fill-rule="nonzero"/><path fill="#000000" d="M 515.59375 647.601562 C 500.9375 647.601562 487.269531 640.222656 474.964844 625.667969 C 474.675781 625.324219 474.417969 624.957031 474.203125 624.5625 C 473.984375 624.171875 473.808594 623.757812 473.667969 623.332031 C 473.53125 622.902344 473.4375 622.464844 473.386719 622.019531 C 473.335938 621.574219 473.332031 621.125 473.367188 620.679688 C 473.40625 620.230469 473.488281 619.789062 473.613281 619.359375 C 473.734375 618.925781 473.902344 618.511719 474.105469 618.113281 C 474.3125 617.710938 474.558594 617.335938 474.835938 616.984375 C 475.117188 616.632812 475.429688 616.3125 475.773438 616.023438 C 476.117188 615.734375 476.484375 615.480469 476.878906 615.261719 C 477.273438 615.046875 477.683594 614.867188 478.109375 614.730469 C 478.539062 614.597656 478.976562 614.503906 479.425781 614.453125 C 479.871094 614.402344 480.316406 614.394531 480.765625 614.433594 C 481.214844 614.472656 481.652344 614.554688 482.085938 614.679688 C 482.519531 614.804688 482.933594 614.96875 483.332031 615.175781 C 483.730469 615.382812 484.105469 615.625 484.457031 615.90625 C 484.808594 616.1875 485.128906 616.5 485.417969 616.84375 C 495.078125 628.269531 505.324219 633.996094 515.851562 633.925781 C 533.90625 633.777344 547.742188 617.097656 547.878906 616.929688 C 548.167969 616.589844 548.484375 616.28125 548.832031 616.003906 C 549.179688 615.722656 549.546875 615.480469 549.941406 615.277344 C 550.335938 615.070312 550.746094 614.90625 551.175781 614.777344 C 551.601562 614.652344 552.035156 614.570312 552.476562 614.527344 C 552.921875 614.488281 553.363281 614.488281 553.804688 614.535156 C 554.25 614.578125 554.683594 614.667969 555.109375 614.796875 C 555.53125 614.925781 555.941406 615.09375 556.335938 615.304688 C 556.726562 615.515625 557.09375 615.761719 557.4375 616.042969 C 557.785156 616.324219 558.097656 616.632812 558.382812 616.976562 C 558.664062 617.320312 558.914062 617.6875 559.125 618.078125 C 559.335938 618.46875 559.507812 618.875 559.640625 619.300781 C 559.773438 619.722656 559.863281 620.15625 559.910156 620.597656 C 559.960938 621.042969 559.964844 621.484375 559.925781 621.925781 C 559.886719 622.371094 559.808594 622.804688 559.683594 623.230469 C 559.558594 623.660156 559.398438 624.070312 559.191406 624.464844 C 558.988281 624.859375 558.75 625.234375 558.472656 625.582031 C 557.726562 626.46875 540.363281 647.394531 515.964844 647.605469 Z M 515.59375 647.601562 " fill-opacity="1" fill-rule="nonzero"/><path fill="#000000" d="M 442.613281 647.601562 C 427.957031 647.601562 414.292969 640.222656 401.984375 625.667969 C 401.695312 625.324219 401.441406 624.957031 401.222656 624.5625 C 401.007812 624.171875 400.828125 623.757812 400.695312 623.332031 C 400.558594 622.902344 400.464844 622.46875 400.414062 622.019531 C 400.363281 621.574219 400.355469 621.128906 400.394531 620.679688 C 400.433594 620.234375 400.515625 619.792969 400.636719 619.363281 C 400.761719 618.929688 400.929688 618.515625 401.132812 618.117188 C 401.339844 617.71875 401.582031 617.34375 401.863281 616.992188 C 402.144531 616.640625 402.457031 616.320312 402.796875 616.03125 C 403.140625 615.742188 403.511719 615.488281 403.902344 615.269531 C 404.296875 615.050781 404.707031 614.875 405.136719 614.738281 C 405.5625 614.601562 406 614.511719 406.445312 614.460938 C 406.894531 614.410156 407.339844 614.402344 407.789062 614.441406 C 408.234375 614.480469 408.675781 614.558594 409.105469 614.683594 C 409.539062 614.808594 409.953125 614.972656 410.351562 615.179688 C 410.75 615.386719 411.128906 615.628906 411.476562 615.910156 C 411.828125 616.1875 412.148438 616.5 412.441406 616.84375 C 422.097656 628.269531 432.351562 633.996094 442.871094 633.925781 C 460.925781 633.777344 474.761719 617.097656 474.902344 616.929688 C 475.1875 616.589844 475.503906 616.28125 475.851562 616.003906 C 476.199219 615.722656 476.570312 615.484375 476.964844 615.277344 C 477.355469 615.070312 477.769531 614.90625 478.195312 614.777344 C 478.621094 614.652344 479.054688 614.570312 479.5 614.527344 C 479.941406 614.488281 480.382812 614.488281 480.824219 614.535156 C 481.269531 614.578125 481.703125 614.667969 482.128906 614.796875 C 482.554688 614.925781 482.960938 615.097656 483.355469 615.304688 C 483.746094 615.515625 484.113281 615.761719 484.457031 616.042969 C 484.804688 616.324219 485.117188 616.636719 485.402344 616.976562 C 485.683594 617.320312 485.933594 617.6875 486.144531 618.078125 C 486.355469 618.46875 486.527344 618.875 486.660156 619.300781 C 486.792969 619.726562 486.882812 620.15625 486.929688 620.601562 C 486.980469 621.042969 486.984375 621.484375 486.945312 621.925781 C 486.90625 622.371094 486.828125 622.804688 486.703125 623.230469 C 486.582031 623.660156 486.417969 624.070312 486.214844 624.464844 C 486.011719 624.859375 485.769531 625.234375 485.496094 625.582031 C 484.746094 626.46875 467.382812 647.394531 442.988281 647.605469 Z M 442.613281 647.601562 " fill-opacity="1" fill-rule="nonzero"/><path fill="#000000" d="M 768.03125 594.394531 C 767.617188 594.402344 767.207031 594.367188 766.800781 594.300781 C 766.394531 594.230469 765.996094 594.125 765.609375 593.984375 C 765.222656 593.839844 764.847656 593.667969 764.492188 593.457031 C 764.136719 593.25 763.800781 593.011719 763.488281 592.742188 C 763.175781 592.472656 762.890625 592.175781 762.632812 591.855469 C 762.371094 591.535156 762.144531 591.191406 761.945312 590.832031 C 761.75 590.46875 761.585938 590.09375 761.457031 589.699219 C 761.328125 589.308594 761.234375 588.90625 761.175781 588.5 C 761.121094 588.089844 761.101562 587.679688 761.117188 587.269531 C 761.136719 586.855469 761.191406 586.449219 761.28125 586.046875 C 761.375 585.644531 761.5 585.253906 761.660156 584.875 C 761.824219 584.496094 762.019531 584.132812 762.246094 583.789062 C 762.472656 583.445312 762.730469 583.125 763.015625 582.824219 C 763.300781 582.527344 763.613281 582.257812 763.945312 582.015625 C 764.28125 581.773438 764.632812 581.566406 765.007812 581.386719 C 765.378906 581.210938 765.765625 581.066406 766.164062 580.960938 L 862.542969 553.753906 C 862.972656 553.628906 863.414062 553.550781 863.863281 553.515625 C 864.308594 553.480469 864.753906 553.488281 865.199219 553.542969 C 865.648438 553.59375 866.082031 553.691406 866.511719 553.828125 C 866.9375 553.96875 867.347656 554.144531 867.738281 554.363281 C 868.128906 554.582031 868.496094 554.839844 868.835938 555.128906 C 869.179688 555.421875 869.488281 555.742188 869.769531 556.09375 C 870.046875 556.445312 870.285156 556.820312 870.492188 557.222656 C 870.695312 557.621094 870.859375 558.035156 870.980469 558.46875 C 871.105469 558.898438 871.183594 559.339844 871.21875 559.785156 C 871.253906 560.234375 871.246094 560.679688 871.195312 561.125 C 871.144531 561.570312 871.046875 562.007812 870.910156 562.433594 C 870.773438 562.859375 870.59375 563.269531 870.375 563.660156 C 870.15625 564.054688 869.902344 564.421875 869.613281 564.761719 C 869.320312 565.105469 869 565.414062 868.648438 565.691406 C 868.296875 565.972656 867.921875 566.214844 867.523438 566.417969 C 867.125 566.621094 866.707031 566.785156 866.277344 566.910156 L 769.894531 594.136719 C 769.285156 594.308594 768.664062 594.394531 768.03125 594.394531 Z M 768.03125 594.394531 " fill-opacity="1" fill-rule="nonzero"/><path fill="#000000" d="M 865.609375 651.054688 C 865.222656 651.058594 864.839844 651.023438 864.460938 650.960938 L 765.703125 634.269531 C 765.265625 634.1875 764.84375 634.066406 764.429688 633.898438 C 764.019531 633.734375 763.628906 633.53125 763.253906 633.292969 C 762.882812 633.050781 762.539062 632.777344 762.21875 632.46875 C 761.898438 632.160156 761.613281 631.824219 761.359375 631.460938 C 761.105469 631.09375 760.890625 630.710938 760.710938 630.304688 C 760.535156 629.898438 760.394531 629.480469 760.296875 629.046875 C 760.203125 628.613281 760.148438 628.175781 760.136719 627.730469 C 760.125 627.289062 760.15625 626.847656 760.230469 626.410156 C 760.304688 625.972656 760.417969 625.546875 760.574219 625.132812 C 760.730469 624.71875 760.925781 624.324219 761.160156 623.945312 C 761.394531 623.570312 761.664062 623.21875 761.964844 622.894531 C 762.269531 622.570312 762.597656 622.277344 762.957031 622.015625 C 763.316406 621.757812 763.699219 621.53125 764.101562 621.347656 C 764.503906 621.160156 764.917969 621.015625 765.351562 620.910156 C 765.78125 620.804688 766.21875 620.742188 766.660156 620.722656 C 767.105469 620.699219 767.546875 620.722656 767.984375 620.789062 L 866.738281 637.476562 C 867.15625 637.546875 867.566406 637.65625 867.964844 637.804688 C 868.363281 637.953125 868.742188 638.132812 869.105469 638.351562 C 869.472656 638.570312 869.8125 638.820312 870.128906 639.101562 C 870.445312 639.382812 870.734375 639.691406 870.996094 640.027344 C 871.253906 640.359375 871.484375 640.71875 871.675781 641.09375 C 871.871094 641.472656 872.027344 641.863281 872.148438 642.269531 C 872.269531 642.675781 872.351562 643.089844 872.394531 643.511719 C 872.4375 643.933594 872.445312 644.359375 872.410156 644.78125 C 872.375 645.203125 872.300781 645.617188 872.1875 646.027344 C 872.074219 646.4375 871.925781 646.832031 871.742188 647.214844 C 871.554688 647.59375 871.335938 647.957031 871.082031 648.296875 C 870.828125 648.636719 870.546875 648.949219 870.234375 649.238281 C 869.925781 649.527344 869.589844 649.785156 869.230469 650.007812 C 868.871094 650.234375 868.492188 650.425781 868.097656 650.582031 C 867.703125 650.734375 867.296875 650.855469 866.878906 650.933594 C 866.464844 651.011719 866.042969 651.054688 865.621094 651.054688 Z M 865.609375 651.054688 " fill-opacity="1" fill-rule="nonzero"/><path fill="#000000" d="M 192.046875 594.394531 C 191.414062 594.394531 190.792969 594.308594 190.179688 594.136719 L 93.800781 566.910156 C 93.367188 566.789062 92.953125 566.625 92.550781 566.421875 C 92.152344 566.214844 91.773438 565.976562 91.421875 565.695312 C 91.070312 565.417969 90.746094 565.109375 90.453125 564.765625 C 90.164062 564.425781 89.90625 564.058594 89.6875 563.664062 C 89.46875 563.273438 89.289062 562.863281 89.152344 562.433594 C 89.011719 562.007812 88.917969 561.570312 88.863281 561.125 C 88.8125 560.679688 88.804688 560.230469 88.839844 559.78125 C 88.875 559.335938 88.957031 558.894531 89.078125 558.460938 C 89.199219 558.03125 89.363281 557.613281 89.570312 557.214844 C 89.773438 556.8125 90.015625 556.4375 90.292969 556.085938 C 90.574219 555.734375 90.882812 555.410156 91.226562 555.121094 C 91.570312 554.828125 91.9375 554.574219 92.328125 554.355469 C 92.722656 554.136719 93.132812 553.957031 93.5625 553.820312 C 93.988281 553.683594 94.425781 553.585938 94.871094 553.535156 C 95.320312 553.484375 95.765625 553.476562 96.214844 553.511719 C 96.664062 553.550781 97.101562 553.628906 97.535156 553.753906 L 193.914062 580.976562 C 194.3125 581.085938 194.699219 581.230469 195.070312 581.40625 C 195.445312 581.585938 195.796875 581.792969 196.132812 582.035156 C 196.464844 582.277344 196.777344 582.546875 197.0625 582.84375 C 197.347656 583.140625 197.605469 583.464844 197.832031 583.808594 C 198.058594 584.152344 198.253906 584.511719 198.414062 584.894531 C 198.578125 585.273438 198.703125 585.664062 198.796875 586.066406 C 198.886719 586.46875 198.941406 586.875 198.957031 587.285156 C 198.976562 587.699219 198.957031 588.109375 198.898438 588.519531 C 198.84375 588.925781 198.75 589.328125 198.621094 589.71875 C 198.492188 590.109375 198.328125 590.488281 198.132812 590.851562 C 197.933594 591.210938 197.707031 591.554688 197.445312 591.875 C 197.1875 592.195312 196.902344 592.488281 196.585938 592.757812 C 196.273438 593.027344 195.941406 593.265625 195.585938 593.476562 C 195.230469 593.683594 194.855469 593.859375 194.46875 594 C 194.082031 594.140625 193.683594 594.246094 193.277344 594.316406 C 192.871094 594.386719 192.460938 594.417969 192.046875 594.414062 Z M 192.046875 594.394531 " fill-opacity="1" fill-rule="nonzero"/><path fill="#000000" d="M 94.472656 651.054688 C 94.050781 651.054688 93.628906 651.011719 93.210938 650.933594 C 92.796875 650.855469 92.390625 650.734375 91.996094 650.582031 C 91.601562 650.425781 91.222656 650.234375 90.863281 650.007812 C 90.503906 649.785156 90.167969 649.527344 89.855469 649.238281 C 89.546875 648.949219 89.261719 648.636719 89.011719 648.296875 C 88.757812 647.957031 88.539062 647.59375 88.351562 647.214844 C 88.167969 646.832031 88.015625 646.4375 87.90625 646.027344 C 87.792969 645.617188 87.71875 645.203125 87.683594 644.78125 C 87.648438 644.359375 87.652344 643.933594 87.695312 643.511719 C 87.742188 643.089844 87.824219 642.675781 87.945312 642.269531 C 88.066406 641.863281 88.222656 641.472656 88.417969 641.09375 C 88.609375 640.71875 88.835938 640.359375 89.097656 640.027344 C 89.355469 639.691406 89.644531 639.382812 89.964844 639.101562 C 90.28125 638.820312 90.621094 638.570312 90.984375 638.351562 C 91.351562 638.132812 91.730469 637.953125 92.128906 637.804688 C 92.527344 637.65625 92.933594 637.546875 93.351562 637.476562 L 192.109375 620.789062 C 192.554688 620.703125 193.007812 620.664062 193.460938 620.667969 C 193.917969 620.671875 194.367188 620.722656 194.8125 620.816406 C 195.257812 620.910156 195.691406 621.050781 196.109375 621.230469 C 196.527344 621.410156 196.921875 621.628906 197.296875 621.890625 C 197.667969 622.148438 198.015625 622.445312 198.328125 622.773438 C 198.644531 623.101562 198.925781 623.457031 199.167969 623.84375 C 199.414062 624.226562 199.617188 624.632812 199.777344 625.054688 C 199.941406 625.480469 200.0625 625.917969 200.136719 626.367188 C 200.214844 626.816406 200.242188 627.269531 200.230469 627.722656 C 200.214844 628.175781 200.15625 628.625 200.050781 629.070312 C 199.945312 629.511719 199.800781 629.941406 199.609375 630.355469 C 199.421875 630.769531 199.191406 631.160156 198.925781 631.527344 C 198.65625 631.894531 198.355469 632.234375 198.019531 632.542969 C 197.683594 632.851562 197.320312 633.121094 196.933594 633.355469 C 196.542969 633.59375 196.132812 633.789062 195.703125 633.941406 C 195.277344 634.09375 194.835938 634.203125 194.386719 634.269531 L 95.617188 650.960938 C 95.238281 651.023438 94.855469 651.058594 94.472656 651.054688 Z M 94.472656 651.054688 " fill-opacity="1" fill-rule="nonzero"/><path fill="#000000" d="M 694.898438 580.234375 C 694.898438 581.699219 694.828125 583.160156 694.683594 584.613281 C 694.542969 586.070312 694.328125 587.515625 694.042969 588.953125 C 693.753906 590.386719 693.402344 591.804688 692.976562 593.207031 C 692.550781 594.605469 692.058594 595.980469 691.496094 597.335938 C 690.9375 598.6875 690.3125 600.007812 689.621094 601.296875 C 688.933594 602.589844 688.179688 603.84375 687.367188 605.058594 C 686.554688 606.277344 685.683594 607.449219 684.753906 608.582031 C 683.824219 609.710938 682.84375 610.796875 681.808594 611.832031 C 680.773438 612.863281 679.691406 613.847656 678.558594 614.773438 C 677.425781 615.703125 676.253906 616.574219 675.035156 617.386719 C 673.816406 618.199219 672.5625 618.953125 671.273438 619.640625 C 669.980469 620.332031 668.660156 620.957031 667.308594 621.515625 C 665.953125 622.074219 664.578125 622.570312 663.175781 622.992188 C 661.777344 623.417969 660.359375 623.773438 658.921875 624.058594 C 657.484375 624.34375 656.039062 624.558594 654.582031 624.703125 C 653.125 624.84375 651.664062 624.917969 650.203125 624.917969 C 648.738281 624.917969 647.277344 624.84375 645.820312 624.703125 C 644.363281 624.558594 642.917969 624.34375 641.480469 624.058594 C 640.046875 623.773438 638.628906 623.417969 637.226562 622.992188 C 635.824219 622.570312 634.449219 622.074219 633.097656 621.515625 C 631.742188 620.957031 630.421875 620.332031 629.128906 619.640625 C 627.839844 618.953125 626.585938 618.199219 625.367188 617.386719 C 624.152344 616.574219 622.976562 615.703125 621.84375 614.773438 C 620.714844 613.847656 619.628906 612.863281 618.59375 611.832031 C 617.558594 610.796875 616.578125 609.710938 615.648438 608.582031 C 614.71875 607.449219 613.847656 606.277344 613.035156 605.058594 C 612.222656 603.84375 611.472656 602.589844 610.78125 601.296875 C 610.089844 600.007812 609.464844 598.6875 608.90625 597.335938 C 608.34375 595.980469 607.851562 594.605469 607.425781 593.207031 C 607.003906 591.804688 606.648438 590.386719 606.363281 588.953125 C 606.074219 587.515625 605.863281 586.070312 605.71875 584.613281 C 605.574219 583.160156 605.503906 581.699219 605.503906 580.234375 C 605.503906 578.773438 605.574219 577.3125 605.71875 575.855469 C 605.863281 574.398438 606.074219 572.953125 606.363281 571.519531 C 606.648438 570.082031 607.003906 568.664062 607.425781 567.265625 C 607.851562 565.863281 608.34375 564.488281 608.90625 563.136719 C 609.464844 561.785156 610.089844 560.460938 610.78125 559.171875 C 611.472656 557.882812 612.222656 556.628906 613.035156 555.410156 C 613.847656 554.195312 614.71875 553.019531 615.648438 551.890625 C 616.578125 550.757812 617.558594 549.675781 618.59375 548.640625 C 619.628906 547.605469 620.714844 546.625 621.84375 545.695312 C 622.976562 544.765625 624.152344 543.894531 625.367188 543.082031 C 626.585938 542.269531 627.839844 541.519531 629.128906 540.828125 C 630.421875 540.140625 631.742188 539.515625 633.097656 538.953125 C 634.449219 538.394531 635.824219 537.902344 637.226562 537.476562 C 638.628906 537.050781 640.046875 536.695312 641.480469 536.410156 C 642.917969 536.125 644.363281 535.910156 645.820312 535.769531 C 647.277344 535.625 648.738281 535.554688 650.203125 535.554688 C 651.664062 535.554688 653.125 535.625 654.582031 535.769531 C 656.039062 535.910156 657.484375 536.125 658.921875 536.410156 C 660.359375 536.695312 661.777344 537.050781 663.175781 537.476562 C 664.578125 537.902344 665.953125 538.394531 667.308594 538.953125 C 668.660156 539.515625 669.980469 540.140625 671.273438 540.828125 C 672.5625 541.519531 673.816406 542.269531 675.035156 543.082031 C 676.253906 543.894531 677.425781 544.765625 678.558594 545.695312 C 679.691406 546.625 680.773438 547.605469 681.808594 548.640625 C 682.84375 549.675781 683.824219 550.757812 684.753906 551.890625 C 685.683594 553.019531 686.554688 554.195312 687.367188 555.410156 C 688.179688 556.628906 688.933594 557.882812 689.621094 559.171875 C 690.3125 560.460938 690.9375 561.785156 691.496094 563.136719 C 692.058594 564.488281 692.550781 565.863281 692.976562 567.265625 C 693.402344 568.664062 693.753906 570.082031 694.042969 571.519531 C 694.328125 572.953125 694.542969 574.398438 694.683594 575.855469 C 694.828125 577.3125 694.898438 578.773438 694.898438 580.234375 Z M 694.898438 580.234375 " fill-opacity="1" fill-rule="nonzero"/><path fill="#000000" d="M 354.570312 580.234375 C 354.570312 581.699219 354.5 583.160156 354.355469 584.613281 C 354.210938 586.070312 354 587.515625 353.710938 588.953125 C 353.425781 590.386719 353.070312 591.804688 352.648438 593.207031 C 352.222656 594.605469 351.730469 595.980469 351.167969 597.335938 C 350.609375 598.6875 349.984375 600.007812 349.292969 601.296875 C 348.601562 602.589844 347.851562 603.84375 347.039062 605.058594 C 346.226562 606.277344 345.355469 607.449219 344.425781 608.582031 C 343.496094 609.710938 342.515625 610.796875 341.480469 611.832031 C 340.445312 612.863281 339.359375 613.847656 338.230469 614.773438 C 337.097656 615.703125 335.921875 616.574219 334.707031 617.386719 C 333.488281 618.199219 332.234375 618.953125 330.941406 619.640625 C 329.652344 620.332031 328.332031 620.957031 326.976562 621.515625 C 325.625 622.074219 324.25 622.570312 322.847656 622.992188 C 321.445312 623.417969 320.027344 623.773438 318.59375 624.058594 C 317.15625 624.34375 315.710938 624.558594 314.253906 624.703125 C 312.796875 624.84375 311.335938 624.917969 309.871094 624.917969 C 308.410156 624.917969 306.949219 624.84375 305.492188 624.703125 C 304.035156 624.558594 302.589844 624.34375 301.152344 624.058594 C 299.714844 623.773438 298.296875 623.417969 296.898438 622.992188 C 295.496094 622.570312 294.121094 622.074219 292.765625 621.515625 C 291.414062 620.957031 290.09375 620.332031 288.800781 619.640625 C 287.511719 618.953125 286.257812 618.199219 285.039062 617.386719 C 283.820312 616.574219 282.648438 615.703125 281.515625 614.773438 C 280.382812 613.847656 279.300781 612.863281 278.265625 611.832031 C 277.230469 610.796875 276.25 609.710938 275.320312 608.582031 C 274.390625 607.449219 273.519531 606.277344 272.707031 605.058594 C 271.894531 603.84375 271.140625 602.589844 270.453125 601.296875 C 269.761719 600.007812 269.136719 598.6875 268.574219 597.335938 C 268.015625 595.980469 267.523438 594.605469 267.097656 593.207031 C 266.671875 591.804688 266.316406 590.386719 266.03125 588.953125 C 265.746094 587.515625 265.53125 586.070312 265.390625 584.613281 C 265.246094 583.160156 265.171875 581.699219 265.171875 580.234375 C 265.171875 578.773438 265.246094 577.3125 265.390625 575.855469 C 265.53125 574.398438 265.746094 572.953125 266.03125 571.519531 C 266.316406 570.082031 266.671875 568.664062 267.097656 567.265625 C 267.523438 565.863281 268.015625 564.488281 268.574219 563.136719 C 269.136719 561.785156 269.761719 560.460938 270.453125 559.171875 C 271.140625 557.882812 271.894531 556.628906 272.707031 555.410156 C 273.519531 554.195312 274.390625 553.019531 275.320312 551.890625 C 276.25 550.757812 277.230469 549.675781 278.265625 548.640625 C 279.300781 547.605469 280.382812 546.625 281.515625 545.695312 C 282.648438 544.765625 283.820312 543.894531 285.039062 543.082031 C 286.257812 542.269531 287.511719 541.519531 288.800781 540.828125 C 290.09375 540.140625 291.414062 539.515625 292.765625 538.953125 C 294.121094 538.394531 295.496094 537.902344 296.898438 537.476562 C 298.296875 537.050781 299.714844 536.695312 301.152344 536.410156 C 302.589844 536.125 304.035156 535.910156 305.492188 535.769531 C 306.949219 535.625 308.410156 535.554688 309.871094 535.554688 C 311.335938 535.554688 312.796875 535.625 314.253906 535.769531 C 315.710938 535.910156 317.15625 536.125 318.59375 536.410156 C 320.027344 536.695312 321.445312 537.050781 322.847656 537.476562 C 324.25 537.902344 325.625 538.394531 326.976562 538.953125 C 328.332031 539.515625 329.652344 540.140625 330.941406 540.828125 C 332.234375 541.519531 333.488281 542.269531 334.707031 543.082031 C 335.921875 543.894531 337.097656 544.765625 338.230469 545.695312 C 339.359375 546.625 340.445312 547.605469 341.480469 548.640625 C 342.515625 549.675781 343.496094 550.757812 344.425781 551.890625 C 345.355469 553.019531 346.226562 554.195312 347.039062 555.410156 C 347.851562 556.628906 348.601562 557.882812 349.292969 559.171875 C 349.984375 560.460938 350.609375 561.785156 351.167969 563.136719 C 351.730469 564.488281 352.222656 565.863281 352.648438 567.265625 C 353.070312 568.664062 353.425781 570.082031 353.710938 571.519531 C 354 572.953125 354.210938 574.398438 354.355469 575.855469 C 354.5 577.3125 354.570312 578.773438 354.570312 580.234375 Z M 354.570312 580.234375 " fill-opacity="1" fill-rule="nonzero"/><g clip-path="url(#69b3bddccd)"><path fill="#000000" d="M 480.1875 892.863281 C 399.101562 892.863281 326.351562 884.898438 263.941406 869.199219 C 205.863281 854.589844 156.296875 833.1875 116.617188 805.589844 C 79.492188 779.769531 51.113281 748.652344 32.273438 713.097656 C 14.539062 679.632812 5.546875 642.925781 5.546875 603.972656 C 5.546875 566.421875 11.894531 526.871094 24.402344 486.425781 C 34.375 454.171875 48.277344 421.273438 65.714844 388.632812 C 91.824219 339.765625 117.617188 306.75 124.261719 298.523438 C 124.238281 230.691406 139.125 177.539062 151.699219 144.746094 C 166.367188 106.515625 184.523438 78.707031 197.957031 73.910156 C 216.199219 67.398438 243.261719 81.628906 280.679688 117.40625 C 301.777344 137.582031 319.679688 158.507812 326.394531 166.558594 C 343.40625 162.34375 408.382812 147.523438 480.1875 147.523438 C 502.230469 147.578125 524.207031 148.820312 546.113281 151.253906 C 589.300781 155.953125 622.507812 163.660156 633.992188 166.535156 C 640.714844 158.476562 658.605469 137.5625 679.695312 117.394531 C 717.113281 81.617188 744.171875 67.378906 762.421875 73.90625 C 775.863281 78.699219 794.011719 106.503906 808.675781 144.746094 C 821.253906 177.535156 836.136719 230.691406 836.113281 298.523438 C 841.101562 304.695312 856.960938 324.960938 875.734375 355.597656 C 911.820312 414.476562 954.835938 505.363281 954.835938 603.960938 C 954.835938 642.90625 945.839844 679.621094 928.101562 713.085938 C 909.261719 748.640625 880.882812 779.757812 843.761719 805.578125 C 804.082031 833.179688 754.519531 854.578125 696.433594 869.191406 C 634.027344 884.898438 561.273438 892.863281 480.1875 892.863281 Z M 207.046875 86.101562 C 205.515625 86.074219 204.019531 86.304688 202.566406 86.792969 C 196.035156 89.121094 179.417969 110.710938 164.480469 149.648438 C 147.082031 195.015625 137.660156 248.742188 137.96875 300.929688 L 137.96875 303.441406 L 136.351562 305.363281 C 136.0625 305.714844 106.640625 341.007812 77.632812 395.371094 C 50.980469 445.296875 19.222656 522.011719 19.222656 603.972656 C 19.222656 680.660156 55.601562 746.496094 124.429688 794.367188 C 205.347656 850.648438 325.042969 879.1875 480.1875 879.1875 C 635.332031 879.1875 755.027344 850.648438 835.949219 794.367188 C 904.777344 746.496094 941.15625 680.660156 941.15625 603.972656 C 941.15625 508.558594 899.234375 420.132812 864.074219 362.75 C 842.355469 327.316406 824.210938 305.578125 824.03125 305.363281 L 822.417969 303.441406 L 822.417969 300.929688 C 822.714844 248.742188 813.296875 195.015625 795.90625 149.648438 C 780.972656 110.710938 764.351562 89.121094 757.820312 86.792969 C 752.054688 84.738281 733.828125 84.554688 689.144531 127.289062 C 663.484375 151.828125 642.027344 178.289062 641.816406 178.550781 L 639.007812 182.023438 L 634.699219 180.847656 C 634.324219 180.75 596.238281 170.472656 544.632812 164.855469 C 523.214844 162.476562 501.734375 161.257812 480.183594 161.199219 C 398.785156 161.199219 326.394531 180.65625 325.671875 180.847656 L 321.363281 182.023438 L 318.554688 178.550781 C 318.339844 178.285156 296.808594 151.738281 271.132812 127.203125 C 234.679688 92.359375 215.855469 86.101562 207.046875 86.101562 Z M 207.046875 86.101562 " fill-opacity="1" fill-rule="nonzero"/></g></svg>