<svg width="1440" height="986" viewBox="0 0 1440 986" fill="none" xmlns="http://www.w3.org/2000/svg">
<g clip-path="url(#clip0_14_3)">
<path d="M28.4127 144.319C26.9636 137.773 25.4121 130.735 25.5119 124.002C25.2683 119.58 26.0976 115.216 27.3374 111.137C28.4364 106.977 32.8158 103.397 37.4676 103.778C40.6793 104.075 43.8396 105.618 46.4318 107.672C50.2091 110.137 52.8585 113.992 56.0428 117.04C59.7502 121.072 62.595 125.89 65.6156 130.369C71.1154 140.653 71.4153 151.729 64.2103 159.275C60.1441 163.889 53.1975 166.528 46.9716 165.941C42.6676 165.62 39.1626 162.913 36.1328 160.049C32.0181 155.755 29.2225 150.693 28.2603 144.546L28.4127 144.319Z" fill="#FFF5FB"/>
<path d="M46.9202 202.124C45.5521 191.907 49.4701 181.927 55.7286 174.245C61.3274 166.951 67.7469 160.35 73.0226 152.851C75.8928 146.376 76.006 139.027 78.2606 132.283C82.3709 122.247 92.5314 116.66 102.099 113.155C114.416 108.876 128.529 104.733 141.214 110.468C148.786 114.568 152.999 123.186 161.048 126.603C168.727 129.775 176.752 131.249 184.595 133.932C195.307 137.301 206.42 144.151 209.987 155.759C213.021 164.754 212.408 174.723 210.408 183.79C208.018 192.714 201.039 199.855 192.159 201.848C183.109 204.745 173.412 202.106 164.307 204.216C156.163 209.093 147.391 213.23 138.133 215.681C129.599 218.964 120.263 218.773 111.516 220.432C101.572 225.535 92.8199 234.112 81.2009 235.144C70.677 235.807 61.1979 228.966 55.5243 220.182C51.6222 214.93 47.4828 208.822 46.9202 202.124Z" fill="#FFF5FB"/>
<path d="M45.2673 95.873C43.1329 87.7699 42.0398 79.514 41.4501 71.1296C41.2727 59.7869 40.7173 45.7205 50.4574 38.3264C60.3736 33.4385 70.5536 42.8763 76.7656 50.4219C85.4907 60.8226 92.9473 72.5331 98.1226 85.1818C102.431 97.006 94.5852 108.491 84.5217 113.465C75.7365 119.435 63.0001 119.715 54.928 111.782C50.1011 107.618 46.8735 101.478 45.2658 95.8735L45.2673 95.873Z" fill="#FFF5FB"/>
<path d="M100.338 82.0011C99.4475 75.604 98.0687 68.9507 98.4689 62.7042C97.4883 57.8629 98.959 53.0685 98.3176 48.2508C99.7707 44.5705 98.4441 40.9183 100.276 37.5374C100.642 34.2129 101.484 30.9096 103.055 27.7908C104.162 24.9559 106.291 22.4314 108.9 20.8565C112.315 17.3536 117.15 19.1479 120.904 20.2576C123.342 21.3737 124.651 23.7996 127.387 24.4112C129.215 27.6918 132.759 29.5332 134.289 33.0691C137.874 37.6637 141.098 42.7899 143.571 48.4449C146.704 53.9042 149.757 60.5473 151.417 66.3845C151.89 71.5906 153.255 76.8934 151.567 81.8832C151.002 84.6605 149.302 87.7509 148.06 90.2452C144.044 95.898 137.634 98.845 130.855 100.172C125.441 100.488 120.317 100.971 115.211 99.1018C111.904 98.0193 108.667 96.6575 106.431 93.9277C103.644 90.7807 100.959 86.3052 100.338 82.0011Z" fill="#FFF5FB"/>
<path d="M153.077 96.1752C153.166 92.0656 153.287 88.229 154.034 84.2675C154.216 81.1791 155.108 77.8785 155.73 74.8529C157.451 71.6862 158.508 68.6391 160.932 66.4414C164.411 62.5585 170.379 63.3226 173.858 66.3448C176.406 68.5027 178.956 70.6539 180.773 73.4234C185.028 78.5136 187.735 84.9205 190.289 91.4213C192.982 96.5014 195.158 102.426 194.268 108.147C194.391 111.273 193.777 115.032 191.486 117.483C190.595 122.666 184.425 125.892 179.443 126.897C174.247 127.985 169.289 127.263 164.325 126.036C159.978 124.013 156.29 121.184 155.457 116.133C151.944 111.087 152.88 101.833 153.078 96.1758L153.077 96.1752Z" fill="#FFF5FB"/>
</g>
<g clip-path="url(#clip1_14_3)">
<path d="M294.413 381.319C292.964 374.773 291.412 367.735 291.512 361.002C291.268 356.58 292.098 352.216 293.337 348.137C294.436 343.977 298.816 340.397 303.468 340.778C306.679 341.075 309.84 342.618 312.432 344.672C316.209 347.137 318.858 350.992 322.043 354.04C325.75 358.072 328.595 362.89 331.616 367.369C337.115 377.653 337.415 388.729 330.21 396.275C326.144 400.889 319.198 403.528 312.972 402.941C308.668 402.62 305.163 399.913 302.133 397.049C298.018 392.755 295.222 387.693 294.26 381.546L294.413 381.319Z" fill="#FFF5FB"/>
<path d="M312.92 439.124C311.552 428.907 315.47 418.927 321.729 411.245C327.327 403.951 333.747 397.35 339.023 389.851C341.893 383.376 342.006 376.027 344.261 369.283C348.371 359.247 358.531 353.66 368.099 350.155C380.416 345.876 394.529 341.733 407.214 347.468C414.786 351.568 418.999 360.186 427.048 363.603C434.727 366.775 442.752 368.249 450.595 370.932C461.307 374.301 472.42 381.151 475.987 392.759C479.021 401.754 478.408 411.723 476.408 420.79C474.018 429.714 467.039 436.855 458.159 438.848C449.109 441.745 439.412 439.106 430.307 441.216C422.163 446.093 413.391 450.23 404.133 452.681C395.599 455.964 386.263 455.773 377.516 457.432C367.572 462.535 358.82 471.112 347.201 472.144C336.677 472.807 327.198 465.966 321.524 457.182C317.622 451.93 313.483 445.822 312.92 439.124Z" fill="#FFF5FB"/>
<path d="M311.267 332.873C309.133 324.77 308.04 316.514 307.45 308.13C307.273 296.787 306.717 282.721 316.457 275.326C326.374 270.439 336.554 279.876 342.766 287.422C351.491 297.823 358.947 309.533 364.123 322.182C368.431 334.006 360.585 345.491 350.522 350.465C341.737 356.435 329 356.715 320.928 348.782C316.101 344.618 312.873 338.478 311.266 332.874L311.267 332.873Z" fill="#FFF5FB"/>
<path d="M366.338 319.001C365.448 312.604 364.069 305.951 364.469 299.704C363.488 294.863 364.959 290.068 364.318 285.251C365.771 281.57 364.444 277.918 366.276 274.537C366.642 271.213 367.484 267.91 369.055 264.791C370.162 261.956 372.291 259.431 374.9 257.857C378.315 254.354 383.15 256.148 386.904 257.258C389.342 258.374 390.651 260.8 393.387 261.411C395.215 264.692 398.759 266.533 400.289 270.069C403.874 274.664 407.098 279.79 409.571 285.445C412.704 290.904 415.757 297.547 417.417 303.385C417.89 308.591 419.255 313.893 417.567 318.883C417.002 321.661 415.302 324.751 414.06 327.245C410.044 332.898 403.634 335.845 396.855 337.172C391.441 337.488 386.317 337.971 381.211 336.102C377.904 335.019 374.667 333.658 372.431 330.928C369.644 327.781 366.959 323.305 366.338 319.001Z" fill="#FFF5FB"/>
<path d="M419.077 333.175C419.166 329.066 419.287 325.229 420.034 321.268C420.216 318.179 421.108 314.879 421.73 311.853C423.451 308.686 424.508 305.639 426.932 303.441C430.411 299.559 436.379 300.323 439.858 303.345C442.406 305.503 444.956 307.654 446.773 310.423C451.028 315.514 453.735 321.92 456.289 328.421C458.982 333.501 461.158 339.426 460.268 345.147C460.391 348.273 459.777 352.032 457.486 354.483C456.595 359.666 450.425 362.892 445.443 363.897C440.247 364.985 435.289 364.263 430.325 363.036C425.978 361.013 422.29 358.184 421.457 353.133C417.944 348.087 418.88 338.833 419.078 333.176L419.077 333.175Z" fill="#FFF5FB"/>
</g>
<g clip-path="url(#clip2_14_3)">
<path d="M294.413 879.319C292.964 872.773 291.412 865.735 291.512 859.002C291.268 854.58 292.098 850.216 293.337 846.137C294.436 841.977 298.816 838.397 303.468 838.778C306.679 839.075 309.84 840.618 312.432 842.672C316.209 845.137 318.858 848.992 322.043 852.04C325.75 856.071 328.595 860.89 331.616 865.369C337.115 875.653 337.415 886.729 330.21 894.275C326.144 898.889 319.198 901.528 312.972 900.941C308.668 900.62 305.163 897.913 302.133 895.048C298.018 890.755 295.222 885.693 294.26 879.546L294.413 879.319Z" fill="#FFF5FB"/>
<path d="M312.92 937.124C311.552 926.907 315.47 916.927 321.729 909.245C327.327 901.951 333.747 895.35 339.023 887.851C341.893 881.376 342.006 874.027 344.261 867.283C348.371 857.247 358.531 851.66 368.099 848.155C380.416 843.876 394.529 839.733 407.214 845.468C414.786 849.568 418.999 858.186 427.048 861.603C434.727 864.775 442.752 866.249 450.595 868.932C461.307 872.301 472.42 879.151 475.987 890.759C479.021 899.754 478.408 909.723 476.408 918.79C474.018 927.714 467.039 934.855 458.159 936.848C449.109 939.745 439.412 937.106 430.307 939.216C422.163 944.093 413.391 948.23 404.133 950.681C395.599 953.964 386.263 953.773 377.516 955.431C367.572 960.535 358.82 969.112 347.201 970.144C336.677 970.807 327.198 963.966 321.524 955.182C317.622 949.93 313.483 943.822 312.92 937.124Z" fill="#FFF5FB"/>
<path d="M311.267 830.873C309.133 822.77 308.04 814.514 307.45 806.13C307.273 794.787 306.717 780.72 316.457 773.326C326.374 768.439 336.554 777.876 342.766 785.422C351.491 795.823 358.947 807.533 364.123 820.182C368.431 832.006 360.585 843.491 350.522 848.465C341.737 854.435 329 854.715 320.928 846.782C316.101 842.618 312.873 836.478 311.266 830.873L311.267 830.873Z" fill="#FFF5FB"/>
<path d="M366.338 817.001C365.448 810.604 364.069 803.951 364.469 797.704C363.488 792.863 364.959 788.068 364.318 783.251C365.771 779.57 364.444 775.918 366.276 772.537C366.642 769.213 367.484 765.91 369.055 762.791C370.162 759.956 372.291 757.431 374.9 755.856C378.315 752.354 383.15 754.148 386.904 755.258C389.342 756.374 390.651 758.8 393.387 759.411C395.215 762.692 398.759 764.533 400.289 768.069C403.874 772.664 407.098 777.79 409.571 783.445C412.704 788.904 415.757 795.547 417.417 801.384C417.89 806.591 419.255 811.893 417.567 816.883C417.002 819.66 415.302 822.751 414.06 825.245C410.044 830.898 403.634 833.845 396.855 835.172C391.441 835.488 386.317 835.971 381.211 834.102C377.904 833.019 374.667 831.657 372.431 828.928C369.644 825.781 366.959 821.305 366.338 817.001Z" fill="#FFF5FB"/>
<path d="M419.077 831.175C419.166 827.066 419.287 823.229 420.034 819.268C420.216 816.179 421.108 812.879 421.73 809.853C423.451 806.686 424.508 803.639 426.932 801.441C430.411 797.559 436.379 798.323 439.858 801.345C442.406 803.503 444.956 805.654 446.773 808.423C451.028 813.514 453.735 819.92 456.289 826.421C458.982 831.501 461.158 837.426 460.268 843.147C460.391 846.273 459.777 850.032 457.486 852.483C456.595 857.666 450.425 860.892 445.443 861.897C440.247 862.985 435.289 862.263 430.325 861.036C425.978 859.013 422.29 856.184 421.457 851.133C417.944 846.087 418.88 836.833 419.078 831.176L419.077 831.175Z" fill="#FFF5FB"/>
</g>
<g clip-path="url(#clip3_14_3)">
<path d="M529.413 145.319C527.964 138.773 526.412 131.735 526.512 125.002C526.268 120.58 527.098 116.216 528.337 112.137C529.436 107.977 533.816 104.397 538.468 104.778C541.679 105.075 544.84 106.618 547.432 108.672C551.209 111.137 553.858 114.992 557.043 118.04C560.75 122.072 563.595 126.89 566.616 131.369C572.115 141.653 572.415 152.729 565.21 160.275C561.144 164.889 554.197 167.528 547.972 166.941C543.668 166.62 540.163 163.913 537.133 161.049C533.018 156.755 530.222 151.693 529.26 145.546L529.413 145.319Z" fill="#FFF5FB"/>
<path d="M547.92 203.124C546.552 192.907 550.47 182.927 556.729 175.245C562.327 167.951 568.747 161.35 574.023 153.851C576.893 147.376 577.006 140.027 579.261 133.283C583.371 123.247 593.531 117.66 603.099 114.155C615.416 109.876 629.529 105.733 642.214 111.468C649.786 115.568 653.999 124.186 662.048 127.603C669.727 130.775 677.752 132.249 685.595 134.932C696.307 138.301 707.42 145.151 710.987 156.759C714.021 165.754 713.408 175.723 711.408 184.79C709.018 193.714 702.039 200.855 693.159 202.848C684.109 205.745 674.412 203.106 665.307 205.216C657.163 210.093 648.391 214.23 639.133 216.681C630.599 219.964 621.263 219.773 612.516 221.432C602.572 226.535 593.82 235.112 582.201 236.144C571.677 236.807 562.198 229.966 556.524 221.182C552.622 215.93 548.483 209.822 547.92 203.124Z" fill="#FFF5FB"/>
<path d="M546.267 96.873C544.133 88.7699 543.04 80.514 542.45 72.1296C542.273 60.7869 541.717 46.7205 551.457 39.3264C561.374 34.4385 571.554 43.8763 577.766 51.4219C586.491 61.8226 593.947 73.5331 599.123 86.1818C603.431 98.006 595.585 109.491 585.522 114.465C576.737 120.435 564 120.715 555.928 112.782C551.101 108.618 547.873 102.478 546.266 96.8735L546.267 96.873Z" fill="#FFF5FB"/>
<path d="M601.338 83.0011C600.448 76.604 599.069 69.9507 599.469 63.7042C598.488 58.8629 599.959 54.0685 599.318 49.2508C600.771 45.5705 599.444 41.9183 601.276 38.5374C601.642 35.2129 602.484 31.9096 604.055 28.7908C605.162 25.9559 607.291 23.4314 609.9 21.8565C613.315 18.3536 618.15 20.1479 621.904 21.2576C624.342 22.3737 625.651 24.7996 628.387 25.4112C630.215 28.6918 633.759 30.5332 635.289 34.0691C638.874 38.6637 642.098 43.7899 644.571 49.4449C647.704 54.9042 650.757 61.5473 652.417 67.3845C652.89 72.5906 654.255 77.8934 652.567 82.8832C652.002 85.6605 650.302 88.7509 649.06 91.2452C645.044 96.898 638.634 99.845 631.855 101.172C626.441 101.488 621.317 101.971 616.211 100.102C612.904 99.0193 609.667 97.6575 607.431 94.9277C604.644 91.7807 601.959 87.3052 601.338 83.0011Z" fill="#FFF5FB"/>
<path d="M654.077 97.1752C654.166 93.0656 654.287 89.229 655.034 85.2675C655.216 82.1791 656.108 78.8785 656.73 75.8529C658.451 72.6862 659.508 69.6391 661.932 67.4414C665.411 63.5585 671.379 64.3226 674.858 67.3448C677.406 69.5027 679.956 71.6539 681.773 74.4234C686.028 79.5136 688.735 85.9205 691.289 92.4213C693.982 97.5014 696.158 103.426 695.268 109.147C695.391 112.273 694.777 116.032 692.486 118.483C691.595 123.666 685.425 126.892 680.443 127.897C675.247 128.985 670.289 128.263 665.325 127.036C660.978 125.013 657.29 122.184 656.457 117.133C652.944 112.087 653.88 102.833 654.078 97.1758L654.077 97.1752Z" fill="#FFF5FB"/>
</g>
<g clip-path="url(#clip4_14_3)">
<path d="M628.413 652.319C626.964 645.773 625.412 638.735 625.512 632.002C625.268 627.58 626.098 623.216 627.337 619.137C628.436 614.977 632.816 611.397 637.468 611.778C640.679 612.075 643.84 613.618 646.432 615.672C650.209 618.137 652.858 621.992 656.043 625.04C659.75 629.072 662.595 633.89 665.616 638.369C671.115 648.653 671.415 659.729 664.21 667.275C660.144 671.889 653.198 674.528 646.972 673.941C642.668 673.62 639.163 670.913 636.133 668.048C632.018 663.755 629.222 658.693 628.26 652.546L628.413 652.319Z" fill="#FFF5FB"/>
<path d="M646.92 710.124C645.552 699.907 649.47 689.927 655.729 682.245C661.327 674.951 667.747 668.35 673.023 660.851C675.893 654.376 676.006 647.027 678.261 640.283C682.371 630.247 692.531 624.66 702.099 621.155C714.416 616.876 728.529 612.733 741.214 618.468C748.786 622.568 752.999 631.186 761.048 634.603C768.727 637.775 776.752 639.249 784.595 641.932C795.307 645.301 806.42 652.151 809.987 663.759C813.021 672.754 812.408 682.723 810.408 691.79C808.018 700.714 801.039 707.855 792.159 709.848C783.109 712.745 773.412 710.106 764.307 712.216C756.163 717.093 747.391 721.23 738.133 723.681C729.599 726.964 720.263 726.773 711.516 728.431C701.572 733.535 692.82 742.112 681.201 743.144C670.677 743.807 661.198 736.966 655.524 728.182C651.622 722.93 647.483 716.822 646.92 710.124Z" fill="#FFF5FB"/>
<path d="M645.267 603.873C643.133 595.77 642.04 587.514 641.45 579.13C641.273 567.787 640.717 553.72 650.457 546.326C660.374 541.439 670.554 550.876 676.766 558.422C685.491 568.823 692.947 580.533 698.123 593.182C702.431 605.006 694.585 616.491 684.522 621.465C675.737 627.435 663 627.715 654.928 619.782C650.101 615.618 646.873 609.478 645.266 603.873L645.267 603.873Z" fill="#FFF5FB"/>
<path d="M700.338 590.001C699.448 583.604 698.069 576.951 698.469 570.704C697.488 565.863 698.959 561.068 698.318 556.251C699.771 552.57 698.444 548.918 700.276 545.537C700.642 542.213 701.484 538.91 703.055 535.791C704.162 532.956 706.291 530.431 708.9 528.857C712.315 525.354 717.15 527.148 720.904 528.258C723.342 529.374 724.651 531.8 727.387 532.411C729.215 535.692 732.759 537.533 734.289 541.069C737.874 545.664 741.098 550.79 743.571 556.445C746.704 561.904 749.757 568.547 751.417 574.385C751.89 579.591 753.255 584.893 751.567 589.883C751.002 592.66 749.302 595.751 748.06 598.245C744.044 603.898 737.634 606.845 730.855 608.172C725.441 608.488 720.317 608.971 715.211 607.102C711.904 606.019 708.667 604.657 706.431 601.928C703.644 598.781 700.959 594.305 700.338 590.001Z" fill="#FFF5FB"/>
<path d="M753.077 604.175C753.166 600.066 753.287 596.229 754.034 592.268C754.216 589.179 755.108 585.879 755.73 582.853C757.451 579.686 758.508 576.639 760.932 574.441C764.411 570.559 770.379 571.323 773.858 574.345C776.406 576.503 778.956 578.654 780.773 581.423C785.028 586.514 787.735 592.92 790.289 599.421C792.982 604.501 795.158 610.426 794.268 616.147C794.391 619.273 793.777 623.032 791.486 625.483C790.595 630.666 784.425 633.892 779.443 634.897C774.247 635.985 769.289 635.263 764.325 634.036C759.978 632.013 756.29 629.184 755.457 624.133C751.944 619.087 752.88 609.833 753.078 604.176L753.077 604.175Z" fill="#FFF5FB"/>
</g>
<g clip-path="url(#clip5_14_3)">
<path d="M893.413 339.319C891.964 332.773 890.412 325.735 890.512 319.002C890.268 314.58 891.098 310.216 892.337 306.137C893.436 301.977 897.816 298.397 902.468 298.778C905.679 299.075 908.84 300.618 911.432 302.672C915.209 305.137 917.858 308.992 921.043 312.04C924.75 316.071 927.595 320.89 930.616 325.369C936.115 335.653 936.415 346.729 929.21 354.275C925.144 358.889 918.197 361.528 911.972 360.941C907.668 360.62 904.163 357.913 901.133 355.048C897.018 350.755 894.222 345.693 893.26 339.546L893.413 339.319Z" fill="#FFF5FB"/>
<path d="M911.92 397.124C910.552 386.907 914.47 376.927 920.729 369.245C926.327 361.951 932.747 355.35 938.023 347.851C940.893 341.376 941.006 334.027 943.261 327.283C947.371 317.247 957.531 311.66 967.099 308.155C979.416 303.876 993.529 299.733 1006.21 305.468C1013.79 309.568 1018 318.186 1026.05 321.603C1033.73 324.775 1041.75 326.249 1049.6 328.932C1060.31 332.301 1071.42 339.151 1074.99 350.759C1078.02 359.754 1077.41 369.723 1075.41 378.79C1073.02 387.714 1066.04 394.855 1057.16 396.848C1048.11 399.745 1038.41 397.106 1029.31 399.216C1021.16 404.093 1012.39 408.23 1003.13 410.681C994.599 413.964 985.263 413.773 976.516 415.431C966.572 420.535 957.82 429.112 946.201 430.144C935.677 430.807 926.198 423.966 920.524 415.182C916.622 409.93 912.483 403.822 911.92 397.124Z" fill="#FFF5FB"/>
<path d="M910.267 290.873C908.133 282.77 907.04 274.514 906.45 266.13C906.273 254.787 905.717 240.72 915.457 233.326C925.374 228.439 935.554 237.876 941.766 245.422C950.491 255.823 957.947 267.533 963.123 280.182C967.431 292.006 959.585 303.491 949.522 308.465C940.737 314.435 928 314.715 919.928 306.782C915.101 302.618 911.873 296.478 910.266 290.873L910.267 290.873Z" fill="#FFF5FB"/>
<path d="M965.338 277.001C964.448 270.604 963.069 263.951 963.469 257.704C962.488 252.863 963.959 248.068 963.318 243.251C964.771 239.57 963.444 235.918 965.276 232.537C965.642 229.213 966.484 225.91 968.055 222.791C969.162 219.956 971.291 217.431 973.9 215.857C977.315 212.354 982.15 214.148 985.904 215.258C988.342 216.374 989.651 218.8 992.387 219.411C994.215 222.692 997.759 224.533 999.289 228.069C1002.87 232.664 1006.1 237.79 1008.57 243.445C1011.7 248.904 1014.76 255.547 1016.42 261.385C1016.89 266.591 1018.26 271.893 1016.57 276.883C1016 279.661 1014.3 282.751 1013.06 285.245C1009.04 290.898 1002.63 293.845 995.855 295.172C990.441 295.488 985.317 295.971 980.211 294.102C976.904 293.019 973.667 291.657 971.431 288.928C968.644 285.781 965.959 281.305 965.338 277.001Z" fill="#FFF5FB"/>
<path d="M1018.08 291.175C1018.17 287.066 1018.29 283.229 1019.03 279.268C1019.22 276.179 1020.11 272.879 1020.73 269.853C1022.45 266.686 1023.51 263.639 1025.93 261.441C1029.41 257.559 1035.38 258.323 1038.86 261.345C1041.41 263.503 1043.96 265.654 1045.77 268.423C1050.03 273.514 1052.74 279.92 1055.29 286.421C1057.98 291.501 1060.16 297.426 1059.27 303.147C1059.39 306.273 1058.78 310.032 1056.49 312.483C1055.6 317.666 1049.43 320.892 1044.44 321.897C1039.25 322.985 1034.29 322.263 1029.33 321.036C1024.98 319.013 1021.29 316.184 1020.46 311.133C1016.94 306.087 1017.88 296.833 1018.08 291.176L1018.08 291.175Z" fill="#FFF5FB"/>
</g>
<g clip-path="url(#clip6_14_3)">
<path d="M1042.41 863.319C1040.96 856.773 1039.41 849.735 1039.51 843.002C1039.27 838.58 1040.1 834.216 1041.34 830.137C1042.44 825.977 1046.82 822.397 1051.47 822.778C1054.68 823.075 1057.84 824.618 1060.43 826.672C1064.21 829.137 1066.86 832.992 1070.04 836.04C1073.75 840.071 1076.6 844.89 1079.62 849.369C1085.12 859.653 1085.42 870.729 1078.21 878.275C1074.14 882.889 1067.2 885.528 1060.97 884.941C1056.67 884.62 1053.16 881.913 1050.13 879.048C1046.02 874.755 1043.22 869.693 1042.26 863.546L1042.41 863.319Z" fill="#FFF5FB"/>
<path d="M1060.92 921.124C1059.55 910.907 1063.47 900.927 1069.73 893.245C1075.33 885.951 1081.75 879.35 1087.02 871.851C1089.89 865.376 1090.01 858.027 1092.26 851.283C1096.37 841.247 1106.53 835.66 1116.1 832.155C1128.42 827.876 1142.53 823.733 1155.21 829.468C1162.79 833.568 1167 842.186 1175.05 845.603C1182.73 848.775 1190.75 850.249 1198.6 852.932C1209.31 856.301 1220.42 863.151 1223.99 874.759C1227.02 883.754 1226.41 893.723 1224.41 902.79C1222.02 911.714 1215.04 918.855 1206.16 920.848C1197.11 923.745 1187.41 921.106 1178.31 923.216C1170.16 928.093 1161.39 932.23 1152.13 934.681C1143.6 937.964 1134.26 937.773 1125.52 939.431C1115.57 944.535 1106.82 953.112 1095.2 954.144C1084.68 954.807 1075.2 947.966 1069.52 939.182C1065.62 933.93 1061.48 927.822 1060.92 921.124Z" fill="#FFF5FB"/>
<path d="M1059.27 814.873C1057.13 806.77 1056.04 798.514 1055.45 790.13C1055.27 778.787 1054.72 764.72 1064.46 757.326C1074.37 752.439 1084.55 761.876 1090.77 769.422C1099.49 779.823 1106.95 791.533 1112.12 804.182C1116.43 816.006 1108.59 827.491 1098.52 832.465C1089.74 838.435 1077 838.715 1068.93 830.782C1064.1 826.618 1060.87 820.478 1059.27 814.873L1059.27 814.873Z" fill="#FFF5FB"/>
<path d="M1114.34 801.001C1113.45 794.604 1112.07 787.951 1112.47 781.704C1111.49 776.863 1112.96 772.068 1112.32 767.251C1113.77 763.57 1112.44 759.918 1114.28 756.537C1114.64 753.213 1115.48 749.91 1117.05 746.791C1118.16 743.956 1120.29 741.431 1122.9 739.856C1126.31 736.354 1131.15 738.148 1134.9 739.258C1137.34 740.374 1138.65 742.8 1141.39 743.411C1143.22 746.692 1146.76 748.533 1148.29 752.069C1151.87 756.664 1155.1 761.79 1157.57 767.445C1160.7 772.904 1163.76 779.547 1165.42 785.384C1165.89 790.591 1167.26 795.893 1165.57 800.883C1165 803.66 1163.3 806.751 1162.06 809.245C1158.04 814.898 1151.63 817.845 1144.86 819.172C1139.44 819.488 1134.32 819.971 1129.21 818.102C1125.9 817.019 1122.67 815.657 1120.43 812.928C1117.64 809.781 1114.96 805.305 1114.34 801.001Z" fill="#FFF5FB"/>
<path d="M1167.08 815.175C1167.17 811.066 1167.29 807.229 1168.03 803.268C1168.22 800.179 1169.11 796.879 1169.73 793.853C1171.45 790.686 1172.51 787.639 1174.93 785.441C1178.41 781.559 1184.38 782.323 1187.86 785.345C1190.41 787.503 1192.96 789.654 1194.77 792.423C1199.03 797.514 1201.74 803.92 1204.29 810.421C1206.98 815.501 1209.16 821.426 1208.27 827.147C1208.39 830.273 1207.78 834.032 1205.49 836.483C1204.6 841.666 1198.43 844.892 1193.44 845.897C1188.25 846.985 1183.29 846.263 1178.33 845.036C1173.98 843.013 1170.29 840.184 1169.46 835.133C1165.94 830.087 1166.88 820.833 1167.08 815.176L1167.08 815.175Z" fill="#FFF5FB"/>
</g>
<g clip-path="url(#clip7_14_3)">
<path d="M1211.41 160.319C1209.96 153.773 1208.41 146.735 1208.51 140.002C1208.27 135.58 1209.1 131.216 1210.34 127.137C1211.44 122.977 1215.82 119.397 1220.47 119.778C1223.68 120.075 1226.84 121.618 1229.43 123.672C1233.21 126.137 1235.86 129.992 1239.04 133.04C1242.75 137.072 1245.6 141.89 1248.62 146.369C1254.12 156.653 1254.42 167.729 1247.21 175.275C1243.14 179.889 1236.2 182.528 1229.97 181.941C1225.67 181.62 1222.16 178.913 1219.13 176.049C1215.02 171.755 1212.22 166.693 1211.26 160.546L1211.41 160.319Z" fill="#FFF5FB"/>
<path d="M1229.92 218.124C1228.55 207.907 1232.47 197.927 1238.73 190.245C1244.33 182.951 1250.75 176.35 1256.02 168.851C1258.89 162.376 1259.01 155.027 1261.26 148.283C1265.37 138.247 1275.53 132.66 1285.1 129.155C1297.42 124.876 1311.53 120.733 1324.21 126.468C1331.79 130.568 1336 139.186 1344.05 142.603C1351.73 145.775 1359.75 147.249 1367.6 149.932C1378.31 153.301 1389.42 160.151 1392.99 171.759C1396.02 180.754 1395.41 190.723 1393.41 199.79C1391.02 208.714 1384.04 215.855 1375.16 217.848C1366.11 220.745 1356.41 218.106 1347.31 220.216C1339.16 225.093 1330.39 229.23 1321.13 231.681C1312.6 234.964 1303.26 234.773 1294.52 236.432C1284.57 241.535 1275.82 250.112 1264.2 251.144C1253.68 251.807 1244.2 244.966 1238.52 236.182C1234.62 230.93 1230.48 224.822 1229.92 218.124Z" fill="#FFF5FB"/>
<path d="M1228.27 111.873C1226.13 103.77 1225.04 95.514 1224.45 87.1296C1224.27 75.7869 1223.72 61.7205 1233.46 54.3264C1243.37 49.4385 1253.55 58.8763 1259.77 66.4219C1268.49 76.8226 1275.95 88.5331 1281.12 101.182C1285.43 113.006 1277.59 124.491 1267.52 129.465C1258.74 135.435 1246 135.715 1237.93 127.782C1233.1 123.618 1229.87 117.478 1228.27 111.874L1228.27 111.873Z" fill="#FFF5FB"/>
<path d="M1283.34 98.0011C1282.45 91.604 1281.07 84.9507 1281.47 78.7042C1280.49 73.8629 1281.96 69.0685 1281.32 64.2508C1282.77 60.5705 1281.44 56.9183 1283.28 53.5374C1283.64 50.2129 1284.48 46.9096 1286.05 43.7908C1287.16 40.9559 1289.29 38.4314 1291.9 36.8565C1295.31 33.3536 1300.15 35.1479 1303.9 36.2576C1306.34 37.3737 1307.65 39.7996 1310.39 40.4112C1312.22 43.6918 1315.76 45.5332 1317.29 49.0691C1320.87 53.6637 1324.1 58.7899 1326.57 64.4449C1329.7 69.9042 1332.76 76.5473 1334.42 82.3845C1334.89 87.5906 1336.26 92.8934 1334.57 97.8832C1334 100.661 1332.3 103.751 1331.06 106.245C1327.04 111.898 1320.63 114.845 1313.86 116.172C1308.44 116.488 1303.32 116.971 1298.21 115.102C1294.9 114.019 1291.67 112.658 1289.43 109.928C1286.64 106.781 1283.96 102.305 1283.34 98.0011Z" fill="#FFF5FB"/>
<path d="M1336.08 112.175C1336.17 108.066 1336.29 104.229 1337.03 100.268C1337.22 97.1791 1338.11 93.8785 1338.73 90.8529C1340.45 87.6862 1341.51 84.6391 1343.93 82.4414C1347.41 78.5585 1353.38 79.3226 1356.86 82.3448C1359.41 84.5027 1361.96 86.6539 1363.77 89.4234C1368.03 94.5136 1370.74 100.92 1373.29 107.421C1375.98 112.501 1378.16 118.426 1377.27 124.147C1377.39 127.273 1376.78 131.032 1374.49 133.483C1373.6 138.666 1367.43 141.892 1362.44 142.897C1357.25 143.985 1352.29 143.263 1347.33 142.036C1342.98 140.013 1339.29 137.184 1338.46 132.133C1334.94 127.087 1335.88 117.833 1336.08 112.176L1336.08 112.175Z" fill="#FFF5FB"/>
</g>
<g clip-path="url(#clip8_14_3)">
<path d="M-31.5873 603.319C-33.0364 596.773 -34.5879 589.735 -34.4881 583.002C-34.7317 578.58 -33.9024 574.216 -32.6626 570.137C-31.5636 565.977 -27.1842 562.397 -22.5324 562.778C-19.3207 563.075 -16.1604 564.618 -13.5682 566.672C-9.79085 569.137 -7.14153 572.992 -3.95722 576.04C-0.24977 580.072 2.59503 584.89 5.61561 589.369C11.1154 599.653 11.4153 610.729 4.21026 618.275C0.144115 622.889 -6.80249 625.528 -13.0284 624.941C-17.3324 624.62 -20.8374 621.913 -23.8672 619.048C-27.9819 614.755 -30.7775 609.693 -31.7397 603.546L-31.5873 603.319Z" fill="#FFF5FB"/>
<path d="M-13.0798 661.124C-14.4479 650.907 -10.5299 640.927 -4.27139 633.245C1.32742 625.951 7.74688 619.35 13.0226 611.851C15.8928 605.376 16.006 598.027 18.2606 591.283C22.3709 581.247 32.5314 575.66 42.0992 572.155C54.4164 567.876 68.529 563.733 81.2137 569.468C88.7862 573.568 92.9986 582.186 101.048 585.603C108.727 588.775 116.752 590.249 124.595 592.932C135.307 596.301 146.42 603.151 149.987 614.759C153.021 623.754 152.408 633.723 150.408 642.79C148.018 651.714 141.039 658.855 132.159 660.848C123.109 663.745 113.412 661.106 104.307 663.216C96.1633 668.093 87.3909 672.23 78.1328 674.681C69.599 677.964 60.2628 677.773 51.516 679.431C41.5719 684.535 32.8199 693.112 21.2009 694.144C10.677 694.807 1.1979 687.966 -4.47575 679.182C-8.37782 673.93 -12.5172 667.822 -13.0798 661.124Z" fill="#FFF5FB"/>
<path d="M-14.7327 554.873C-16.8671 546.77 -17.9602 538.514 -18.5499 530.13C-18.7273 518.787 -19.2827 504.72 -9.54261 497.326C0.373576 492.439 10.5536 501.876 16.7656 509.422C25.4907 519.823 32.9473 531.533 38.1226 544.182C42.4311 556.006 34.5852 567.491 24.5217 572.465C15.7365 578.435 3.00014 578.715 -5.07205 570.782C-9.89893 566.618 -13.1265 560.478 -14.7342 554.873L-14.7327 554.873Z" fill="#FFF5FB"/>
<path d="M40.3381 541.001C39.4475 534.604 38.0687 527.951 38.4689 521.704C37.4883 516.863 38.959 512.068 38.3176 507.251C39.7707 503.57 38.4441 499.918 40.2758 496.537C40.6421 493.213 41.484 489.91 43.0546 486.791C44.1616 483.956 46.2907 481.431 48.8998 479.857C52.3148 476.354 57.1504 478.148 60.9045 479.258C63.3422 480.374 64.6512 482.8 67.3868 483.411C69.2154 486.692 72.7589 488.533 74.2887 492.069C77.8737 496.664 81.098 501.79 83.5712 507.445C86.7043 512.904 89.7573 519.547 91.4174 525.385C91.8897 530.591 93.2552 535.893 91.5674 540.883C91.0025 543.66 89.3021 546.751 88.0596 549.245C84.0436 554.898 77.6339 557.845 70.855 559.172C65.4412 559.488 60.3172 559.971 55.2106 558.102C51.9042 557.019 48.6666 555.657 46.4315 552.928C43.6438 549.781 40.9588 545.305 40.3381 541.001Z" fill="#FFF5FB"/>
<path d="M93.0766 555.175C93.1665 551.066 93.2874 547.229 94.0339 543.268C94.2158 540.179 95.1084 536.879 95.7296 533.853C97.4514 530.686 98.508 527.639 100.932 525.441C104.411 521.559 110.379 522.323 113.858 525.345C116.406 527.503 118.956 529.654 120.773 532.423C125.028 537.514 127.735 543.92 130.289 550.421C132.982 555.501 135.158 561.426 134.268 567.147C134.391 570.273 133.777 574.032 131.486 576.483C130.595 581.666 124.425 584.892 119.443 585.897C114.247 586.985 109.289 586.263 104.325 585.036C99.9778 583.013 96.2898 580.184 95.457 575.133C91.9438 570.087 92.88 560.833 93.0777 555.176L93.0766 555.175Z" fill="#FFF5FB"/>
</g>
<g clip-path="url(#clip9_14_3)">
<path d="M1292.41 535.319C1290.96 528.773 1289.41 521.735 1289.51 515.002C1289.27 510.58 1290.1 506.216 1291.34 502.137C1292.44 497.977 1296.82 494.397 1301.47 494.778C1304.68 495.075 1307.84 496.618 1310.43 498.672C1314.21 501.137 1316.86 504.992 1320.04 508.04C1323.75 512.072 1326.6 516.89 1329.62 521.369C1335.12 531.653 1335.42 542.729 1328.21 550.275C1324.14 554.889 1317.2 557.528 1310.97 556.941C1306.67 556.62 1303.16 553.913 1300.13 551.049C1296.02 546.755 1293.22 541.693 1292.26 535.546L1292.41 535.319Z" fill="#FFF5FB"/>
<path d="M1310.92 593.124C1309.55 582.907 1313.47 572.927 1319.73 565.245C1325.33 557.951 1331.75 551.35 1337.02 543.851C1339.89 537.376 1340.01 530.027 1342.26 523.283C1346.37 513.247 1356.53 507.66 1366.1 504.155C1378.42 499.876 1392.53 495.733 1405.21 501.468C1412.79 505.568 1417 514.186 1425.05 517.603C1432.73 520.775 1440.75 522.249 1448.6 524.932C1459.31 528.301 1470.42 535.151 1473.99 546.759C1477.02 555.754 1476.41 565.723 1474.41 574.79C1472.02 583.714 1465.04 590.855 1456.16 592.848C1447.11 595.745 1437.41 593.106 1428.31 595.216C1420.16 600.093 1411.39 604.23 1402.13 606.681C1393.6 609.964 1384.26 609.773 1375.52 611.432C1365.57 616.536 1356.82 625.112 1345.2 626.144C1334.68 626.807 1325.2 619.966 1319.52 611.182C1315.62 605.93 1311.48 599.822 1310.92 593.124Z" fill="#FFF5FB"/>
<path d="M1309.27 486.873C1307.13 478.77 1306.04 470.514 1305.45 462.13C1305.27 450.787 1304.72 436.721 1314.46 429.326C1324.37 424.439 1334.55 433.876 1340.77 441.422C1349.49 451.823 1356.95 463.533 1362.12 476.182C1366.43 488.006 1358.59 499.491 1348.52 504.465C1339.74 510.435 1327 510.715 1318.93 502.782C1314.1 498.618 1310.87 492.478 1309.27 486.874L1309.27 486.873Z" fill="#FFF5FB"/>
<path d="M1364.34 473.001C1363.45 466.604 1362.07 459.951 1362.47 453.704C1361.49 448.863 1362.96 444.068 1362.32 439.251C1363.77 435.57 1362.44 431.918 1364.28 428.537C1364.64 425.213 1365.48 421.91 1367.05 418.791C1368.16 415.956 1370.29 413.431 1372.9 411.857C1376.31 408.354 1381.15 410.148 1384.9 411.258C1387.34 412.374 1388.65 414.8 1391.39 415.411C1393.22 418.692 1396.76 420.533 1398.29 424.069C1401.87 428.664 1405.1 433.79 1407.57 439.445C1410.7 444.904 1413.76 451.547 1415.42 457.385C1415.89 462.591 1417.26 467.893 1415.57 472.883C1415 475.661 1413.3 478.751 1412.06 481.245C1408.04 486.898 1401.63 489.845 1394.86 491.172C1389.44 491.488 1384.32 491.971 1379.21 490.102C1375.9 489.019 1372.67 487.658 1370.43 484.928C1367.64 481.781 1364.96 477.305 1364.34 473.001Z" fill="#FFF5FB"/>
<path d="M1417.08 487.175C1417.17 483.066 1417.29 479.229 1418.03 475.268C1418.22 472.179 1419.11 468.879 1419.73 465.853C1421.45 462.686 1422.51 459.639 1424.93 457.441C1428.41 453.559 1434.38 454.323 1437.86 457.345C1440.41 459.503 1442.96 461.654 1444.77 464.423C1449.03 469.514 1451.74 475.92 1454.29 482.421C1456.98 487.501 1459.16 493.426 1458.27 499.147C1458.39 502.273 1457.78 506.032 1455.49 508.483C1454.6 513.666 1448.43 516.892 1443.44 517.897C1438.25 518.985 1433.29 518.263 1428.33 517.036C1423.98 515.013 1420.29 512.184 1419.46 507.133C1415.94 502.087 1416.88 492.833 1417.08 487.176L1417.08 487.175Z" fill="#FFF5FB"/>
</g>
<defs>
<clipPath id="clip0_14_3">
<rect width="199" height="205" fill="white" transform="translate(-14 54.182) rotate(-17)"/>
</clipPath>
<clipPath id="clip1_14_3">
<rect width="199" height="205" fill="white" transform="translate(252 291.182) rotate(-17)"/>
</clipPath>
<clipPath id="clip2_14_3">
<rect width="199" height="205" fill="white" transform="translate(252 789.182) rotate(-17)"/>
</clipPath>
<clipPath id="clip3_14_3">
<rect width="199" height="205" fill="white" transform="translate(487 55.182) rotate(-17)"/>
</clipPath>
<clipPath id="clip4_14_3">
<rect width="199" height="205" fill="white" transform="translate(586 562.182) rotate(-17)"/>
</clipPath>
<clipPath id="clip5_14_3">
<rect width="199" height="205" fill="white" transform="translate(851 249.182) rotate(-17)"/>
</clipPath>
<clipPath id="clip6_14_3">
<rect width="199" height="205" fill="white" transform="translate(1000 773.182) rotate(-17)"/>
</clipPath>
<clipPath id="clip7_14_3">
<rect width="199" height="205" fill="white" transform="translate(1169 70.182) rotate(-17)"/>
</clipPath>
<clipPath id="clip8_14_3">
<rect width="199" height="205" fill="white" transform="translate(-74 513.182) rotate(-17)"/>
</clipPath>
<clipPath id="clip9_14_3">
<rect width="199" height="205" fill="white" transform="translate(1250 445.182) rotate(-17)"/>
</clipPath>
</defs>
</svg>
