<svg width="1434" height="951" viewBox="0 0 1434 951" fill="none" xmlns="http://www.w3.org/2000/svg">
<g clip-path="url(#clip0_14_5)">
<path d="M28.4127 144.319C26.9636 137.773 25.4121 130.735 25.5119 124.002C25.2683 119.58 26.0976 115.216 27.3374 111.137C28.4364 106.977 32.8158 103.397 37.4676 103.778C40.6793 104.075 43.8396 105.618 46.4318 107.672C50.2091 110.137 52.8585 113.992 56.0428 117.04C59.7502 121.072 62.595 125.89 65.6156 130.369C71.1154 140.653 71.4153 151.729 64.2103 159.275C60.1441 163.889 53.1975 166.528 46.9716 165.941C42.6676 165.62 39.1626 162.913 36.1328 160.049C32.0181 155.755 29.2225 150.693 28.2603 144.546L28.4127 144.319Z" fill="#FFF5FB"/>
<path d="M46.9202 202.124C45.5521 191.907 49.4701 181.927 55.7286 174.245C61.3274 166.951 67.7469 160.35 73.0226 152.851C75.8928 146.376 76.006 139.027 78.2606 132.283C82.3709 122.247 92.5314 116.66 102.099 113.155C114.416 108.876 128.529 104.733 141.214 110.468C148.786 114.568 152.999 123.186 161.048 126.603C168.727 129.775 176.752 131.249 184.595 133.932C195.307 137.301 206.42 144.151 209.987 155.759C213.021 164.754 212.408 174.723 210.408 183.79C208.018 192.714 201.039 199.855 192.159 201.848C183.109 204.745 173.412 202.106 164.307 204.216C156.163 209.093 147.391 213.23 138.133 215.681C129.599 218.964 120.263 218.773 111.516 220.432C101.572 225.535 92.8199 234.112 81.2009 235.144C70.677 235.807 61.1979 228.966 55.5243 220.182C51.6222 214.93 47.4828 208.822 46.9202 202.124Z" fill="#FFF5FB"/>
<path d="M45.2673 95.873C43.1329 87.7699 42.0398 79.514 41.4501 71.1296C41.2727 59.7869 40.7173 45.7205 50.4574 38.3264C60.3736 33.4385 70.5536 42.8763 76.7656 50.4219C85.4907 60.8226 92.9473 72.5331 98.1226 85.1818C102.431 97.006 94.5852 108.491 84.5217 113.465C75.7365 119.435 63.0001 119.715 54.928 111.782C50.1011 107.618 46.8735 101.478 45.2658 95.8735L45.2673 95.873Z" fill="#FFF5FB"/>
<path d="M100.338 82.0011C99.4475 75.604 98.0687 68.9507 98.4689 62.7042C97.4883 57.8629 98.959 53.0685 98.3176 48.2508C99.7707 44.5705 98.4441 40.9183 100.276 37.5374C100.642 34.2129 101.484 30.9096 103.055 27.7908C104.162 24.9559 106.291 22.4314 108.9 20.8565C112.315 17.3536 117.15 19.1479 120.904 20.2576C123.342 21.3737 124.651 23.7996 127.387 24.4112C129.215 27.6918 132.759 29.5332 134.289 33.0691C137.874 37.6637 141.098 42.7899 143.571 48.4449C146.704 53.9042 149.757 60.5473 151.417 66.3845C151.89 71.5906 153.255 76.8934 151.567 81.8832C151.002 84.6605 149.302 87.7509 148.06 90.2452C144.044 95.898 137.634 98.845 130.855 100.172C125.441 100.488 120.317 100.971 115.211 99.1018C111.904 98.0193 108.667 96.6575 106.431 93.9277C103.644 90.7807 100.959 86.3052 100.338 82.0011Z" fill="#FFF5FB"/>
<path d="M153.077 96.1752C153.166 92.0656 153.287 88.229 154.034 84.2675C154.216 81.1791 155.108 77.8785 155.73 74.8529C157.451 71.6862 158.508 68.6391 160.932 66.4414C164.411 62.5585 170.379 63.3226 173.858 66.3448C176.406 68.5027 178.956 70.6539 180.773 73.4234C185.028 78.5136 187.735 84.9205 190.289 91.4213C192.982 96.5014 195.158 102.426 194.268 108.147C194.391 111.273 193.777 115.032 191.486 117.483C190.595 122.666 184.425 125.892 179.443 126.897C174.247 127.985 169.289 127.263 164.325 126.036C159.978 124.013 156.29 121.184 155.457 116.133C151.944 111.087 152.88 101.833 153.078 96.1758L153.077 96.1752Z" fill="#FFF5FB"/>
</g>
<g clip-path="url(#clip1_14_5)">
<path d="M281.413 425.319C279.964 418.773 278.412 411.735 278.512 405.002C278.268 400.58 279.098 396.216 280.337 392.137C281.436 387.977 285.816 384.397 290.468 384.778C293.679 385.075 296.84 386.618 299.432 388.672C303.209 391.137 305.858 394.992 309.043 398.04C312.75 402.072 315.595 406.89 318.616 411.369C324.115 421.653 324.415 432.729 317.21 440.275C313.144 444.889 306.198 447.528 299.972 446.941C295.668 446.62 292.163 443.913 289.133 441.049C285.018 436.755 282.222 431.693 281.26 425.546L281.413 425.319Z" fill="#FFF5FB"/>
<path d="M299.92 483.124C298.552 472.907 302.47 462.927 308.729 455.245C314.327 447.951 320.747 441.35 326.023 433.851C328.893 427.376 329.006 420.027 331.261 413.283C335.371 403.247 345.531 397.66 355.099 394.155C367.416 389.876 381.529 385.733 394.214 391.468C401.786 395.568 405.999 404.186 414.048 407.603C421.727 410.775 429.752 412.249 437.595 414.932C448.307 418.301 459.42 425.151 462.987 436.759C466.021 445.754 465.408 455.723 463.408 464.79C461.018 473.714 454.039 480.855 445.159 482.848C436.109 485.745 426.412 483.106 417.307 485.216C409.163 490.093 400.391 494.23 391.133 496.681C382.599 499.964 373.263 499.773 364.516 501.432C354.572 506.536 345.82 515.112 334.201 516.144C323.677 516.807 314.198 509.966 308.524 501.182C304.622 495.93 300.483 489.822 299.92 483.124Z" fill="#FFF5FB"/>
<path d="M298.267 376.873C296.133 368.77 295.04 360.514 294.45 352.13C294.273 340.787 293.717 326.721 303.457 319.326C313.374 314.439 323.554 323.876 329.766 331.422C338.491 341.823 345.947 353.533 351.123 366.182C355.431 378.006 347.585 389.491 337.522 394.465C328.737 400.435 316 400.715 307.928 392.782C303.101 388.618 299.873 382.478 298.266 376.874L298.267 376.873Z" fill="#FFF5FB"/>
<path d="M353.338 363.001C352.448 356.604 351.069 349.951 351.469 343.704C350.488 338.863 351.959 334.068 351.318 329.251C352.771 325.57 351.444 321.918 353.276 318.537C353.642 315.213 354.484 311.91 356.055 308.791C357.162 305.956 359.291 303.431 361.9 301.857C365.315 298.354 370.15 300.148 373.904 301.258C376.342 302.374 377.651 304.8 380.387 305.411C382.215 308.692 385.759 310.533 387.289 314.069C390.874 318.664 394.098 323.79 396.571 329.445C399.704 334.904 402.757 341.547 404.417 347.385C404.89 352.591 406.255 357.893 404.567 362.883C404.002 365.661 402.302 368.751 401.06 371.245C397.044 376.898 390.634 379.845 383.855 381.172C378.441 381.488 373.317 381.971 368.211 380.102C364.904 379.019 361.667 377.658 359.431 374.928C356.644 371.781 353.959 367.305 353.338 363.001Z" fill="#FFF5FB"/>
<path d="M406.077 377.175C406.166 373.066 406.287 369.229 407.034 365.268C407.216 362.179 408.108 358.879 408.73 355.853C410.451 352.686 411.508 349.639 413.932 347.441C417.411 343.559 423.379 344.323 426.858 347.345C429.406 349.503 431.956 351.654 433.773 354.423C438.028 359.514 440.735 365.92 443.289 372.421C445.982 377.501 448.158 383.426 447.268 389.147C447.391 392.273 446.777 396.032 444.486 398.483C443.595 403.666 437.425 406.892 432.443 407.897C427.247 408.985 422.289 408.263 417.325 407.036C412.978 405.013 409.29 402.184 408.457 397.133C404.944 392.087 405.88 382.833 406.078 377.176L406.077 377.175Z" fill="#FFF5FB"/>
</g>
<g clip-path="url(#clip2_14_5)">
<path d="M302.413 844.319C300.964 837.773 299.412 830.735 299.512 824.002C299.268 819.58 300.098 815.216 301.337 811.137C302.436 806.977 306.816 803.397 311.468 803.778C314.679 804.075 317.84 805.618 320.432 807.672C324.209 810.137 326.858 813.992 330.043 817.04C333.75 821.071 336.595 825.89 339.616 830.369C345.115 840.653 345.415 851.729 338.21 859.275C334.144 863.889 327.198 866.528 320.972 865.941C316.668 865.62 313.163 862.913 310.133 860.048C306.018 855.755 303.222 850.693 302.26 844.546L302.413 844.319Z" fill="#FFF5FB"/>
<path d="M320.92 902.124C319.552 891.907 323.47 881.927 329.729 874.245C335.327 866.951 341.747 860.35 347.023 852.851C349.893 846.376 350.006 839.027 352.261 832.283C356.371 822.247 366.531 816.66 376.099 813.155C388.416 808.876 402.529 804.733 415.214 810.468C422.786 814.568 426.999 823.186 435.048 826.603C442.727 829.775 450.752 831.249 458.595 833.932C469.307 837.301 480.42 844.151 483.987 855.759C487.021 864.754 486.408 874.723 484.408 883.79C482.018 892.714 475.039 899.855 466.159 901.848C457.109 904.745 447.412 902.106 438.307 904.216C430.163 909.093 421.391 913.23 412.133 915.681C403.599 918.964 394.263 918.773 385.516 920.431C375.572 925.535 366.82 934.112 355.201 935.144C344.677 935.807 335.198 928.966 329.524 920.182C325.622 914.93 321.483 908.822 320.92 902.124Z" fill="#FFF5FB"/>
<path d="M319.267 795.873C317.133 787.77 316.04 779.514 315.45 771.13C315.273 759.787 314.717 745.72 324.457 738.326C334.374 733.439 344.554 742.876 350.766 750.422C359.491 760.823 366.947 772.533 372.123 785.182C376.431 797.006 368.585 808.491 358.522 813.465C349.737 819.435 337 819.715 328.928 811.782C324.101 807.618 320.873 801.478 319.266 795.873L319.267 795.873Z" fill="#FFF5FB"/>
<path d="M374.338 782.001C373.448 775.604 372.069 768.951 372.469 762.704C371.488 757.863 372.959 753.068 372.318 748.251C373.771 744.57 372.444 740.918 374.276 737.537C374.642 734.213 375.484 730.91 377.055 727.791C378.162 724.956 380.291 722.431 382.9 720.856C386.315 717.354 391.15 719.148 394.904 720.258C397.342 721.374 398.651 723.8 401.387 724.411C403.215 727.692 406.759 729.533 408.289 733.069C411.874 737.664 415.098 742.79 417.571 748.445C420.704 753.904 423.757 760.547 425.417 766.384C425.89 771.591 427.255 776.893 425.567 781.883C425.002 784.66 423.302 787.751 422.06 790.245C418.044 795.898 411.634 798.845 404.855 800.172C399.441 800.488 394.317 800.971 389.211 799.102C385.904 798.019 382.667 796.657 380.431 793.928C377.644 790.781 374.959 786.305 374.338 782.001Z" fill="#FFF5FB"/>
<path d="M427.077 796.175C427.166 792.066 427.287 788.229 428.034 784.268C428.216 781.179 429.108 777.879 429.73 774.853C431.451 771.686 432.508 768.639 434.932 766.441C438.411 762.559 444.379 763.323 447.858 766.345C450.406 768.503 452.956 770.654 454.773 773.423C459.028 778.514 461.735 784.92 464.289 791.421C466.982 796.501 469.158 802.426 468.268 808.147C468.391 811.273 467.777 815.032 465.486 817.483C464.595 822.666 458.425 825.892 453.443 826.897C448.247 827.985 443.289 827.263 438.325 826.036C433.978 824.013 430.29 821.184 429.457 816.133C425.944 811.087 426.88 801.833 427.078 796.176L427.077 796.175Z" fill="#FFF5FB"/>
</g>
<g clip-path="url(#clip3_14_5)">
<path d="M529.413 182.319C527.964 175.773 526.412 168.735 526.512 162.002C526.268 157.58 527.098 153.216 528.337 149.137C529.436 144.977 533.816 141.397 538.468 141.778C541.679 142.075 544.84 143.618 547.432 145.672C551.209 148.137 553.858 151.992 557.043 155.04C560.75 159.072 563.595 163.89 566.616 168.369C572.115 178.653 572.415 189.729 565.21 197.275C561.144 201.889 554.197 204.528 547.972 203.941C543.668 203.62 540.163 200.913 537.133 198.049C533.018 193.755 530.222 188.693 529.26 182.546L529.413 182.319Z" fill="#FFF5FB"/>
<path d="M547.92 240.124C546.552 229.907 550.47 219.927 556.729 212.245C562.327 204.951 568.747 198.35 574.023 190.851C576.893 184.376 577.006 177.027 579.261 170.283C583.371 160.247 593.531 154.66 603.099 151.155C615.416 146.876 629.529 142.733 642.214 148.468C649.786 152.568 653.999 161.186 662.048 164.603C669.727 167.775 677.752 169.249 685.595 171.932C696.307 175.301 707.42 182.151 710.987 193.759C714.021 202.754 713.408 212.723 711.408 221.79C709.018 230.714 702.039 237.855 693.159 239.848C684.109 242.745 674.412 240.106 665.307 242.216C657.163 247.093 648.391 251.23 639.133 253.681C630.599 256.964 621.263 256.773 612.516 258.432C602.572 263.535 593.82 272.112 582.201 273.144C571.677 273.807 562.198 266.966 556.524 258.182C552.622 252.93 548.483 246.822 547.92 240.124Z" fill="#FFF5FB"/>
<path d="M546.267 133.873C544.133 125.77 543.04 117.514 542.45 109.13C542.273 97.7869 541.717 83.7205 551.457 76.3264C561.374 71.4385 571.554 80.8763 577.766 88.4219C586.491 98.8226 593.947 110.533 599.123 123.182C603.431 135.006 595.585 146.491 585.522 151.465C576.737 157.435 564 157.715 555.928 149.782C551.101 145.618 547.873 139.478 546.266 133.874L546.267 133.873Z" fill="#FFF5FB"/>
<path d="M601.338 120.001C600.448 113.604 599.069 106.951 599.469 100.704C598.488 95.8629 599.959 91.0685 599.318 86.2508C600.771 82.5705 599.444 78.9183 601.276 75.5374C601.642 72.2129 602.484 68.9096 604.055 65.7908C605.162 62.9559 607.291 60.4314 609.9 58.8565C613.315 55.3536 618.15 57.1479 621.904 58.2576C624.342 59.3737 625.651 61.7996 628.387 62.4112C630.215 65.6918 633.759 67.5332 635.289 71.0691C638.874 75.6637 642.098 80.7899 644.571 86.4449C647.704 91.9042 650.757 98.5473 652.417 104.385C652.89 109.591 654.255 114.893 652.567 119.883C652.002 122.661 650.302 125.751 649.06 128.245C645.044 133.898 638.634 136.845 631.855 138.172C626.441 138.488 621.317 138.971 616.211 137.102C612.904 136.019 609.667 134.658 607.431 131.928C604.644 128.781 601.959 124.305 601.338 120.001Z" fill="#FFF5FB"/>
<path d="M654.077 134.175C654.166 130.066 654.287 126.229 655.034 122.268C655.216 119.179 656.108 115.879 656.73 112.853C658.451 109.686 659.508 106.639 661.932 104.441C665.411 100.559 671.379 101.323 674.858 104.345C677.406 106.503 679.956 108.654 681.773 111.423C686.028 116.514 688.735 122.92 691.289 129.421C693.982 134.501 696.158 140.426 695.268 146.147C695.391 149.273 694.777 153.032 692.486 155.483C691.595 160.666 685.425 163.892 680.443 164.897C675.247 165.985 670.289 165.263 665.325 164.036C660.978 162.013 657.29 159.184 656.457 154.133C652.944 149.087 653.88 139.833 654.078 134.176L654.077 134.175Z" fill="#FFF5FB"/>
</g>
<g clip-path="url(#clip4_14_5)">
<path d="M624.413 614.319C622.964 607.773 621.412 600.735 621.512 594.002C621.268 589.58 622.098 585.216 623.337 581.137C624.436 576.977 628.816 573.397 633.468 573.778C636.679 574.075 639.84 575.618 642.432 577.672C646.209 580.137 648.858 583.992 652.043 587.04C655.75 591.072 658.595 595.89 661.616 600.369C667.115 610.653 667.415 621.729 660.21 629.275C656.144 633.889 649.198 636.528 642.972 635.941C638.668 635.62 635.163 632.913 632.133 630.048C628.018 625.755 625.222 620.693 624.26 614.546L624.413 614.319Z" fill="#FFF5FB"/>
<path d="M642.92 672.124C641.552 661.907 645.47 651.927 651.729 644.245C657.327 636.951 663.747 630.35 669.023 622.851C671.893 616.376 672.006 609.027 674.261 602.283C678.371 592.247 688.531 586.66 698.099 583.155C710.416 578.876 724.529 574.733 737.214 580.468C744.786 584.568 748.999 593.186 757.048 596.603C764.727 599.775 772.752 601.249 780.595 603.932C791.307 607.301 802.42 614.151 805.987 625.759C809.021 634.754 808.408 644.723 806.408 653.79C804.018 662.714 797.039 669.855 788.159 671.848C779.109 674.745 769.412 672.106 760.307 674.216C752.163 679.093 743.391 683.23 734.133 685.681C725.599 688.964 716.263 688.773 707.516 690.431C697.572 695.535 688.82 704.112 677.201 705.144C666.677 705.807 657.198 698.966 651.524 690.182C647.622 684.93 643.483 678.822 642.92 672.124Z" fill="#FFF5FB"/>
<path d="M641.267 565.873C639.133 557.77 638.04 549.514 637.45 541.13C637.273 529.787 636.717 515.72 646.457 508.326C656.374 503.439 666.554 512.876 672.766 520.422C681.491 530.823 688.947 542.533 694.123 555.182C698.431 567.006 690.585 578.491 680.522 583.465C671.737 589.435 659 589.715 650.928 581.782C646.101 577.618 642.873 571.478 641.266 565.873L641.267 565.873Z" fill="#FFF5FB"/>
<path d="M696.338 552.001C695.448 545.604 694.069 538.951 694.469 532.704C693.488 527.863 694.959 523.068 694.318 518.251C695.771 514.57 694.444 510.918 696.276 507.537C696.642 504.213 697.484 500.91 699.055 497.791C700.162 494.956 702.291 492.431 704.9 490.857C708.315 487.354 713.15 489.148 716.904 490.258C719.342 491.374 720.651 493.8 723.387 494.411C725.215 497.692 728.759 499.533 730.289 503.069C733.874 507.664 737.098 512.79 739.571 518.445C742.704 523.904 745.757 530.547 747.417 536.385C747.89 541.591 749.255 546.893 747.567 551.883C747.002 554.66 745.302 557.751 744.06 560.245C740.044 565.898 733.634 568.845 726.855 570.172C721.441 570.488 716.317 570.971 711.211 569.102C707.904 568.019 704.667 566.657 702.431 563.928C699.644 560.781 696.959 556.305 696.338 552.001Z" fill="#FFF5FB"/>
<path d="M749.077 566.175C749.166 562.066 749.287 558.229 750.034 554.268C750.216 551.179 751.108 547.879 751.73 544.853C753.451 541.686 754.508 538.639 756.932 536.441C760.411 532.559 766.379 533.323 769.858 536.345C772.406 538.503 774.956 540.654 776.773 543.423C781.028 548.514 783.735 554.92 786.289 561.421C788.982 566.501 791.158 572.426 790.268 578.147C790.391 581.273 789.777 585.032 787.486 587.483C786.595 592.666 780.425 595.892 775.443 596.897C770.247 597.985 765.289 597.263 760.325 596.036C755.978 594.013 752.29 591.184 751.457 586.133C747.944 581.087 748.88 571.833 749.078 566.176L749.077 566.175Z" fill="#FFF5FB"/>
</g>
<g clip-path="url(#clip5_14_5)">
<path d="M881.413 373.319C879.964 366.773 878.412 359.735 878.512 353.002C878.268 348.58 879.098 344.216 880.337 340.137C881.436 335.977 885.816 332.397 890.468 332.778C893.679 333.075 896.84 334.618 899.432 336.672C903.209 339.137 905.858 342.992 909.043 346.04C912.75 350.072 915.595 354.89 918.616 359.369C924.115 369.653 924.415 380.729 917.21 388.275C913.144 392.889 906.197 395.528 899.972 394.941C895.668 394.62 892.163 391.913 889.133 389.049C885.018 384.755 882.222 379.693 881.26 373.546L881.413 373.319Z" fill="#FFF5FB"/>
<path d="M899.92 431.124C898.552 420.907 902.47 410.927 908.729 403.245C914.327 395.951 920.747 389.35 926.023 381.851C928.893 375.376 929.006 368.027 931.261 361.283C935.371 351.247 945.531 345.66 955.099 342.155C967.416 337.876 981.529 333.733 994.214 339.468C1001.79 343.568 1006 352.186 1014.05 355.603C1021.73 358.775 1029.75 360.249 1037.6 362.932C1048.31 366.301 1059.42 373.151 1062.99 384.759C1066.02 393.754 1065.41 403.723 1063.41 412.79C1061.02 421.714 1054.04 428.855 1045.16 430.848C1036.11 433.745 1026.41 431.106 1017.31 433.216C1009.16 438.093 1000.39 442.23 991.133 444.681C982.599 447.964 973.263 447.773 964.516 449.432C954.572 454.535 945.82 463.112 934.201 464.144C923.677 464.807 914.198 457.966 908.524 449.182C904.622 443.93 900.483 437.822 899.92 431.124Z" fill="#FFF5FB"/>
<path d="M898.267 324.873C896.133 316.77 895.04 308.514 894.45 300.13C894.273 288.787 893.717 274.721 903.457 267.326C913.374 262.439 923.554 271.876 929.766 279.422C938.491 289.823 945.947 301.533 951.123 314.182C955.431 326.006 947.585 337.491 937.522 342.465C928.737 348.435 916 348.715 907.928 340.782C903.101 336.618 899.873 330.478 898.266 324.874L898.267 324.873Z" fill="#FFF5FB"/>
<path d="M953.338 311.001C952.448 304.604 951.069 297.951 951.469 291.704C950.488 286.863 951.959 282.068 951.318 277.251C952.771 273.57 951.444 269.918 953.276 266.537C953.642 263.213 954.484 259.91 956.055 256.791C957.162 253.956 959.291 251.431 961.9 249.857C965.315 246.354 970.15 248.148 973.904 249.258C976.342 250.374 977.651 252.8 980.387 253.411C982.215 256.692 985.759 258.533 987.289 262.069C990.874 266.664 994.098 271.79 996.571 277.445C999.704 282.904 1002.76 289.547 1004.42 295.385C1004.89 300.591 1006.26 305.893 1004.57 310.883C1004 313.661 1002.3 316.751 1001.06 319.245C997.044 324.898 990.634 327.845 983.855 329.172C978.441 329.488 973.317 329.971 968.211 328.102C964.904 327.019 961.667 325.658 959.431 322.928C956.644 319.781 953.959 315.305 953.338 311.001Z" fill="#FFF5FB"/>
<path d="M1006.08 325.175C1006.17 321.066 1006.29 317.229 1007.03 313.268C1007.22 310.179 1008.11 306.879 1008.73 303.853C1010.45 300.686 1011.51 297.639 1013.93 295.441C1017.41 291.559 1023.38 292.323 1026.86 295.345C1029.41 297.503 1031.96 299.654 1033.77 302.423C1038.03 307.514 1040.74 313.92 1043.29 320.421C1045.98 325.501 1048.16 331.426 1047.27 337.147C1047.39 340.273 1046.78 344.032 1044.49 346.483C1043.6 351.666 1037.43 354.892 1032.44 355.897C1027.25 356.985 1022.29 356.263 1017.33 355.036C1012.98 353.013 1009.29 350.184 1008.46 345.133C1004.94 340.087 1005.88 330.833 1006.08 325.176L1006.08 325.175Z" fill="#FFF5FB"/>
</g>
<g clip-path="url(#clip6_14_5)">
<path d="M1022.41 802.319C1020.96 795.773 1019.41 788.735 1019.51 782.002C1019.27 777.58 1020.1 773.216 1021.34 769.137C1022.44 764.977 1026.82 761.397 1031.47 761.778C1034.68 762.075 1037.84 763.618 1040.43 765.672C1044.21 768.137 1046.86 771.992 1050.04 775.04C1053.75 779.071 1056.6 783.89 1059.62 788.369C1065.12 798.653 1065.42 809.729 1058.21 817.275C1054.14 821.889 1047.2 824.528 1040.97 823.941C1036.67 823.62 1033.16 820.913 1030.13 818.048C1026.02 813.755 1023.22 808.693 1022.26 802.546L1022.41 802.319Z" fill="#FFF5FB"/>
<path d="M1040.92 860.124C1039.55 849.907 1043.47 839.927 1049.73 832.245C1055.33 824.951 1061.75 818.35 1067.02 810.851C1069.89 804.376 1070.01 797.027 1072.26 790.283C1076.37 780.247 1086.53 774.66 1096.1 771.155C1108.42 766.876 1122.53 762.733 1135.21 768.468C1142.79 772.568 1147 781.186 1155.05 784.603C1162.73 787.775 1170.75 789.249 1178.6 791.932C1189.31 795.301 1200.42 802.151 1203.99 813.759C1207.02 822.754 1206.41 832.723 1204.41 841.79C1202.02 850.714 1195.04 857.855 1186.16 859.848C1177.11 862.745 1167.41 860.106 1158.31 862.216C1150.16 867.093 1141.39 871.23 1132.13 873.681C1123.6 876.964 1114.26 876.773 1105.52 878.431C1095.57 883.535 1086.82 892.112 1075.2 893.144C1064.68 893.807 1055.2 886.966 1049.52 878.182C1045.62 872.93 1041.48 866.822 1040.92 860.124Z" fill="#FFF5FB"/>
<path d="M1039.27 753.873C1037.13 745.77 1036.04 737.514 1035.45 729.13C1035.27 717.787 1034.72 703.72 1044.46 696.326C1054.37 691.439 1064.55 700.876 1070.77 708.422C1079.49 718.823 1086.95 730.533 1092.12 743.182C1096.43 755.006 1088.59 766.491 1078.52 771.465C1069.74 777.435 1057 777.715 1048.93 769.782C1044.1 765.618 1040.87 759.478 1039.27 753.873L1039.27 753.873Z" fill="#FFF5FB"/>
<path d="M1094.34 740.001C1093.45 733.604 1092.07 726.951 1092.47 720.704C1091.49 715.863 1092.96 711.068 1092.32 706.251C1093.77 702.57 1092.44 698.918 1094.28 695.537C1094.64 692.213 1095.48 688.91 1097.05 685.791C1098.16 682.956 1100.29 680.431 1102.9 678.856C1106.31 675.354 1111.15 677.148 1114.9 678.258C1117.34 679.374 1118.65 681.8 1121.39 682.411C1123.22 685.692 1126.76 687.533 1128.29 691.069C1131.87 695.664 1135.1 700.79 1137.57 706.445C1140.7 711.904 1143.76 718.547 1145.42 724.384C1145.89 729.591 1147.26 734.893 1145.57 739.883C1145 742.66 1143.3 745.751 1142.06 748.245C1138.04 753.898 1131.63 756.845 1124.86 758.172C1119.44 758.488 1114.32 758.971 1109.21 757.102C1105.9 756.019 1102.67 754.657 1100.43 751.928C1097.64 748.781 1094.96 744.305 1094.34 740.001Z" fill="#FFF5FB"/>
<path d="M1147.08 754.175C1147.17 750.066 1147.29 746.229 1148.03 742.268C1148.22 739.179 1149.11 735.879 1149.73 732.853C1151.45 729.686 1152.51 726.639 1154.93 724.441C1158.41 720.559 1164.38 721.323 1167.86 724.345C1170.41 726.503 1172.96 728.654 1174.77 731.423C1179.03 736.514 1181.74 742.92 1184.29 749.421C1186.98 754.501 1189.16 760.426 1188.27 766.147C1188.39 769.273 1187.78 773.032 1185.49 775.483C1184.6 780.666 1178.43 783.892 1173.44 784.897C1168.25 785.985 1163.29 785.263 1158.33 784.036C1153.98 782.013 1150.29 779.184 1149.46 774.133C1145.94 769.087 1146.88 759.833 1147.08 754.176L1147.08 754.175Z" fill="#FFF5FB"/>
</g>
<g clip-path="url(#clip7_14_5)">
<path d="M1212.41 182.319C1210.96 175.773 1209.41 168.735 1209.51 162.002C1209.27 157.58 1210.1 153.216 1211.34 149.137C1212.44 144.977 1216.82 141.397 1221.47 141.778C1224.68 142.075 1227.84 143.618 1230.43 145.672C1234.21 148.137 1236.86 151.992 1240.04 155.04C1243.75 159.072 1246.6 163.89 1249.62 168.369C1255.12 178.653 1255.42 189.729 1248.21 197.275C1244.14 201.889 1237.2 204.528 1230.97 203.941C1226.67 203.62 1223.16 200.913 1220.13 198.049C1216.02 193.755 1213.22 188.693 1212.26 182.546L1212.41 182.319Z" fill="#FFF5FB"/>
<path d="M1230.92 240.124C1229.55 229.907 1233.47 219.927 1239.73 212.245C1245.33 204.951 1251.75 198.35 1257.02 190.851C1259.89 184.376 1260.01 177.027 1262.26 170.283C1266.37 160.247 1276.53 154.66 1286.1 151.155C1298.42 146.876 1312.53 142.733 1325.21 148.468C1332.79 152.568 1337 161.186 1345.05 164.603C1352.73 167.775 1360.75 169.249 1368.6 171.932C1379.31 175.301 1390.42 182.151 1393.99 193.759C1397.02 202.754 1396.41 212.723 1394.41 221.79C1392.02 230.714 1385.04 237.855 1376.16 239.848C1367.11 242.745 1357.41 240.106 1348.31 242.216C1340.16 247.093 1331.39 251.23 1322.13 253.681C1313.6 256.964 1304.26 256.773 1295.52 258.432C1285.57 263.535 1276.82 272.112 1265.2 273.144C1254.68 273.807 1245.2 266.966 1239.52 258.182C1235.62 252.93 1231.48 246.822 1230.92 240.124Z" fill="#FFF5FB"/>
<path d="M1229.27 133.873C1227.13 125.77 1226.04 117.514 1225.45 109.13C1225.27 97.7869 1224.72 83.7205 1234.46 76.3264C1244.37 71.4385 1254.55 80.8763 1260.77 88.4219C1269.49 98.8226 1276.95 110.533 1282.12 123.182C1286.43 135.006 1278.59 146.491 1268.52 151.465C1259.74 157.435 1247 157.715 1238.93 149.782C1234.1 145.618 1230.87 139.478 1229.27 133.874L1229.27 133.873Z" fill="#FFF5FB"/>
<path d="M1284.34 120.001C1283.45 113.604 1282.07 106.951 1282.47 100.704C1281.49 95.8629 1282.96 91.0685 1282.32 86.2508C1283.77 82.5705 1282.44 78.9183 1284.28 75.5374C1284.64 72.2129 1285.48 68.9096 1287.05 65.7908C1288.16 62.9559 1290.29 60.4314 1292.9 58.8565C1296.31 55.3536 1301.15 57.1479 1304.9 58.2576C1307.34 59.3737 1308.65 61.7996 1311.39 62.4112C1313.22 65.6918 1316.76 67.5332 1318.29 71.0691C1321.87 75.6637 1325.1 80.7899 1327.57 86.4449C1330.7 91.9042 1333.76 98.5473 1335.42 104.385C1335.89 109.591 1337.26 114.893 1335.57 119.883C1335 122.661 1333.3 125.751 1332.06 128.245C1328.04 133.898 1321.63 136.845 1314.86 138.172C1309.44 138.488 1304.32 138.971 1299.21 137.102C1295.9 136.019 1292.67 134.658 1290.43 131.928C1287.64 128.781 1284.96 124.305 1284.34 120.001Z" fill="#FFF5FB"/>
<path d="M1337.08 134.175C1337.17 130.066 1337.29 126.229 1338.03 122.268C1338.22 119.179 1339.11 115.879 1339.73 112.853C1341.45 109.686 1342.51 106.639 1344.93 104.441C1348.41 100.559 1354.38 101.323 1357.86 104.345C1360.41 106.503 1362.96 108.654 1364.77 111.423C1369.03 116.514 1371.74 122.92 1374.29 129.421C1376.98 134.501 1379.16 140.426 1378.27 146.147C1378.39 149.273 1377.78 153.032 1375.49 155.483C1374.6 160.666 1368.43 163.892 1363.44 164.897C1358.25 165.985 1353.29 165.263 1348.33 164.036C1343.98 162.013 1340.29 159.184 1339.46 154.133C1335.94 149.087 1336.88 139.833 1337.08 134.176L1337.08 134.175Z" fill="#FFF5FB"/>
</g>
<g clip-path="url(#clip8_14_5)">
<path d="M-15.5873 569.319C-17.0364 562.773 -18.5879 555.735 -18.4881 549.002C-18.7317 544.58 -17.9024 540.216 -16.6626 536.137C-15.5636 531.977 -11.1842 528.397 -6.53245 528.778C-3.32066 529.075 -0.160448 530.618 2.43183 532.672C6.20915 535.137 8.85847 538.992 12.0428 542.04C15.7502 546.072 18.595 550.89 21.6156 555.369C27.1154 565.653 27.4153 576.729 20.2103 584.275C16.1441 588.889 9.19751 591.528 2.97159 590.941C-1.33238 590.62 -4.83737 587.913 -7.86723 585.049C-11.9819 580.755 -14.7775 575.693 -15.7397 569.546L-15.5873 569.319Z" fill="#FFF5FB"/>
<path d="M2.92023 627.124C1.55206 616.907 5.47011 606.927 11.7286 599.245C17.3274 591.951 23.7469 585.35 29.0226 577.851C31.8928 571.376 32.006 564.027 34.2606 557.283C38.3709 547.247 48.5314 541.66 58.0992 538.155C70.4164 533.876 84.529 529.733 97.2137 535.468C104.786 539.568 108.999 548.186 117.048 551.603C124.727 554.775 132.752 556.249 140.595 558.932C151.307 562.301 162.42 569.151 165.987 580.759C169.021 589.754 168.408 599.723 166.408 608.79C164.018 617.714 157.039 624.855 148.159 626.848C139.109 629.745 129.412 627.106 120.307 629.216C112.163 634.093 103.391 638.23 94.1328 640.681C85.599 643.964 76.2628 643.773 67.516 645.432C57.5719 650.536 48.8199 659.112 37.2009 660.144C26.677 660.807 17.1979 653.966 11.5243 645.182C7.62218 639.93 3.48282 633.822 2.92023 627.124Z" fill="#FFF5FB"/>
<path d="M1.26733 520.873C-0.867138 512.77 -1.96022 504.514 -2.54988 496.13C-2.7273 484.787 -3.28272 470.721 6.45739 463.326C16.3736 458.439 26.5536 467.876 32.7656 475.422C41.4907 485.823 48.9473 497.533 54.1226 510.182C58.4311 522.006 50.5852 533.491 40.5217 538.465C31.7365 544.435 19.0001 544.715 10.928 536.782C6.10107 532.618 2.87347 526.478 1.26578 520.874L1.26733 520.873Z" fill="#FFF5FB"/>
<path d="M56.3381 507.001C55.4475 500.604 54.0687 493.951 54.4689 487.704C53.4883 482.863 54.959 478.068 54.3176 473.251C55.7707 469.57 54.4441 465.918 56.2758 462.537C56.6421 459.213 57.484 455.91 59.0546 452.791C60.1616 449.956 62.2907 447.431 64.8998 445.857C68.3148 442.354 73.1504 444.148 76.9045 445.258C79.3422 446.374 80.6512 448.8 83.3868 449.411C85.2154 452.692 88.7589 454.533 90.2887 458.069C93.8737 462.664 97.098 467.79 99.5712 473.445C102.704 478.904 105.757 485.547 107.417 491.385C107.89 496.591 109.255 501.893 107.567 506.883C107.002 509.661 105.302 512.751 104.06 515.245C100.044 520.898 93.6339 523.845 86.855 525.172C81.4412 525.488 76.3172 525.971 71.2106 524.102C67.9042 523.019 64.6666 521.658 62.4315 518.928C59.6438 515.781 56.9588 511.305 56.3381 507.001Z" fill="#FFF5FB"/>
<path d="M109.077 521.175C109.166 517.066 109.287 513.229 110.034 509.268C110.216 506.179 111.108 502.879 111.73 499.853C113.451 496.686 114.508 493.639 116.932 491.441C120.411 487.559 126.379 488.323 129.858 491.345C132.406 493.503 134.956 495.654 136.773 498.423C141.028 503.514 143.735 509.92 146.289 516.421C148.982 521.501 151.158 527.426 150.268 533.147C150.391 536.273 149.777 540.032 147.486 542.483C146.595 547.666 140.425 550.892 135.443 551.897C130.247 552.985 125.289 552.263 120.325 551.036C115.978 549.013 112.29 546.184 111.457 541.133C107.944 536.087 108.88 526.833 109.078 521.176L109.077 521.175Z" fill="#FFF5FB"/>
</g>
<g clip-path="url(#clip9_14_5)">
<path d="M1225.41 544.319C1223.96 537.773 1222.41 530.735 1222.51 524.002C1222.27 519.58 1223.1 515.216 1224.34 511.137C1225.44 506.977 1229.82 503.397 1234.47 503.778C1237.68 504.075 1240.84 505.618 1243.43 507.672C1247.21 510.137 1249.86 513.992 1253.04 517.04C1256.75 521.072 1259.6 525.89 1262.62 530.369C1268.12 540.653 1268.42 551.729 1261.21 559.275C1257.14 563.889 1250.2 566.528 1243.97 565.941C1239.67 565.62 1236.16 562.913 1233.13 560.049C1229.02 555.755 1226.22 550.693 1225.26 544.546L1225.41 544.319Z" fill="#FFF5FB"/>
<path d="M1243.92 602.124C1242.55 591.907 1246.47 581.927 1252.73 574.245C1258.33 566.951 1264.75 560.35 1270.02 552.851C1272.89 546.376 1273.01 539.027 1275.26 532.283C1279.37 522.247 1289.53 516.66 1299.1 513.155C1311.42 508.876 1325.53 504.733 1338.21 510.468C1345.79 514.568 1350 523.186 1358.05 526.603C1365.73 529.775 1373.75 531.249 1381.6 533.932C1392.31 537.301 1403.42 544.151 1406.99 555.759C1410.02 564.754 1409.41 574.723 1407.41 583.79C1405.02 592.714 1398.04 599.855 1389.16 601.848C1380.11 604.745 1370.41 602.106 1361.31 604.216C1353.16 609.093 1344.39 613.23 1335.13 615.681C1326.6 618.964 1317.26 618.773 1308.52 620.432C1298.57 625.536 1289.82 634.112 1278.2 635.144C1267.68 635.807 1258.2 628.966 1252.52 620.182C1248.62 614.93 1244.48 608.822 1243.92 602.124Z" fill="#FFF5FB"/>
<path d="M1242.27 495.873C1240.13 487.77 1239.04 479.514 1238.45 471.13C1238.27 459.787 1237.72 445.721 1247.46 438.326C1257.37 433.439 1267.55 442.876 1273.77 450.422C1282.49 460.823 1289.95 472.533 1295.12 485.182C1299.43 497.006 1291.59 508.491 1281.52 513.465C1272.74 519.435 1260 519.715 1251.93 511.782C1247.1 507.618 1243.87 501.478 1242.27 495.874L1242.27 495.873Z" fill="#FFF5FB"/>
<path d="M1297.34 482.001C1296.45 475.604 1295.07 468.951 1295.47 462.704C1294.49 457.863 1295.96 453.068 1295.32 448.251C1296.77 444.57 1295.44 440.918 1297.28 437.537C1297.64 434.213 1298.48 430.91 1300.05 427.791C1301.16 424.956 1303.29 422.431 1305.9 420.857C1309.31 417.354 1314.15 419.148 1317.9 420.258C1320.34 421.374 1321.65 423.8 1324.39 424.411C1326.22 427.692 1329.76 429.533 1331.29 433.069C1334.87 437.664 1338.1 442.79 1340.57 448.445C1343.7 453.904 1346.76 460.547 1348.42 466.385C1348.89 471.591 1350.26 476.893 1348.57 481.883C1348 484.661 1346.3 487.751 1345.06 490.245C1341.04 495.898 1334.63 498.845 1327.86 500.172C1322.44 500.488 1317.32 500.971 1312.21 499.102C1308.9 498.019 1305.67 496.658 1303.43 493.928C1300.64 490.781 1297.96 486.305 1297.34 482.001Z" fill="#FFF5FB"/>
<path d="M1350.08 496.175C1350.17 492.066 1350.29 488.229 1351.03 484.268C1351.22 481.179 1352.11 477.879 1352.73 474.853C1354.45 471.686 1355.51 468.639 1357.93 466.441C1361.41 462.559 1367.38 463.323 1370.86 466.345C1373.41 468.503 1375.96 470.654 1377.77 473.423C1382.03 478.514 1384.74 484.92 1387.29 491.421C1389.98 496.501 1392.16 502.426 1391.27 508.147C1391.39 511.273 1390.78 515.032 1388.49 517.483C1387.6 522.666 1381.43 525.892 1376.44 526.897C1371.25 527.985 1366.29 527.263 1361.33 526.036C1356.98 524.013 1353.29 521.184 1352.46 516.133C1348.94 511.087 1349.88 501.833 1350.08 496.176L1350.08 496.175Z" fill="#FFF5FB"/>
</g>
<defs>
<clipPath id="clip0_14_5">
<rect width="199" height="205" fill="white" transform="translate(-14 54.182) rotate(-17)"/>
</clipPath>
<clipPath id="clip1_14_5">
<rect width="199" height="205" fill="white" transform="translate(239 335.182) rotate(-17)"/>
</clipPath>
<clipPath id="clip2_14_5">
<rect width="199" height="205" fill="white" transform="translate(260 754.182) rotate(-17)"/>
</clipPath>
<clipPath id="clip3_14_5">
<rect width="199" height="205" fill="white" transform="translate(487 92.182) rotate(-17)"/>
</clipPath>
<clipPath id="clip4_14_5">
<rect width="199" height="205" fill="white" transform="translate(582 524.182) rotate(-17)"/>
</clipPath>
<clipPath id="clip5_14_5">
<rect width="199" height="205" fill="white" transform="translate(839 283.182) rotate(-17)"/>
</clipPath>
<clipPath id="clip6_14_5">
<rect width="199" height="205" fill="white" transform="translate(980 712.182) rotate(-17)"/>
</clipPath>
<clipPath id="clip7_14_5">
<rect width="199" height="205" fill="white" transform="translate(1170 92.182) rotate(-17)"/>
</clipPath>
<clipPath id="clip8_14_5">
<rect width="199" height="205" fill="white" transform="translate(-58 479.182) rotate(-17)"/>
</clipPath>
<clipPath id="clip9_14_5">
<rect width="199" height="205" fill="white" transform="translate(1183 454.182) rotate(-17)"/>
</clipPath>
</defs>
</svg>
