<svg width="250" height="244" viewBox="0 0 250 244" fill="none" xmlns="http://www.w3.org/2000/svg">
  <path
    d="M125 0.09375C55.9375 0.09375 0 56.0625 0 125.094C0 180.333 35.8125 227.177 85.4688 243.687C91.7188 244.865 94.0104 241 94.0104 237.677C94.0104 234.708 93.9063 226.844 93.8542 216.427C59.0833 223.969 51.75 199.656 51.75 199.656C46.0625 185.229 37.8438 181.375 37.8438 181.375C26.5208 173.625 38.7188 173.781 38.7188 173.781C51.2708 174.656 57.8646 186.656 57.8646 186.656C69.0104 205.771 87.125 200.25 94.2708 197.052C95.3958 188.969 98.6146 183.458 102.188 180.333C74.4271 177.208 45.25 166.458 45.25 118.563C45.25 104.917 50.0938 93.7708 58.1146 85.0208C56.7083 81.8646 52.4896 69.1563 59.2083 51.9375C59.2083 51.9375 69.6771 48.5833 93.5833 64.75C103.583 61.9688 114.208 60.5938 124.833 60.5313C135.458 60.5938 146.083 61.9688 156.083 64.75C179.833 48.5833 190.302 51.9375 190.302 51.9375C197.021 69.1563 192.802 81.8646 191.552 85.0208C199.521 93.7708 204.365 104.917 204.365 118.563C204.365 166.583 175.146 177.156 147.333 180.229C151.708 183.979 155.771 191.646 155.771 203.354C155.771 220.083 155.615 233.521 155.615 237.583C155.615 240.865 157.802 244.771 164.208 243.521C214.219 227.125 250 180.25 250 125.094C250 56.0625 194.031 0.09375 125 0.09375Z"
    fill="#660C44" />
</svg>
