<svg xmlns="http://www.w3.org/2000/svg" xmlns:xlink="http://www.w3.org/1999/xlink" width="1280" zoomAndPan="magnify" viewBox="0 0 960 959.999988" height="1280" preserveAspectRatio="xMidYMid meet" version="1.0"><rect x="-96" width="1152" fill="#ffffff" y="-95.999999" height="1151.999986" fill-opacity="1"/><rect x="-96" width="1152" fill="#ffffff" y="-95.999999" height="1151.999986" fill-opacity="1"/><path fill="#e40b0b" d="M 717.441406 632.558594 L 632.558594 717.441406 L 480 564.886719 L 327.441406 717.441406 L 242.558594 632.558594 L 395.113281 480 L 242.558594 327.441406 L 327.441406 242.558594 L 480 395.113281 L 632.558594 242.558594 L 717.441406 327.441406 L 564.886719 480 Z M 480 0 C 214.941406 0 0 214.941406 0 480 C 0 745.058594 214.941406 960 480 960 C 745.058594 960 960 745.058594 960 480 C 960 214.941406 745.058594 0 480 0 " fill-opacity="1" fill-rule="nonzero"/></svg>